<?xml version="1.0" encoding="utf-8"?>
<!-- Generator: Adobe Illustrator 21.1.0, SVG Export Plug-In . SVG Version: 6.00 Build 0)  -->
<svg version="1.1" id="Layer_1" xmlns="http://www.w3.org/2000/svg" xmlns:xlink="http://www.w3.org/1999/xlink" x="0px" y="0px" width="140px"
	 viewBox="0 0 1329.5349121 349.2940369" style="enable-background:new 0 0 1329.5349121 349.2940369;" xml:space="preserve">
<style type="text/css">
	.st0{fill:#4EC692;}
	.st1{fill:url(#SVGID_1_);}
	.st2{fill:url(#SVGID_2_);}
</style>
<g>
	<g>
		<g>
			<path class="st0" d="M414.6707458,119.687027c0-4.6935501,2.4981689-7.4188461,7.3430786-7.4188461h33.7633057
				c12.2638245,0,18.4714355,1.0598373,23.7705994,3.3309021c12.7179871,5.2991791,20.8938599,17.26017,20.8938599,34.0661087
				c0,14.686264-7.7216797,28.7669373-20.7424927,34.0661011v0.3028259c0,0,1.5140686,1.9682617,4.0879211,6.5104065
				l20.591095,37.5484009c3.0281372,5.1477661,0.757019,8.7815094-5.1477661,8.7815094h-9.5384827
				c-4.0879517,0-6.6618042-1.5140533-8.6300964-5.1477661l-21.9537048-41.4849396h-21.9537354v39.2138519
				c0,4.8449707-2.4224854,7.4188538-7.267395,7.4188538h-8.0244446c-4.693573,0-7.1917419-2.4225006-7.1917419-7.4188538
				V119.687027z M457.5939941,170.7104797c12.1123962,0,19.6826172-7.5702362,19.6826172-19.8340302
				c0-7.8730469-3.0280457-14.2320709-9.8413086-17.1087646c-3.0281067-1.3626404-6.8132324-2.1196747-13.4750366-2.1196747
				h-16.654541v39.0624695H457.5939941z"/>
			<path class="st0" d="M559.7923584,119.687027c0-4.6935501,2.4224854-7.4188461,7.2674561-7.4188461h60.107666
				c4.6936035,0,7.4188843,2.5738831,7.4188843,7.4188461v4.9963608c0,4.6935654-2.5739136,7.2674484-7.4188843,7.2674484
				h-44.8157959v32.7034607h34.8230591c4.6936035,0,7.4188232,2.4224701,7.4188232,7.2674408v4.9963531
				c0,4.8449554-2.5738525,7.4188538-7.4188232,7.4188538h-34.8230591v33.6118774h47.5410767
				c4.6936035,0,7.4188232,2.4224854,7.4188232,7.2674713v4.9963684c0,4.8449402-2.5738525,7.4188232-7.4188232,7.4188232
				h-62.8329468c-4.6936035,0-7.2674561-2.4224854-7.2674561-7.4188232V119.687027z"/>
			<path class="st0" d="M692.8773804,119.687027c0-4.6935501,2.4223022-7.4188461,7.2672729-7.4188461h9.5385132
				c4.2392578,0,6.8131714,1.3626556,8.7813721,4.9963684l44.2103882,67.0723801
				c4.6934814,7.4188232,10.2954712,19.379837,10.2954712,19.379837h0.3028564c0,0-1.2112427-11.9610138-1.2112427-19.379837
				V119.687027c0-4.6935501,2.5739746-7.4188461,7.4188843-7.4188461h7.8731079
				c4.6934204,0,7.4188843,2.5738831,7.4188843,7.4188461v109.9199524c0,4.8449554-2.5739746,7.4188232-7.4188843,7.4188232
				h-9.5385132c-3.9364624,0-6.6618652-1.3626099-8.630127-4.9963684L724.8237915,165.10849
				c-4.5421753-7.4188538-10.2955322-19.379837-10.2955322-19.379837h-0.3028564c0,0,1.2112427,11.9609833,1.2112427,19.379837
				v64.4984894c0,4.8449554-2.4224854,7.4188232-7.267395,7.4188232h-8.0244751c-4.6936035,0-7.267395-2.4224701-7.267395-7.4188232
				V119.687027z"/>
			<path class="st0" d="M915.593811,110.1485214c37.6999512,0,64.4985352,27.8585129,64.4985352,63.590065
				c0,36.7913818-26.6472168,65.4069366-64.4985352,65.4069366c-37.6998901,0-64.4984131-28.6155396-64.4984131-65.4069214
				C851.2467041,138.158432,877.8939209,110.1485214,915.593811,110.1485214z M915.593811,218.4030304
				c23.9219971,0,41.182251-19.379837,41.182251-44.664444c0-24.2247925-17.2602539-42.8475952-41.182251-42.8475952
				c-23.921936,0-41.1821289,18.6228027-41.1821289,42.8475952
				C874.5631104,199.0232086,891.8233032,218.4030304,915.593811,218.4030304z"/>
			<path class="st0" d="M1031.2670898,216.283371l3.9365234-5.6019897c2.876709-3.9365234,5.753418-4.0879211,10.1442871-1.5140381
				c4.0878906,2.8766937,13.020752,9.0842896,25.2845459,9.0842896c11.6582031,0,18.6228027-5.7533875,18.6228027-14.2320557
				c0-23.7705536-58.1395264-18.7742004-58.1395264-57.685257c0-21.9537125,18.3199463-36.1857834,41.9390869-36.1857834
				c14.6864014,0,26.9500732,5.6019821,32.0980225,9.5385132c3.9365234,2.8766937,4.390625,6.2075958,2.2709961,9.9927292
				l-3.1794434,5.7533875c-2.5738525,5.1477661-6.3590088,4.3907471-9.9926758,2.4224854
				c-5.1478271-3.0281067-11.9610596-6.8132324-21.6508789-6.8132324c-11.6582031,0-18.9256592,5.6019745-18.9256592,14.080658
				c0,23.3163605,58.1396484,17.4115753,58.1396484,57.0796356c0,20.1368713-15.140625,36.9428101-41.3336182,36.9428101
				c-17.7143555,0-32.0979004-7.8730621-38.3054199-12.7180176
				C1029.6016846,224.0050354,1027.78479,220.976944,1031.2670898,216.283371z"/>
			<path class="st0" d="M1193.5732422,184.7911377l-36.4886475-63.7414627
				c-3.0279541-4.8449478-0.756958-8.7814941,4.8449707-8.7814941h9.8414307c4.0877686,0,6.6618652,1.8168564,8.4786377,5.4505768
				l16.8059082,31.3408127c3.9364014,7.7216644,7.5703125,16.654541,7.5703125,16.654541h0.3027344
				c0,0,3.633667-8.9328766,7.5703125-16.654541l16.8059082-31.3408127
				c1.8168945-3.6337204,4.3908691-5.4505768,8.4786377-5.4505768h9.8414307c5.7532959,0,7.8729248,3.9365311,5.1477051,8.7814941
				l-36.7913818,63.7414627v44.8158569c0,4.8449554-2.4224854,7.4188385-7.2675781,7.4188385h-7.8730469
				c-4.8449707,0-7.4188232-2.4224854-7.4188232-7.4188385v-44.8158569H1193.5732422z"/>
		</g>
		<path class="st0" d="M1307.732666,112.2681961c12.1123047,0,21.8022461,9.8413315,21.8022461,22.1051102
			c0,12.2637939-9.6899414,22.1051025-21.8022461,22.1051025c-11.9611816,0-21.4995117-9.8413086-21.4995117-22.1051025
			S1295.9229736,112.2681961,1307.732666,112.2681961z M1307.732666,151.6334839
			c9.2355957,0,16.3518066-7.5702667,16.3518066-17.2601776c0-9.5385056-7.1162109-17.2601547-16.3518066-17.2601547
			c-9.0844727,0-16.2004395,7.5702362-16.2004395,17.2601547S1298.6481934,151.6334839,1307.732666,151.6334839z
			 M1300.1624756,125.7432327c0-1.665451,0.9083252-2.5738831,2.5738525-2.5738831h6.6617432
			c4.3908691,0,7.2674561,2.7252884,7.2674561,6.9646225c0,3.4823151-2.4223633,5.2991638-3.9364014,5.7533875v0.1513977
			c0,0,0.3027344,0.3028107,0.756958,1.2112579l2.5738525,4.9963684c0.9084473,1.8168335,0.3028564,3.0280914-1.2111816,3.0280914
			h-0.756958c-1.5140381,0-2.4224854-0.6056213-2.8768311-1.8168488l-2.8768311-6.2076111h-3.0279541v5.6019745
			c0,1.665451-0.7570801,2.5738831-2.4224854,2.5738831h-0.4542236c-1.6654053,0-2.4224854-0.908432-2.4224854-2.5738831
			L1300.1624756,125.7432327z M1308.1867676,133.4648895c2.119873,0,3.1794434-1.2112579,3.1794434-3.3309021
			c0-2.1196747-1.2111816-3.3309174-3.0280762-3.3309174h-3.0280762v6.5104218L1308.1867676,133.4648895z"/>
	</g>
	<g>
		
			<radialGradient id="SVGID_1_" cx="56.2178307" cy="-2059.2929688" r="300.7345581" gradientTransform="matrix(1 0 0 -1 0.000001 -1796.1318359)" gradientUnits="userSpaceOnUse">
			<stop  offset="0" style="stop-color:#4FDAE3"/>
			<stop  offset="0.6849" style="stop-color:#5CD696"/>
			<stop  offset="1" style="stop-color:#86D462"/>
		</radialGradient>
		<path class="st1" d="M150.0469971,0C15.8955679,0-49.1038246,158.9877777,43.133007,251.2245636l94.1898041,92.6381073
			c6.7267761,7.3994446,19.3819885,7.4287415,26.5345459-1.0862427l63.1552887-62.2242126l-24.827652-24.5172729
			l-52.2931671,51.3621826l-85.1898193-83.7932587C-1.8210049,151.537262,49.4497871,34.4483376,149.8918304,34.4483376
			c83.5257111,0,138.8890839,84.4493408,105.2070618,159.2071838l26.0690155,25.6035004
			C335.7510376,122.0327682,265.4902039,0,150.0469971,0z"/>
		
			<radialGradient id="SVGID_2_" cx="56.1062279" cy="-2059.2905273" r="300.9655151" gradientTransform="matrix(1 0 0 -1 0.000001 -1796.1318359)" gradientUnits="userSpaceOnUse">
			<stop  offset="0" style="stop-color:#4FDAE3"/>
			<stop  offset="0.6849" style="stop-color:#5CD696"/>
			<stop  offset="1" style="stop-color:#86D462"/>
		</radialGradient>
		<path class="st2" d="M171.1504517,192.1038055c-31.5658569,15.0295868-71.2242355-7.6091461-71.2242355-44.5345612
			c0-21.4957504,16.571434-49.1777725,50.5241165-48.7194061c34.5453949,0.466362,58.2567139,34.7413788,46.1484528,66.4091034
			l31.1896973,15.9827881c24.8269958-55.6468658-18.4112701-116.9319839-77.3748322-116.9319839
			c-50.6066284,0-85.556488,41.516655-85.556488,84.1905136c0,58.4383698,59.0404282,97.8659363,113.7415771,78.6725311
			c29.312439-10.2783661,42.8083649,20.2450104,64.8621674,37.7069702
			c14.8453369-14.8453217,15.9257507-15.0270081,24.3621521-25.4483032
			C235.0837402,207.3022308,212.6888885,172.3259583,171.1504517,192.1038055z"/>
	</g>
</g>
</svg>
