<svg xmlns="http://www.w3.org/2000/svg" xmlns:xlink="http://www.w3.org/1999/xlink" viewBox="0 0 1329.53 349.29">
  <defs>
    <style>
      .a {
        fill: #4ec692;
      }

      .b {
        fill: url(#a);
      }

      .c {
        fill: url(#b);
      }
    </style>
    <radialGradient id="a" data-name="名称未設定グラデーション 2" cx="56.22" cy="2379.29" r="300.73" gradientTransform="translate(0 -2116.13)" gradientUnits="userSpaceOnUse">
      <stop offset="0" stop-color="#4fdae3"/>
      <stop offset="0.68" stop-color="#5cd696"/>
      <stop offset="1" stop-color="#86d462"/>
    </radialGradient>
    <radialGradient id="b" cx="56.11" cy="2379.29" r="300.97" xlink:href="#a"/>
  </defs>
  <title>logo_renosy</title>
  <g>
    <g>
      <g>
        <path class="a" d="M414.67,119.69c0-4.7,2.5-7.42,7.34-7.42h33.77c12.26,0,18.47,1.06,23.77,3.33,12.72,5.3,20.89,17.26,20.89,34.07,0,14.68-7.72,28.76-20.74,34.06v.3a63.39,63.39,0,0,1,4.09,6.51l20.59,37.55c3,5.15.76,8.78-5.15,8.78h-9.54c-4.09,0-6.66-1.51-8.63-5.14l-21.95-41.49h-22v39.22c0,4.84-2.42,7.41-7.26,7.41h-8c-4.69,0-7.19-2.42-7.19-7.41Zm42.92,51c12.12,0,19.69-7.57,19.69-19.83,0-7.88-3-14.24-9.84-17.11-3-1.36-6.82-2.12-13.48-2.12H437.31v39.06Z" transform="translate(0)"/>
        <path class="a" d="M559.79,119.69c0-4.7,2.42-7.42,7.27-7.42h60.11c4.69,0,7.42,2.57,7.42,7.42v5c0,4.7-2.58,7.27-7.42,7.27H582.35v32.7h34.82c4.7,0,7.42,2.43,7.42,7.27v5c0,4.84-2.57,7.42-7.42,7.42H582.35V218h47.54c4.7,0,7.42,2.42,7.42,7.27v5c0,4.85-2.57,7.42-7.42,7.42H567.06c-4.69,0-7.27-2.42-7.27-7.42Z" transform="translate(0)"/>
        <path class="a" d="M692.88,119.69c0-4.7,2.42-7.42,7.26-7.42h9.54c4.24,0,6.82,1.36,8.78,5l44.21,67.08A219,219,0,0,1,773,203.72h.3s-1.21-12-1.21-19.38V119.69c0-4.7,2.58-7.42,7.42-7.42h7.87c4.7,0,7.42,2.57,7.42,7.42V229.61c0,4.84-2.57,7.42-7.42,7.42h-9.53c-3.94,0-6.67-1.37-8.63-5l-44.37-66.92c-4.54-7.42-10.29-19.38-10.29-19.38h-.3s1.21,12,1.21,19.38v64.5c0,4.84-2.43,7.42-7.27,7.42h-8c-4.69,0-7.26-2.43-7.26-7.42Z" transform="translate(0)"/>
        <path class="a" d="M915.59,110.15c37.7,0,64.5,27.86,64.5,63.59,0,36.79-26.64,65.41-64.5,65.41-37.7,0-64.49-28.62-64.49-65.41C851.25,138.16,877.89,110.15,915.59,110.15Zm0,108.25c23.93,0,41.19-19.38,41.19-44.66,0-24.23-17.26-42.85-41.19-42.85s-41.18,18.62-41.18,42.85C874.56,199,891.82,218.4,915.59,218.4Z" transform="translate(0)"/>
        <path class="a" d="M1031.27,216.28l3.93-5.6c2.88-3.94,5.76-4.09,10.15-1.51,4.09,2.87,13,9.08,25.28,9.08,11.66,0,18.63-5.75,18.63-14.23,0-23.77-58.14-18.77-58.14-57.69,0-22,18.32-36.18,41.93-36.18,14.69,0,27,5.6,32.1,9.54,3.94,2.87,4.39,6.2,2.27,10l-3.18,5.75c-2.57,5.15-6.35,4.39-10,2.43-5.15-3-12-6.82-21.65-6.82-11.66,0-18.92,5.6-18.92,14.08,0,23.32,58.13,17.41,58.13,57.08,0,20.14-15.14,37-41.33,37a65.66,65.66,0,0,1-38.3-12.72C1029.6,224,1027.78,221,1031.27,216.28Z" transform="translate(0)"/>
        <path class="a" d="M1193.57,184.79l-36.49-63.74c-3-4.85-.75-8.78,4.85-8.78h9.84c4.09,0,6.66,1.82,8.48,5.45l16.81,31.34c3.93,7.72,7.57,16.65,7.57,16.65h.3s3.63-8.93,7.57-16.65l16.8-31.34c1.82-3.63,4.4-5.45,8.48-5.45h9.84c5.76,0,7.88,3.93,5.15,8.78L1216,184.79v44.82c0,4.84-2.42,7.42-7.27,7.42h-7.87c-4.84,0-7.42-2.43-7.42-7.42V184.79Z" transform="translate(0)"/>
      </g>
      <path class="a" d="M1307.73,112.27a22.11,22.11,0,0,1,0,44.21c-12,0-21.5-9.84-21.5-22.11S1295.92,112.27,1307.73,112.27Zm0,39.36c9.24,0,16.35-7.57,16.35-17.26s-7.11-17.26-16.35-17.26c-9.08,0-16.2,7.57-16.2,17.26S1298.65,151.63,1307.73,151.63Zm-7.57-25.89a2.32,2.32,0,0,1,2.58-2.57h6.66c4.39,0,7.27,2.72,7.27,7a5.9,5.9,0,0,1-3.94,5.76V136a5.19,5.19,0,0,1,.76,1.21l2.57,5c.91,1.81.3,3-1.21,3h-.76a2.73,2.73,0,0,1-2.88-1.81l-2.87-6.21h-3v5.6c0,1.67-.76,2.58-2.42,2.58h-.46c-1.66,0-2.42-.91-2.42-2.58Zm8,7.72c2.12,0,3.18-1.21,3.18-3.33s-1.21-3.33-3-3.33h-3v6.51Z" transform="translate(0)"/>
    </g>
    <g>
      <path class="b" d="M150.05,0C15.9,0-49.1,159,43.13,251.22l94.19,92.64c6.73,7.4,19.38,7.43,26.54-1.08L227,280.55,202.18,256,149.89,307.4,64.7,223.6C-1.82,151.54,49.45,34.45,149.89,34.45c83.53,0,138.89,84.45,105.21,159.21l26.07,25.6C335.75,122,265.49,0,150.05,0Z" transform="translate(0)"/>
      <path class="c" d="M171.15,192.1c-31.57,15-71.22-7.61-71.22-44.53,0-21.5,16.57-49.18,50.52-48.72,34.55.47,58.26,34.74,46.15,66.41l31.19,16c24.83-55.65-18.41-116.93-77.38-116.93-50.6,0-85.55,41.52-85.55,84.19,0,58.44,59,97.87,113.74,78.67,29.31-10.28,42.81,20.25,64.86,37.71,14.85-14.85,15.93-15,24.36-25.45C235.08,207.3,212.69,172.33,171.15,192.1Z" transform="translate(0)"/>
    </g>
  </g>
</svg>
