<svg id="グループ化_5485" data-name="グループ化 5485" xmlns="http://www.w3.org/2000/svg" viewBox="0 0 118 20.962">
  <path id="パス_427" data-name="パス 427" d="M9.879,13.578a5.94,5.94,0,0,0,4.1-5.774c0-3.941-2.819-6.4-7.334-6.4H0V21.6H4.023V14.07h1.45L10.536,21.6H15.3L9.687,13.66ZM6.7,10.786H4.023V5.012H6.7c1.97,0,3.229,1.122,3.229,2.873A2.913,2.913,0,0,1,6.7,10.786Z" transform="translate(0 -1.017)"/>
  <path id="パス_428" data-name="パス 428" d="M74.35,5.04h7.881V1.4H70.3V21.6H82.286v-3.64H74.35Z" transform="translate(-51.062 -1.017)"/>
  <path id="パス_429" data-name="パス 429" d="M134.3,1.4V21.6h3.941V7.667L148.147,21.6h4.16V1.4h-3.941V15.411L138.514,1.4Z" transform="translate(-97.548 -1.017)"/>
  <path id="パス_430" data-name="パス 430" d="M225.463,0A10.535,10.535,0,0,0,214.9,10.481a10.563,10.563,0,0,0,21.126,0A10.535,10.535,0,0,0,225.463,0Zm0,17.021a6.408,6.408,0,0,1-6.4-6.54,6.4,6.4,0,1,1,12.807,0A6.408,6.408,0,0,1,225.463,17.021Z" transform="translate(-156.092)"/>
  <path id="パス_431" data-name="パス 431" d="M312.8,8.949l-2.682-1.04c-.985-.356-2.107-.958-2.107-2.189,0-1.177,1.013-2,2.463-2A3.773,3.773,0,0,1,313.782,6.1l3.366-1.943A7.423,7.423,0,0,0,310.389,0c-3.858,0-6.54,2.463-6.54,5.993,0,2.682,1.56,4.543,4.789,5.719l2.463.876c1.56.575,2.271,1.286,2.271,2.381,0,1.314-1.149,2.244-2.819,2.244a4.471,4.471,0,0,1-4.05-2.873L303,16.173a7.759,7.759,0,0,0,7.471,4.789c3.5,0,7.088-2.162,7.088-6.321C317.558,11.986,316.026,10.153,312.8,8.949Z" transform="translate(-220.083)"/>
  <path id="パス_432" data-name="パス 432" d="M377.629,1.4l-4.652,7.69L368.325,1.4H363.7l7.2,11.411V21.6h4.077V12.811l.027-.055L382.172,1.4Z" transform="translate(-264.172 -1.017)"/>
  <path id="パス_433" data-name="パス 433" d="M91.036,34.371A2.436,2.436,0,1,0,88.6,31.936,2.441,2.441,0,0,0,91.036,34.371Z" transform="translate(-64.354 -21.427)"/>
</svg>
