<?xml version="1.0" encoding="utf-8"?>
<!-- Generator: Adobe Illustrator 23.0.0, SVG Export Plug-In . SVG Version: 6.00 Build 0)  -->
<svg version="1.1" id="レイヤー_1" xmlns="http://www.w3.org/2000/svg" xmlns:xlink="http://www.w3.org/1999/xlink" x="0px"
	 y="0px" width="330.41px" height="89.47px" viewBox="0 0 330.41 89.47" style="enable-background:new 0 0 330.41 89.47;"
	 xml:space="preserve">
<style type="text/css">
	.st0{fill:#FFFFFF;}
</style>
<g>
	<path class="st0" d="M110.4,27.39h8.87v44.33h-8.87V27.39z"/>
	<path class="st0" d="M202.46,71.72h9.65l-22.09-53.2l-21.99,53.2h9.54l3.22-7.77h18.44L202.46,71.72z M184.48,55.09l5.56-13.4
		l5.54,13.4H184.48z"/>
	<polygon class="st0" points="251.1,27.39 251.1,52.66 220.98,27.39 220.98,71.72 229.85,71.72 229.85,46.42 259.97,71.72 
		259.97,27.39 	"/>
	<path class="st0" d="M315.39,27.39h8.87v44.33h-8.87V27.39z"/>
	<polygon class="st0" points="168.04,27.39 128.14,27.39 128.14,36.25 143.65,36.25 143.65,71.72 152.52,71.72 152.52,36.25 
		168.04,36.25 	"/>
	<path class="st0" d="M271.05,27.39h12.62c14.37,0,22.85,10.45,22.85,22.17c0,11.72-8.81,22.17-22.85,22.17h-12.62V27.39z
		 M279.92,63.95h3.75c9.15,0,14.98-6.56,14.98-14.4c0-7.84-5.83-14.4-14.98-14.4h-3.75V63.95z"/>
	<g>
		<polygon class="st0" points="30.74,41.33 61.39,71.97 72.97,60.39 42.33,29.75 57.59,14.48 46.12,3 4,45.12 15.48,56.6 		"/>
		
			<rect x="30.32" y="49.09" transform="matrix(0.7071 -0.7071 0.7071 0.7071 -36.8792 47.1158)" class="st0" width="16.23" height="37.97"/>
		
			<rect x="60.96" y="18.45" transform="matrix(0.7071 -0.7071 0.7071 0.7071 -6.2371 59.8071)" class="st0" width="16.23" height="37.97"/>
	</g>
</g>
</svg>
