<?xml version="1.0" encoding="utf-8"?>
<!-- Generator: Adobe Illustrator 23.0.0, SVG Export Plug-In . SVG Version: 6.00 Build 0)  -->
<svg version="1.1" id="レイヤー_1" xmlns="http://www.w3.org/2000/svg" xmlns:xlink="http://www.w3.org/1999/xlink" x="0px"
	 y="0px" width="841.89px" height="35.84px" viewBox="0 0 841.89 35.84" style="enable-background:new 0 0 841.89 35.84;"
	 xml:space="preserve">
<style type="text/css">
	.st0{fill:#FFFFFF;}
</style>
<g>
	<g>
		<g>
			<path class="st0" d="M57.45,2.86c0.37-1.12,1.12-1.62,2.24-1.62h3.06c1.16,0,1.91,0.54,2.24,1.62l10.64,30.15
				c0.5,1.41-0.12,2.32-1.62,2.32h-2.19c-1.16,0-1.91-0.54-2.24-1.62l-2.4-7.08H55.25l-2.36,7.04c-0.33,1.16-1.12,1.7-2.24,1.7
				h-2.19c-1.49,0-2.11-0.91-1.62-2.32L57.45,2.86z M65.65,21.54l-3.02-9.11c-0.58-1.91-1.33-5.26-1.33-5.26h-0.08
				c0,0-0.79,3.35-1.33,5.26l-3.06,9.11H65.65z"/>
			<path class="st0" d="M31.39,28.37c0-1.91,0,1.35,0-9.56c0-1.34-0.67-2.01-1.97-2.01h-6.81c-1.3,0-2.01,0.67-2.01,2.01v1.29
				c0,1.11,0.9,2.01,2.01,2.01h3.26v4.22c-8.24,6.97-19.73,2.35-19.99-8.4C5.72,11.38,9.83,5.77,17.43,5.77
				c3.64,0,6.09,1.25,7.58,2.11c1.2,0.67,2.06,0.58,2.78-0.53l0.86-1.34c0.72-1.1,0.62-1.96-0.43-2.78
				c-0.48-0.33-4.65-3.11-11.06-3.11C7.23,0.11-0.5,7.71-0.5,17.86l0,0c0,17.68,20.49,22.52,31.03,11.97
				C31.48,28.89,31.39,29.01,31.39,28.37z"/>
		</g>
		<g>
			<path class="st0" d="M114.51,5.92h-9.15c-1.33,0-2.03-0.66-2.03-1.99V2.61c0-1.28,0.66-2.03,2.03-2.03h24.48
				c1.28,0,1.99,0.7,1.99,2.03v1.33c0,1.28-0.66,1.99-1.99,1.99h-9.15v26.71c0,1.33-0.66,2.03-2.03,2.03h-2.15
				c-1.28,0-1.99-0.66-1.99-2.03L114.51,5.92L114.51,5.92z"/>
			<path class="st0" d="M147.75,2.61c0-1.28,0.68-2.03,2.01-2.03h16.36c1.28,0,2.03,0.7,2.03,2.03v1.33c0,1.28-0.7,1.99-2.03,1.99
				H153.9v8.95h9.48c1.28,0,2.03,0.66,2.03,1.99v1.33c0,1.33-0.7,2.03-2.03,2.03h-9.48v9.15h13c1.28,0,2.03,0.66,2.03,1.99v1.33
				c0,1.33-0.7,2.03-2.03,2.03h-17.19c-1.28,0-1.97-0.66-1.97-2.03V2.61H147.75z"/>
			<path class="st0" d="M200.61,0c5.55,0,9.32,2.11,11.14,3.4c0.99,0.79,1.04,1.74,0.37,2.77l-0.87,1.41
				c-0.66,1.12-1.57,1.2-2.73,0.5c-1.49-0.95-4.18-2.4-7.66-2.4c-7.45,0-11.43,5.43-11.43,11.72c0,6.38,4.14,12.18,11.47,12.18
				c3.85,0,6.75-1.82,8.37-2.98c1.04-0.79,2.03-0.79,2.77,0.33L213,28.2c0.7,0.95,0.66,1.99-0.29,2.77c-1.9,1.53-6,4.22-12.05,4.22
				c-10.68,0-17.6-7.74-17.6-17.77C183.05,7.58,190.3,0,200.61,0z"/>
			<path class="st0" d="M231.36,2.61c0-1.28,0.68-2.03,2.01-2.03h2.19c1.28,0,1.99,0.7,1.99,2.03v12.42h15.61V2.61
				c0-1.28,0.66-2.03,2.03-2.03h2.15c1.28,0,1.99,0.7,1.99,2.03v30.02c0,1.33-0.66,2.03-1.99,2.03h-2.19
				c-1.33,0-2.03-0.66-2.03-2.03v-12.3h-15.61v12.3c0,1.33-0.66,2.03-1.99,2.03h-2.19c-1.28,0-1.97-0.66-1.97-2.03L231.36,2.61
				L231.36,2.61z"/>
			<path class="st0" d="M279.84,2.61c0-1.28,0.66-2.03,1.99-2.03h2.61c1.16,0,1.86,0.37,2.4,1.33l12.09,18.35
				c1.28,2.03,2.82,5.26,2.82,5.26h0.08c0,0-0.33-3.27-0.33-5.26V2.61c0-1.28,0.7-2.03,2.03-2.03h2.15c1.28,0,2.03,0.7,2.03,2.03
				v30.02c0,1.33-0.7,2.03-2.03,2.03h-2.61c-1.04,0-1.82-0.37-2.36-1.33l-12.13-18.26c-1.24-2.03-2.82-5.26-2.82-5.26h-0.08
				c0,0,0.33,3.27,0.33,5.26v17.6c0,1.33-0.66,2.03-1.99,2.03h-2.19c-1.28,0-1.99-0.66-1.99-2.03V2.61z"/>
			<path class="st0" d="M343.08,0c10.31,0,17.6,7.62,17.6,17.35c0,10.02-7.29,17.85-17.6,17.85s-17.6-7.83-17.6-17.85
				C325.48,7.66,332.76,0,343.08,0z M343.08,29.57c6.54,0,11.22-5.26,11.22-12.18c0-6.63-4.72-11.72-11.22-11.72
				s-11.22,5.09-11.22,11.72C331.85,24.31,336.57,29.57,343.08,29.57z"/>
			<path class="st0" d="M379.15,2.61c0-1.28,0.66-2.03,1.99-2.03h2.19c1.28,0,1.99,0.7,1.99,2.03v26.71h12.71
				c1.33,0,2.03,0.66,2.03,1.99v1.33c0,1.33-0.66,2.03-2.03,2.03h-16.9c-1.28,0-1.99-0.66-1.99-2.03V2.61H379.15z"/>
			<path class="st0" d="M429.59,0c10.31,0,17.6,7.62,17.6,17.35c0,10.02-7.29,17.85-17.6,17.85s-17.6-7.83-17.6-17.85
				C411.95,7.66,419.28,0,429.59,0z M429.59,29.57c6.54,0,11.22-5.26,11.22-12.18c0-6.63-4.72-11.72-11.22-11.72
				s-11.22,5.09-11.22,11.72C418.37,24.31,423.05,29.57,429.59,29.57z"/>
			<path class="st0" d="M511.42,2.61c0-1.28,0.66-2.03,1.99-2.03h2.19c1.28,0,1.99,0.7,1.99,2.03v30.02c0,1.33-0.66,2.03-1.99,2.03
				h-2.19c-1.28,0-1.99-0.66-1.99-2.03L511.42,2.61L511.42,2.61z"/>
			<path class="st0" d="M537.56,2.61c0-1.28,0.66-2.03,1.99-2.03h16.4c1.28,0,2.03,0.7,2.03,2.03v1.33c0,1.28-0.7,1.99-2.03,1.99
				h-12.22v8.95h9.48c1.28,0,2.03,0.66,2.03,1.99v1.33c0,1.33-0.7,2.03-2.03,2.03h-9.48v9.15h13c1.28,0,2.03,0.66,2.03,1.99v1.33
				c0,1.33-0.7,2.03-2.03,2.03h-17.19c-1.28,0-1.99-0.66-1.99-2.03L537.56,2.61L537.56,2.61z"/>
			<path class="st0" d="M575.53,28.99l1.04-1.53c0.79-1.04,1.57-1.12,2.77-0.41c1.12,0.79,3.56,2.48,6.92,2.48
				c3.15,0,5.09-1.57,5.09-3.89c0-6.46-15.86-5.14-15.86-15.74c0-6,4.97-9.9,11.47-9.9c4.02,0,7.33,1.53,8.78,2.61
				c1.04,0.79,1.2,1.7,0.62,2.73l-0.87,1.57c-0.7,1.41-1.74,1.2-2.73,0.66c-1.41-0.83-3.27-1.86-5.92-1.86
				c-3.15,0-5.18,1.53-5.18,3.85c0,6.38,15.86,4.76,15.86,15.61c0,5.51-4.14,10.06-11.26,10.06c-4.85,0-8.78-2.15-10.48-3.44
				C575.08,31.1,574.58,30.27,575.53,28.99z"/>
			<path class="st0" d="M494.28,28.37c0-1.91,0,1.35,0-9.56c0-1.34-0.67-2.01-1.97-2.01h-6.81c-1.3,0-2.01,0.67-2.01,2.01v1.29
				c0,1.11,0.9,2.01,2.01,2.01h3.26v4.22c-8.24,6.97-19.73,2.35-19.99-8.4c-0.16-6.56,3.95-12.17,11.55-12.17
				c3.64,0,6.09,1.25,7.58,2.11c1.2,0.67,2.06,0.58,2.78-0.53L491.54,6c0.72-1.1,0.62-1.96-0.43-2.78
				c-0.48-0.33-4.65-3.11-11.06-3.11c-9.93,0-17.65,7.6-17.66,17.75l0,0c0,17.68,20.49,22.52,31.03,11.97
				C494.38,28.89,494.28,29.01,494.28,28.37z"/>
		</g>
	</g>
	<g>
		<path class="st0" d="M738.64-0.47c10.31,0,17.6,7.62,17.6,17.35c0,10.02-7.29,17.85-17.6,17.85s-17.6-7.83-17.6-17.85
			C721,7.19,728.33-0.47,738.64-0.47z M738.64,29.1c6.54,0,11.22-5.26,11.22-12.18c0-6.63-4.72-11.72-11.22-11.72
			s-11.22,5.09-11.22,11.72C727.42,23.84,732.1,29.1,738.64,29.1z"/>
		<path class="st0" d="M664.25,28.37c0-1.91,0,1.35,0-9.56c0-1.34-0.67-2.01-1.97-2.01h-6.81c-1.3,0-2.01,0.67-2.01,2.01v1.29
			c0,1.11,0.9,2.01,2.01,2.01h3.26v4.22c-8.24,6.97-19.73,2.35-19.99-8.4c-0.16-6.56,3.95-12.17,11.55-12.17
			c3.64,0,6.09,1.25,7.58,2.11c1.2,0.67,2.06,0.58,2.78-0.53L661.51,6c0.72-1.1,0.62-1.96-0.43-2.78
			c-0.48-0.33-4.65-3.11-11.06-3.11c-9.93,0-17.65,7.6-17.66,17.75l0,0c0,17.68,20.49,22.52,31.03,11.97
			C664.34,28.9,664.25,29.01,664.25,28.37z"/>
		<path class="st0" d="M707.98,32.32l-7.93-12.65c4.33-1.19,6.82-4.58,6.82-9.56c0-5.96-3.88-9.52-10.38-9.52h-7.12h-3.94h-0.92
			h-0.05h-1.22c-1.33,0-1.99,0.75-1.99,2.03v30.02c0,1.37,0.7,2.03,1.99,2.03h2.19c1.33,0,1.99-0.7,1.99-2.03V20.15h6.48l8.3,13.44
			c0.4,0.69,1.05,1.05,1.98,1.05h2.19C707.86,34.64,708.58,33.39,707.98,32.32z M687.42,5.93h8.88c3.29,0,4.82,1.38,4.82,4.33
			c0,3.06-1.57,4.55-4.82,4.55h-8.88V5.93z"/>
		<path class="st0" d="M831.01,0.58h-7.12h-3.94h-0.92h-0.05h-1.22c-1.33,0-1.99,0.75-1.99,2.03v30.02c0,1.37,0.7,2.03,1.99,2.03
			h2.19c1.33,0,1.99-0.7,1.99-2.03V20.15h8.88c6.62,0,10.57-3.76,10.57-10.05C841.39,4.14,837.51,0.58,831.01,0.58z M830.82,14.81
			h-8.88V5.93h8.88c3.29,0,4.82,1.38,4.82,4.33C835.64,13.32,834.06,14.81,830.82,14.81z"/>
		<path class="st0" d="M798.55,2.61c0-1.28-0.66-2.03-1.99-2.03h-2.19c-1.28,0-1.99,0.7-1.99,2.03v17.54c0,0.11,0,0.32,0,0.32
			c0,4.81-3.25,8.46-7.8,8.46c-0.03,0-0.05,0-0.08,0s-0.05,0-0.08,0c-4.55,0-7.8-3.66-7.8-8.46c0,0,0-0.21,0-0.32V2.61
			c0-1.33-0.7-2.03-1.99-2.03h-2.19c-1.33,0-1.99,0.75-1.99,2.03c0,0,0,17.71,0,17.8c0,5.07,2.35,9.42,6.17,11.92
			c2.18,1.43,4.83,2.25,7.8,2.25c0.03,0,0.05,0,0.08,0s0.05,0,0.08,0c2.97,0,5.62-0.83,7.8-2.25c3.82-2.5,6.17-6.85,6.17-11.92
			C798.55,20.33,798.55,2.61,798.55,2.61z"/>
	</g>
</g>
</svg>
