<?xml version="1.0" encoding="utf-8"?>
<!-- Generator: Adobe Illustrator 23.0.0, SVG Export Plug-In . SVG Version: 6.00 Build 0)  -->
<svg version="1.1" id="レイヤー_1" xmlns="http://www.w3.org/2000/svg" xmlns:xlink="http://www.w3.org/1999/xlink" x="0px"
	 y="0px" width="506.05px" height="100.84px" viewBox="0 0 506.05 100.84" style="enable-background:new 0 0 506.05 100.84;"
	 xml:space="preserve">
<style type="text/css">
	.st0{fill:#FFFFFF;}
</style>
<g>
	<g>
		<g>
			<g>
				<path class="st0" d="M317,40.46c-0.16,1.67-0.78,3.03-1.86,4.1c-1.2,1.19-2.78,1.79-4.74,1.79c-2.16,0-3.87-0.78-5.13-2.34
					c-1.22-1.5-1.83-3.45-1.83-5.86c0-2.47,0.59-4.47,1.77-6.01c1.28-1.64,3.08-2.47,5.4-2.47c1.76,0,3.21,0.48,4.35,1.45
					c1.14,0.97,1.78,2.24,1.92,3.82h-1.17c-0.16-1.24-0.69-2.25-1.58-3c-0.89-0.76-2.03-1.13-3.43-1.13c-2.06,0-3.62,0.76-4.68,2.28
					c-0.92,1.29-1.38,3.01-1.38,5.14c0,2.09,0.5,3.77,1.5,5.05c1.04,1.33,2.48,2,4.32,2c1.48,0,2.72-0.45,3.71-1.36
					s1.55-2.06,1.66-3.45H317V40.46z"/>
				<path class="st0" d="M333.18,38.02c0,2.55-0.64,4.57-1.92,6.08c-1.28,1.5-3.03,2.25-5.25,2.25c-2.26,0-4.04-0.8-5.34-2.4
					c-1.22-1.5-1.83-3.5-1.83-5.98c0-2.42,0.62-4.4,1.86-5.92c1.32-1.58,3.1-2.37,5.34-2.37s3.99,0.76,5.25,2.28
					C332.55,33.47,333.18,35.5,333.18,38.02z M332.04,38.02c0-2.16-0.51-3.9-1.53-5.21c-1.08-1.38-2.57-2.07-4.45-2.07
					c-1.85,0-3.31,0.65-4.39,1.96c-1.08,1.31-1.62,3.06-1.62,5.26c0,2.22,0.53,4,1.58,5.32c1.05,1.33,2.53,1.99,4.44,1.99
					c1.88,0,3.37-0.7,4.45-2.1C331.53,41.88,332.04,40.16,332.04,38.02z"/>
				<path class="st0" d="M356.4,45.95h-1.14V35.22c0-3-1.4-4.5-4.2-4.5c-1.28,0-2.33,0.45-3.14,1.36c-0.81,0.91-1.21,2.14-1.21,3.7
					v10.18h-1.14V35.22c0-3-1.27-4.5-3.81-4.5c-1.5,0-2.69,0.5-3.56,1.51s-1.31,2.34-1.31,4.01v9.72h-1.14V30.07h1.14v2.87h0.06
					c0.82-2.18,2.52-3.27,5.1-3.27c2.34,0,3.8,1.08,4.38,3.24h0.06c0.38-0.97,0.99-1.75,1.83-2.34c0.84-0.6,1.77-0.89,2.79-0.89
					c3.52,0,5.28,1.8,5.28,5.4v10.87H356.4z"/>
				<path class="st0" d="M373.78,37.99c0,2.38-0.56,4.34-1.68,5.86c-1.22,1.66-2.91,2.5-5.07,2.5c-2.98,0-4.92-1.36-5.82-4.07h-0.09
					v9.44h-1.14V30.07h1.14v3.67h0.09c0.46-1.27,1.2-2.27,2.22-2.99s2.23-1.08,3.63-1.08c2.08,0,3.72,0.76,4.92,2.28
					C373.18,33.47,373.78,35.49,373.78,37.99z M372.64,38.04c0-2.11-0.46-3.82-1.38-5.11c-1.02-1.42-2.46-2.12-4.32-2.12
					c-1.78,0-3.2,0.67-4.25,2c-1.05,1.33-1.58,3.06-1.58,5.17c0,2.28,0.52,4.06,1.56,5.35c1.04,1.29,2.46,1.94,4.26,1.94
					c1.9,0,3.36-0.76,4.38-2.28C372.2,41.68,372.64,40.03,372.64,38.04z"/>
				<path class="st0" d="M389.87,45.95c-0.06,0-0.23,0.02-0.52,0.06c-0.28,0.04-0.53,0.06-0.73,0.06c-1.14,0-1.71-0.62-1.73-1.85
					v-1.36h-0.09c-0.44,1.11-1.22,1.98-2.34,2.62c-1.04,0.57-2.22,0.86-3.54,0.86c-3.44,0-5.16-1.49-5.16-4.47
					c0-1.85,0.71-3.15,2.13-3.89c0.76-0.39,1.97-0.67,3.63-0.83c1.46-0.14,2.54-0.27,3.24-0.37c0.78-0.12,1.33-0.35,1.65-0.68
					s0.48-0.87,0.48-1.63c0-2.49-1.44-3.73-4.32-3.73c-3.08,0-4.7,1.4-4.86,4.19h-1.14c0.04-1.61,0.55-2.87,1.53-3.79
					c1.06-0.99,2.57-1.48,4.53-1.48c3.6,0,5.4,1.49,5.4,4.47v9.47c0,0.84,0.29,1.3,0.87,1.36h0.96v0.99H389.87z M386.89,39.75v-2.87
					c-0.3,0.43-1.07,0.74-2.32,0.93c-0.02,0.02-1.13,0.13-3.34,0.34c-1.32,0.12-2.3,0.38-2.92,0.77c-0.94,0.58-1.41,1.54-1.41,2.9
					c0,1.03,0.36,1.86,1.07,2.5c0.71,0.64,1.74,0.95,3.09,0.95c1.77,0,3.18-0.52,4.24-1.57C386.36,42.65,386.89,41.34,386.89,39.75z
					"/>
				<path class="st0" d="M403.85,45.95h-1.14v-10.4c0-3.16-1.49-4.74-4.47-4.74c-1.7,0-3.04,0.59-4.02,1.78
					c-0.92,1.11-1.38,2.5-1.38,4.19v9.17h-1.14V30.07h1.14v3.33h0.06c0.36-1.11,0.98-1.99,1.86-2.65c0.98-0.72,2.18-1.08,3.6-1.08
					c1.8,0,3.18,0.51,4.14,1.54c0.9,0.99,1.35,2.34,1.35,4.07V45.95z"/>
				<path class="st0" d="M418.79,30.07l-6.66,18.1c-0.48,1.29-1.01,2.19-1.58,2.68c-0.57,0.49-1.36,0.75-2.35,0.77
					c-0.56,0-0.95-0.03-1.17-0.09v-1.14c0.8,0.1,1.19,0.15,1.17,0.15c1.02,0,1.79-0.45,2.31-1.36c0.48-1.11,0.95-2.22,1.41-3.33
					l-6.36-15.79h1.26l5.64,14.49l0.06,0.01l5.08-14.49L418.79,30.07z"/>
			</g>
			<g>
				<path class="st0" d="M126.55,23.93L126.55,23.93h-1.71l1.25,1.33l-7.25,21.29h6.07l1.32-4.5h7.62l1.42,4.5h6.07l-7.7-22.61
					h-7.09V23.93z M127.34,37.83l2.71-9.47h0.06l2.62,9.47H127.34z"/>
				<path class="st0" d="M160.53,35.05c-1.07-0.7-3.04-1.39-5.92-2.06c-2.45-0.57-3.85-0.94-4.22-1.11
					c-1.05-0.47-1.57-1.23-1.57-2.31c0-1.63,1.14-2.44,3.42-2.44c1.15,0,2.05,0.31,2.71,0.93s1.01,1.44,1.05,2.46h6.07
					c-0.22-2.22-0.93-3.89-2.13-5.01c-1.6-1.48-4.2-2.22-7.8-2.22c-6.16,0-9.24,2.36-9.24,7.08c0,2.07,0.68,3.54,2.03,4.43
					c0.78,0.53,2.67,1.19,5.67,1.99c2.44,0.65,3.84,1.06,4.19,1.23c1.11,0.53,1.67,1.35,1.67,2.47c0,1.79-1.21,2.69-3.64,2.69
					c-2.69,0-4.04-1.22-4.04-3.64h-6.29c0.15,5.09,3.5,7.63,10.05,7.63c6.9,0,10.35-2.46,10.35-7.38
					C162.9,37.68,162.11,36.1,160.53,35.05z"/>
				<path class="st0" d="M183.43,35.05c-1.07-0.7-3.04-1.39-5.92-2.06c-2.44-0.57-3.85-0.94-4.22-1.11
					c-1.05-0.47-1.57-1.23-1.57-2.31c0-1.63,1.14-2.44,3.42-2.44c1.15,0,2.05,0.31,2.71,0.93s1.01,1.44,1.05,2.46h6.07
					c-0.23-2.22-0.94-3.89-2.13-5.01c-1.6-1.48-4.2-2.22-7.8-2.22c-6.16,0-9.24,2.36-9.24,7.08c0,2.07,0.67,3.54,2.03,4.43
					c0.78,0.53,2.67,1.19,5.67,1.99c2.44,0.65,3.84,1.06,4.19,1.23c1.11,0.53,1.66,1.35,1.66,2.47c0,1.79-1.21,2.69-3.64,2.69
					c-2.69,0-4.04-1.22-4.04-3.64h-6.29c0.15,5.09,3.49,7.63,10.05,7.63c6.9,0,10.36-2.46,10.36-7.38
					C185.8,37.68,185.01,36.1,183.43,35.05z"/>
				<path class="st0" d="M203,38.91c0,2.81-1.35,4.21-4.04,4.21c-2.75,0-4.13-1.4-4.13-4.21V23.93h-5.73h-1.28l1.28,1.36v13.24
					c0,3.08,0.8,5.3,2.4,6.65c1.54,1.33,4.03,1.99,7.46,1.99c3.33,0,5.79-0.68,7.38-2.04c1.59-1.36,2.39-3.56,2.39-6.6v-14.6H203
					V38.91z"/>
				<path class="st0" d="M232.18,41.35c0-2.01-0.26-3.46-0.77-4.37c-0.49-0.85-1.34-1.35-2.53-1.52V35.4
					c2.49-0.53,3.73-2.33,3.73-5.42c0-2.09-0.58-3.62-1.74-4.59s-2.99-1.46-5.5-1.46h-12.3h-1.28l1.28,1.36v21.25h5.73v-8.61h4.66
					c1.21,0,2.03,0.34,2.46,1.01c0.35,0.55,0.52,1.57,0.52,3.07c0,2.49,0.17,4,0.5,4.53h6.25c-0.35-0.49-0.58-0.96-0.71-1.42
					C232.28,44.29,232.18,43.03,232.18,41.35z M223.3,33.94h-4.5v-5.89h4.59c1.09,0,1.89,0.19,2.4,0.57
					c0.6,0.42,0.89,1.18,0.89,2.28C226.71,32.92,225.59,33.94,223.3,33.94z"/>
				<polygon class="st0" points="242.26,37.17 252.92,37.17 252.92,32.98 242.26,32.98 242.26,28.11 253.69,28.11 253.69,23.93 
					236.52,23.93 235.24,23.93 236.52,25.28 236.52,46.54 253.78,46.54 253.78,42.36 242.26,42.36 				"/>
				<polygon class="st0" points="271.96,39.16 271.87,39.16 263.77,23.93 257.36,23.93 256.07,23.93 257.36,25.28 257.36,46.54 
					262.78,46.54 262.78,31.24 262.8,31.23 271.06,46.54 277.39,46.54 277.39,23.93 271.96,23.93 				"/>
				<polygon class="st0" points="279.98,23.93 278.7,23.93 279.98,25.28 279.98,28.27 286.6,28.27 286.6,46.54 292.33,46.54 
					292.33,28.27 298.93,28.27 298.93,23.93 				"/>
			</g>
		</g>
		<g>
			<g>
				<path class="st0" d="M120.1,63.93c-0.2-0.68-0.39-1.12-0.63-1.3c-0.19-0.13-0.53-0.17-0.68-0.17c-0.17,0-0.27-0.02-0.27-0.16
					c0-0.13,0.13-0.17,0.37-0.17c0.88,0,1.81,0.06,1.96,0.06s0.9-0.06,1.88-0.06c0.24,0,0.36,0.06,0.36,0.17
					c0,0.15-0.14,0.16-0.3,0.16c-0.14,0-0.3,0-0.42,0.08c-0.15,0.07-0.19,0.2-0.19,0.4c0,0.24,0.17,0.87,0.37,1.69
					c0.29,1.21,1.86,6.76,2.17,7.79h0.05l3.29-9.56c0.17-0.51,0.29-0.66,0.42-0.66c0.18,0,0.27,0.27,0.49,0.86l3.52,9.24h0.05
					c0.3-1.23,1.66-6.07,2.25-8.21c0.12-0.42,0.17-0.81,0.17-1.06c0-0.29-0.15-0.55-0.81-0.55c-0.17,0-0.29-0.06-0.29-0.16
					c0-0.13,0.14-0.17,0.39-0.17c0.9,0,1.61,0.06,1.76,0.06c0.12,0,0.85-0.06,1.4-0.06c0.19,0,0.31,0.04,0.31,0.15
					c0,0.13-0.09,0.18-0.24,0.18c-0.17,0-0.41,0.02-0.59,0.09c-0.4,0.16-0.59,0.9-0.95,1.94c-0.78,2.31-2.56,8.14-3.39,10.89
					c-0.19,0.64-0.27,0.86-0.49,0.86c-0.17,0-0.27-0.22-0.52-0.9l-3.52-9.2h-0.03c-0.33,0.93-2.57,7.44-3.3,9.12
					c-0.32,0.75-0.41,0.97-0.61,0.97c-0.17,0-0.24-0.2-0.39-0.68L120.1,63.93z"/>
				<path class="st0" d="M139.63,68.72c0-2.36,0-2.8-0.02-3.3c-0.04-0.53-0.17-0.7-0.64-0.85c-0.12-0.03-0.37-0.05-0.59-0.05
					c-0.15,0-0.25-0.06-0.25-0.16c0-0.11,0.12-0.15,0.34-0.15c0.78,0,1.72,0.04,2.15,0.04c0.47,0,3.78,0.02,4.06,0
					c0.27-0.02,0.51-0.08,0.62-0.09c0.08-0.02,0.17-0.07,0.24-0.07c0.08,0,0.1,0.07,0.1,0.15c0,0.11-0.08,0.29-0.12,1.01
					c-0.02,0.17-0.05,0.84-0.08,1.03c-0.02,0.07-0.05,0.25-0.17,0.25c-0.1,0-0.12-0.07-0.12-0.2c0-0.11-0.02-0.39-0.1-0.57
					c-0.12-0.28-0.24-0.5-0.98-0.57c-0.25-0.04-2.03-0.08-2.33-0.08c-0.07,0-0.1,0.06-0.1,0.15v3.85c0,0.09,0.02,0.16,0.1,0.16
					c0.34,0,2.27,0,2.61-0.04c0.36-0.04,0.56-0.09,0.71-0.24c0.12-0.11,0.17-0.2,0.23-0.2c0.07,0,0.12,0.07,0.12,0.17
					c0,0.09-0.03,0.34-0.12,1.14c-0.03,0.31-0.07,0.93-0.07,1.04c0,0.13-0.02,0.35-0.15,0.35c-0.1,0-0.13-0.05-0.13-0.13
					c-0.02-0.16-0.02-0.36-0.05-0.57c-0.09-0.31-0.27-0.55-0.83-0.6c-0.27-0.04-1.96-0.07-2.33-0.07c-0.07,0-0.09,0.07-0.09,0.16
					v1.24c0,0.53-0.02,1.85,0,2.31c0.04,1.06,0.49,1.3,2.02,1.3c0.39,0,1.02-0.02,1.41-0.2c0.37-0.18,0.54-0.51,0.64-1.15
					c0.03-0.17,0.07-0.24,0.17-0.24c0.12,0,0.13,0.2,0.13,0.37c0,0.35-0.12,1.41-0.2,1.72c-0.1,0.41-0.24,0.41-0.79,0.41
					c-1.12,0-2.02-0.02-2.74-0.06c-0.73-0.02-1.29-0.04-1.73-0.04c-0.17,0-0.49,0.02-0.85,0.02c-0.35,0.02-0.73,0.04-1.03,0.04
					c-0.18,0-0.29-0.05-0.29-0.16c0-0.08,0.05-0.16,0.24-0.16c0.22,0,0.39-0.02,0.53-0.06c0.3-0.07,0.39-0.37,0.44-0.82
					c0.07-0.66,0.07-1.89,0.07-3.32v-2.76H139.63z"/>
				<path class="st0" d="M155.11,72.05c-0.08,0-0.1,0.02-0.13,0.11l-0.79,2.11c-0.15,0.39-0.22,0.77-0.22,0.95
					c0,0.28,0.14,0.44,0.59,0.44h0.22c0.19,0,0.22,0.07,0.22,0.16c0,0.13-0.08,0.16-0.24,0.16c-0.49,0-1.18-0.05-1.66-0.05
					c-0.15,0-0.95,0.05-1.73,0.05c-0.19,0-0.27-0.04-0.27-0.16c0-0.09,0.05-0.16,0.17-0.16c0.14,0,0.31-0.02,0.44-0.02
					c0.68-0.11,0.93-0.59,1.23-1.37l3.89-9.73c0.17-0.44,0.29-0.62,0.44-0.62c0.22,0,0.29,0.15,0.44,0.5
					c0.36,0.86,2.84,7.17,3.79,9.53c0.58,1.41,1,1.61,1.27,1.67c0.22,0.04,0.39,0.06,0.56,0.06c0.13,0,0.2,0.05,0.2,0.16
					c0,0.13-0.08,0.16-0.64,0.16c-0.52,0-1.61,0-2.86-0.04c-0.27-0.02-0.44-0.02-0.44-0.13c0-0.09,0.03-0.15,0.18-0.16
					c0.1-0.02,0.2-0.17,0.14-0.35l-1.15-3.15c-0.03-0.09-0.08-0.11-0.15-0.11h-3.5V72.05z M158.29,71.19c0.07,0,0.09-0.04,0.07-0.09
					l-1.41-3.9c-0.02-0.05-0.03-0.15-0.07-0.15c-0.05,0-0.07,0.09-0.08,0.15l-1.44,3.89c-0.03,0.07,0,0.11,0.05,0.11h2.88V71.19z"/>
				<path class="st0" d="M165.17,68.72c0-2.36,0-2.8-0.01-3.3c-0.04-0.53-0.19-0.72-0.51-0.83c-0.17-0.06-0.35-0.07-0.54-0.07
					c-0.15,0-0.24-0.04-0.24-0.18c0-0.09,0.12-0.13,0.36-0.13c0.56,0,1.57,0.04,2,0.04c0.37,0,1.34-0.04,1.91-0.04
					c0.18,0,0.3,0.04,0.3,0.13c0,0.15-0.09,0.18-0.24,0.18c-0.15,0-0.27,0.02-0.44,0.05c-0.4,0.08-0.52,0.29-0.56,0.85
					c-0.04,0.49-0.04,0.93-0.04,3.3v2.75c0,1.5,0,2.75,0.07,3.41c0.05,0.42,0.15,0.66,0.59,0.74c0.2,0.04,0.54,0.06,0.76,0.06
					c0.17,0,0.24,0.09,0.24,0.16c0,0.11-0.12,0.16-0.29,0.16c-0.98,0-1.99-0.05-2.4-0.05c-0.34,0-1.35,0.05-1.95,0.05
					c-0.18,0-0.29-0.05-0.29-0.16c0-0.08,0.05-0.16,0.24-0.16c0.22,0,0.39-0.02,0.53-0.06c0.3-0.07,0.39-0.29,0.44-0.75
					c0.07-0.64,0.07-1.89,0.07-3.39L165.17,68.72L165.17,68.72z"/>
				<path class="st0" d="M172.61,64.33c0.04-0.26,0.17-0.4,0.29-0.4c0.16,0,0.25,0.07,0.46,0.49l3.99,8.62l3.99-8.73
					c0.12-0.25,0.25-0.38,0.39-0.38c0.12,0,0.28,0.17,0.33,0.49l1.36,9.58c0.14,0.97,0.27,1.39,0.73,1.54
					c0.42,0.13,0.66,0.15,0.85,0.15c0.13,0,0.24,0.05,0.24,0.15c0,0.13-0.17,0.18-0.39,0.18c-0.37,0-2.49-0.06-3.08-0.09
					c-0.36-0.02-0.44-0.09-0.44-0.18c0-0.07,0.07-0.13,0.17-0.16c0.08-0.04,0.12-0.22,0.07-0.66l-0.83-6.72h-0.05l-3.2,6.89
					c-0.34,0.73-0.42,0.88-0.59,0.88c-0.19,0-0.35-0.31-0.59-0.79c-0.36-0.71-1.54-3.1-1.71-3.54c-0.12-0.29-1-2.18-1.49-3.26h-0.05
					l-0.71,6.01c-0.04,0.28-0.05,0.48-0.05,0.74c0,0.29,0.2,0.4,0.46,0.46c0.25,0.05,0.39,0.08,0.53,0.08s0.24,0.07,0.24,0.15
					c0,0.15-0.13,0.18-0.36,0.18c-0.62,0-1.3-0.05-1.57-0.05c-0.29,0-1,0.05-1.47,0.05c-0.15,0-0.27-0.04-0.27-0.18
					c0-0.07,0.09-0.15,0.24-0.15c0.12,0,0.22,0,0.46-0.04c0.4-0.06,0.54-0.67,0.61-1.19L172.61,64.33z"/>
				<path class="st0" d="M194.74,65.16l-2.22,0.05c-0.86,0.02-1.22,0.13-1.44,0.48c-0.16,0.22-0.22,0.42-0.26,0.53
					c-0.03,0.13-0.07,0.2-0.17,0.2c-0.1,0-0.14-0.09-0.14-0.26c0-0.25,0.29-1.76,0.32-1.89c0.03-0.2,0.08-0.29,0.17-0.29
					c0.12,0,0.27,0.13,0.64,0.18c0.44,0.06,1,0.08,1.49,0.08h6.04c0.47,0,0.79-0.04,1.02-0.08c0.24-0.04,0.36-0.07,0.41-0.07
					c0.1,0,0.12,0.09,0.12,0.33c0,0.33-0.03,1.49-0.03,1.89c-0.02,0.17-0.05,0.26-0.13,0.26c-0.12,0-0.15-0.07-0.17-0.31l-0.01-0.16
					c-0.03-0.4-0.42-0.88-1.76-0.9l-1.88-0.04v6.3c0,1.43,0.02,2.66,0.08,3.34c0.05,0.44,0.14,0.73,0.58,0.81
					c0.2,0.04,0.54,0.06,0.76,0.06c0.17,0,0.24,0.09,0.24,0.16c0,0.11-0.12,0.16-0.29,0.16c-0.98,0-1.98-0.05-2.4-0.05
					c-0.34,0-1.36,0.05-1.95,0.05c-0.19,0-0.29-0.05-0.29-0.16c0-0.08,0.05-0.16,0.24-0.16c0.22,0,0.41-0.02,0.52-0.06
					c0.3-0.07,0.39-0.37,0.44-0.82c0.07-0.66,0.07-1.89,0.07-3.32L194.74,65.16L194.74,65.16z"/>
				<path class="st0" d="M201.86,70.09c0-2.66,1.73-6.1,6.25-6.1c3.76,0,6.09,2.25,6.09,5.83c0,3.57-2.4,6.37-6.24,6.37
					C203.62,76.19,201.86,72.86,201.86,70.09z M211.98,70.38c0-3.44-1.91-5.57-4.31-5.57c-1.66,0-3.6,0.95-3.6,4.8
					c0,3.2,1.69,5.73,4.5,5.73C209.61,75.35,211.98,74.82,211.98,70.38z"/>
				<path class="st0" d="M222.57,68.72c0-2.36,0-2.8-0.02-3.3c-0.04-0.53-0.17-0.7-0.64-0.85c-0.12-0.03-0.37-0.05-0.59-0.05
					c-0.15,0-0.25-0.06-0.25-0.16c0-0.11,0.12-0.15,0.34-0.15c0.78,0,1.72,0.04,2.01,0.04c0.74,0,1.73-0.04,2.23-0.04
					c2.69,0,3.17,1.5,3.17,2.33c0,1.21-0.83,2.15-1.68,2.73c1.22,0.42,2.74,1.54,2.74,3.37c0,1.67-1.22,3.39-3.96,3.39
					c-0.17,0-0.68-0.02-1.18-0.06c-0.51-0.02-1.03-0.04-1.27-0.04c-0.17,0-0.49,0.02-0.85,0.02c-0.35,0.02-0.73,0.04-1.03,0.04
					c-0.18,0-0.29-0.05-0.29-0.16c0-0.08,0.05-0.16,0.24-0.16c0.22,0,0.39-0.02,0.52-0.06c0.3-0.07,0.39-0.37,0.44-0.82
					c0.07-0.66,0.07-1.89,0.07-3.32L222.57,68.72L222.57,68.72z M224.49,68.97c0,0.13,0.05,0.15,0.1,0.16
					c0.13,0.03,0.35,0.06,0.69,0.06c0.49,0,0.91-0.06,1.17-0.28c0.39-0.33,0.67-0.9,0.67-1.65c0-1.04-0.58-2.34-1.86-2.34
					c-0.2,0-0.49,0-0.64,0.04c-0.1,0.02-0.13,0.09-0.13,0.25V68.97z M224.49,73.55c0,1.02,0.05,1.34,0.53,1.54
					c0.39,0.16,0.73,0.18,1.06,0.18c0.8,0,1.83-0.48,1.83-2.2c0-0.71-0.29-1.94-1.41-2.77c-0.31-0.24-0.71-0.4-1.29-0.4h-0.64
					c-0.05,0-0.08,0.02-0.08,0.11V73.55z"/>
				<path class="st0" d="M233.4,68.72c0-2.36,0-2.8-0.02-3.3c-0.03-0.53-0.17-0.7-0.64-0.85c-0.12-0.03-0.38-0.05-0.59-0.05
					c-0.15,0-0.25-0.06-0.25-0.16c0-0.11,0.12-0.15,0.34-0.15c0.78,0,1.72,0.04,2.15,0.04c0.48,0,3.78,0.02,4.07,0
					c0.27-0.02,0.51-0.08,0.62-0.09c0.08-0.02,0.17-0.07,0.24-0.07c0.08,0,0.1,0.07,0.1,0.15c0,0.11-0.09,0.29-0.12,1.01
					c-0.02,0.17-0.05,0.84-0.09,1.03c-0.01,0.07-0.05,0.25-0.17,0.25c-0.1,0-0.12-0.07-0.12-0.2c0-0.11-0.02-0.39-0.1-0.57
					c-0.12-0.28-0.24-0.5-0.98-0.57c-0.25-0.04-2.03-0.08-2.33-0.08c-0.07,0-0.1,0.06-0.1,0.15v3.85c0,0.09,0.02,0.16,0.1,0.16
					c0.33,0,2.26,0,2.6-0.04c0.36-0.04,0.56-0.09,0.71-0.24c0.12-0.11,0.17-0.2,0.24-0.2s0.12,0.07,0.12,0.17
					c0,0.09-0.04,0.34-0.12,1.14c-0.03,0.31-0.07,0.93-0.07,1.04c0,0.13-0.02,0.35-0.15,0.35c-0.1,0-0.14-0.05-0.14-0.13
					c-0.01-0.16-0.01-0.36-0.05-0.57c-0.08-0.31-0.27-0.55-0.83-0.6c-0.27-0.04-1.96-0.07-2.33-0.07c-0.07,0-0.09,0.07-0.09,0.16
					v1.24c0,0.53-0.02,1.85,0,2.31c0.03,1.06,0.49,1.3,2.01,1.3c0.39,0,1.01-0.02,1.41-0.2c0.37-0.18,0.54-0.51,0.64-1.15
					c0.03-0.17,0.07-0.24,0.17-0.24c0.12,0,0.14,0.2,0.14,0.37c0,0.35-0.12,1.41-0.2,1.72c-0.1,0.41-0.24,0.41-0.79,0.41
					c-1.12,0-2.02-0.02-2.74-0.06c-0.73-0.02-1.28-0.04-1.73-0.04c-0.17,0-0.49,0.02-0.85,0.02c-0.35,0.02-0.73,0.04-1.03,0.04
					c-0.18,0-0.29-0.05-0.29-0.16c0-0.08,0.05-0.16,0.24-0.16c0.22,0,0.39-0.02,0.53-0.06c0.3-0.07,0.39-0.37,0.44-0.82
					c0.07-0.66,0.07-1.89,0.07-3.32v-2.76H233.4z"/>
				<path class="st0" d="M249.25,71.32c-0.09,0-0.12,0.04-0.15,0.15l-0.91,2.51c-0.17,0.46-0.25,0.9-0.25,1.12
					c0,0.33,0.15,0.57,0.68,0.57h0.25c0.2,0,0.26,0.03,0.26,0.15c0,0.15-0.1,0.18-0.29,0.18c-0.54,0-1.27-0.05-1.79-0.05
					c-0.18,0-1.12,0.05-2,0.05c-0.22,0-0.32-0.04-0.32-0.18c0-0.11,0.07-0.15,0.21-0.15c0.15,0,0.39-0.02,0.52-0.04
					c0.78-0.11,1.1-0.73,1.44-1.65l4.25-11.36c0.2-0.53,0.3-0.73,0.47-0.73c0.15,0,0.25,0.16,0.42,0.58
					c0.41,1.01,3.11,8.34,4.2,11.12c0.64,1.65,1.13,1.91,1.49,2c0.25,0.05,0.51,0.08,0.71,0.08c0.14,0,0.22,0.02,0.22,0.15
					c0,0.15-0.15,0.18-0.78,0.18c-0.61,0-1.84,0-3.2-0.04c-0.3-0.02-0.51-0.02-0.51-0.15c0-0.11,0.07-0.15,0.24-0.17
					c0.12-0.04,0.24-0.2,0.15-0.42l-1.35-3.78c-0.03-0.09-0.09-0.13-0.17-0.13L249.25,71.32L249.25,71.32z M252.7,70.4
					c0.08,0,0.1-0.06,0.08-0.11l-1.52-4.51c-0.02-0.07-0.04-0.17-0.09-0.17s-0.09,0.09-0.1,0.17l-1.56,4.49
					c-0.02,0.07,0,0.13,0.07,0.13C249.58,70.4,252.7,70.4,252.7,70.4z"/>
				<path class="st0" d="M259.27,75.79c-0.24-0.11-0.29-0.18-0.29-0.53c0-0.84,0.07-1.81,0.09-2.07c0-0.24,0.07-0.4,0.18-0.4
					c0.14,0,0.15,0.15,0.15,0.26c0,0.2,0.05,0.53,0.14,0.8c0.32,1.16,1.44,1.54,2.37,1.54c1.29,0,2.07-0.88,2.07-1.98
					c0-0.68-0.15-1.36-1.48-2.2l-0.86-0.55c-1.76-1.12-2.33-2.16-2.33-3.54c0-1.91,1.69-3.13,3.75-3.13c0.97,0,1.73,0.15,2.12,0.26
					c0.14,0.04,0.2,0.09,0.2,0.2c0,0.2-0.05,0.64-0.05,1.87c0,0.33-0.07,0.5-0.18,0.5c-0.1,0-0.15-0.09-0.15-0.28
					c0-0.15-0.07-0.62-0.39-1.03c-0.22-0.29-0.69-0.73-1.66-0.73c-1.06,0-2.03,0.6-2.03,1.67c0,0.69,0.24,1.24,1.57,2.05l0.61,0.37
					c1.97,1.17,2.57,2.36,2.57,3.78c0,1.15-0.41,2.09-1.49,2.91c-0.71,0.55-1.69,0.64-2.49,0.64
					C260.83,76.19,259.91,76.1,259.27,75.79z"/>
				<path class="st0" d="M268.41,75.79c-0.24-0.11-0.29-0.18-0.29-0.53c0-0.84,0.06-1.81,0.08-2.07c0-0.24,0.07-0.4,0.18-0.4
					c0.14,0,0.15,0.15,0.15,0.26c0,0.2,0.05,0.53,0.14,0.8c0.32,1.16,1.44,1.54,2.37,1.54c1.28,0,2.06-0.88,2.06-1.98
					c0-0.68-0.15-1.36-1.47-2.2l-0.87-0.55c-1.76-1.12-2.33-2.16-2.33-3.54c0-1.91,1.69-3.13,3.76-3.13c0.96,0,1.73,0.15,2.11,0.26
					c0.14,0.04,0.21,0.09,0.21,0.2c0,0.2-0.05,0.64-0.05,1.87c0,0.33-0.07,0.5-0.18,0.5c-0.1,0-0.15-0.09-0.15-0.28
					c0-0.15-0.07-0.62-0.39-1.03c-0.22-0.29-0.69-0.73-1.66-0.73c-1.07,0-2.03,0.6-2.03,1.67c0,0.69,0.24,1.24,1.58,2.05l0.61,0.37
					c1.96,1.17,2.57,2.36,2.57,3.78c0,1.15-0.4,2.09-1.49,2.91c-0.71,0.55-1.69,0.64-2.49,0.64
					C269.97,76.19,269.06,76.1,268.41,75.79z"/>
				<path class="st0" d="M277.73,68.72c0-2.36,0.02-2.8-0.02-3.3c-0.04-0.55-0.17-0.7-0.64-0.85c-0.12-0.03-0.37-0.05-0.57-0.05
					c-0.17,0-0.26-0.06-0.26-0.16c0-0.11,0.1-0.15,0.33-0.15c0.79,0,1.8,0.04,2.23,0.04c0.37,0,1.37-0.04,1.91-0.04
					c0.22,0,0.32,0.04,0.32,0.15s-0.09,0.16-0.24,0.16c-0.17,0-0.25,0.02-0.44,0.05c-0.39,0.08-0.51,0.29-0.54,0.85
					c-0.04,0.49-0.04,0.93-0.04,3.3v2.18c0,2.27,0.41,3.15,1.14,3.77c0.66,0.57,1.37,0.62,1.88,0.62c0.64,0,1.4-0.2,2-0.82
					c0.83-0.84,0.86-2.2,0.86-3.79v-1.96c0-2.36-0.02-2.8-0.03-3.3c-0.03-0.53-0.15-0.7-0.63-0.85c-0.12-0.03-0.37-0.05-0.54-0.05
					s-0.25-0.06-0.25-0.16c0-0.11,0.1-0.15,0.31-0.15c0.76,0,1.76,0.04,1.78,0.04c0.17,0,1.17-0.04,1.74-0.04
					c0.2,0,0.31,0.04,0.31,0.15s-0.09,0.16-0.26,0.16s-0.25,0.02-0.44,0.05c-0.41,0.08-0.51,0.29-0.54,0.85
					c-0.02,0.49-0.03,0.93-0.03,3.3v1.67c0,1.74-0.17,3.57-1.42,4.69c-1.05,0.95-2.18,1.12-3.15,1.12c-0.78,0-2.32-0.03-3.4-1.06
					c-0.76-0.71-1.36-1.87-1.36-4.12L277.73,68.72L277.73,68.72z"/>
				<path class="st0" d="M291.24,68.72c0-2.36,0-2.8-0.02-3.3c-0.03-0.53-0.17-0.7-0.64-0.85c-0.12-0.03-0.38-0.05-0.59-0.05
					c-0.15,0-0.25-0.06-0.25-0.16c0-0.11,0.12-0.15,0.34-0.15c0.78,0,1.73,0.04,2.03,0.04c0.51,0,1.86-0.04,2.32-0.04
					c0.95,0,2.03,0.09,2.83,0.66c0.42,0.31,1.05,1.1,1.05,2.15c0,1.15-0.61,2.18-2.06,3.44c1.32,1.76,2.37,3.17,3.27,4.14
					c0.83,0.9,1.36,0.97,1.59,1.03c0.15,0.04,0.24,0.04,0.36,0.04s0.19,0.09,0.19,0.16c0,0.13-0.1,0.16-0.29,0.16h-1.42
					c-0.83,0-1.23-0.09-1.63-0.31c-0.64-0.35-1.2-1.08-2.03-2.29c-0.59-0.85-1.22-1.89-1.4-2.13c-0.08-0.09-0.17-0.11-0.27-0.11
					l-1.33-0.03c-0.07,0-0.12,0.03-0.12,0.13v0.22c0,1.45,0.02,2.66,0.09,3.32c0.05,0.46,0.12,0.75,0.57,0.82
					c0.22,0.04,0.54,0.06,0.73,0.06c0.12,0,0.19,0.09,0.19,0.16c0,0.11-0.12,0.16-0.3,0.16c-0.86,0-2.1-0.05-2.32-0.05
					c-0.29,0-1.24,0.05-1.83,0.05c-0.18,0-0.29-0.05-0.29-0.16c0-0.08,0.05-0.16,0.24-0.16c0.22,0,0.39-0.02,0.53-0.06
					c0.3-0.07,0.39-0.37,0.44-0.82c0.07-0.66,0.07-1.89,0.07-3.32v-2.75H291.24z M293.14,69.93c0,0.17,0.03,0.22,0.14,0.27
					c0.32,0.11,0.76,0.15,1.14,0.15c0.59,0,0.8-0.05,1.05-0.25c0.45-0.35,0.96-1.03,0.96-2.31c0-2.2-1.39-2.77-2.27-2.77
					c-0.37,0-0.73,0.02-0.88,0.06c-0.1,0.04-0.14,0.09-0.14,0.22V69.93z"/>
				<path class="st0" d="M302.85,68.72c0-2.36,0-2.8-0.02-3.3c-0.04-0.53-0.17-0.7-0.64-0.85c-0.12-0.03-0.37-0.05-0.59-0.05
					c-0.15,0-0.25-0.06-0.25-0.16c0-0.11,0.12-0.15,0.34-0.15c0.78,0,1.72,0.04,2.15,0.04c0.48,0,3.78,0.02,4.07,0
					c0.27-0.02,0.51-0.08,0.62-0.09c0.08-0.02,0.17-0.07,0.24-0.07c0.08,0,0.1,0.07,0.1,0.15c0,0.11-0.09,0.29-0.12,1.01
					c-0.02,0.17-0.05,0.84-0.09,1.03c-0.02,0.07-0.05,0.25-0.17,0.25c-0.1,0-0.12-0.07-0.12-0.2c0-0.11-0.02-0.39-0.1-0.57
					c-0.12-0.28-0.24-0.5-0.98-0.57c-0.25-0.04-2.03-0.08-2.34-0.08c-0.07,0-0.1,0.06-0.1,0.15v3.85c0,0.09,0.02,0.16,0.1,0.16
					c0.34,0,2.27,0,2.61-0.04c0.35-0.04,0.56-0.09,0.71-0.24c0.12-0.11,0.17-0.2,0.24-0.2c0.07,0,0.12,0.07,0.12,0.17
					c0,0.09-0.04,0.34-0.12,1.14c-0.03,0.31-0.07,0.93-0.07,1.04c0,0.13-0.02,0.35-0.15,0.35c-0.1,0-0.13-0.05-0.13-0.13
					c-0.02-0.16-0.02-0.36-0.05-0.57c-0.09-0.31-0.27-0.55-0.83-0.6c-0.27-0.04-1.96-0.07-2.34-0.07c-0.07,0-0.09,0.07-0.09,0.16
					v1.24c0,0.53-0.02,1.85,0,2.31c0.03,1.06,0.49,1.3,2.01,1.3c0.39,0,1.02-0.02,1.41-0.2c0.37-0.18,0.54-0.51,0.64-1.15
					c0.03-0.17,0.07-0.24,0.17-0.24c0.12,0,0.14,0.2,0.14,0.37c0,0.35-0.12,1.41-0.2,1.72c-0.1,0.41-0.24,0.41-0.8,0.41
					c-1.12,0-2.01-0.02-2.74-0.06c-0.73-0.02-1.29-0.04-1.73-0.04c-0.17,0-0.49,0.02-0.85,0.02c-0.35,0.02-0.73,0.04-1.03,0.04
					c-0.18,0-0.29-0.05-0.29-0.16c0-0.08,0.05-0.16,0.24-0.16c0.22,0,0.39-0.02,0.53-0.06c0.3-0.07,0.39-0.37,0.44-0.82
					c0.07-0.66,0.07-1.89,0.07-3.32v-2.76H302.85z"/>
				<path class="st0" d="M318.02,67.45c0-2.79,0-3.3-0.03-3.88c-0.04-0.63-0.17-0.92-0.73-1.05c-0.14-0.03-0.42-0.06-0.66-0.06
					c-0.19,0-0.29-0.04-0.29-0.16c0-0.13,0.12-0.17,0.37-0.17c0.9,0,1.96,0.06,2.32,0.06c0.57,0,1.86-0.06,2.39-0.06
					c1.06,0,2.2,0.11,3.11,0.79c0.47,0.35,1.15,1.28,1.15,2.51c0,1.36-0.53,2.6-2.24,4.1c1.51,2.06,2.67,3.69,3.67,4.82
					c0.95,1.06,1.64,1.19,1.89,1.24c0.19,0.04,0.34,0.06,0.48,0.06s0.21,0.05,0.21,0.15c0,0.15-0.12,0.18-0.33,0.18h-1.61
					c-0.94,0-1.37-0.09-1.81-0.35c-0.73-0.42-1.37-1.28-2.32-2.69c-0.68-1.01-1.46-2.25-1.67-2.53c-0.09-0.11-0.19-0.13-0.31-0.13
					l-1.47-0.04c-0.08,0-0.14,0.04-0.14,0.15v0.25c0,1.7,0,3.15,0.08,3.92c0.05,0.53,0.15,0.94,0.66,1.01
					c0.25,0.04,0.63,0.08,0.83,0.08c0.14,0,0.2,0.05,0.2,0.15c0,0.13-0.12,0.18-0.34,0.18c-0.98,0-2.24-0.05-2.49-0.05
					c-0.32,0-1.39,0.05-2.06,0.05c-0.22,0-0.34-0.05-0.34-0.18c0-0.09,0.07-0.15,0.27-0.15c0.25,0,0.46-0.04,0.61-0.08
					c0.34-0.07,0.42-0.48,0.49-1.01c0.08-0.76,0.08-2.21,0.08-3.9v-3.21H318.02z M320.02,68.9c0,0.2,0.03,0.27,0.15,0.33
					c0.36,0.13,0.87,0.18,1.29,0.18c0.68,0,0.9-0.07,1.2-0.31c0.51-0.4,0.99-1.25,0.99-2.75c0-2.6-1.59-3.36-2.58-3.36
					c-0.42,0-0.73,0.02-0.9,0.08c-0.12,0.04-0.15,0.11-0.15,0.26L320.02,68.9L320.02,68.9z"/>
				<path class="st0" d="M330.47,68.72c0-2.36,0-2.8-0.02-3.3c-0.04-0.53-0.17-0.7-0.64-0.85c-0.12-0.03-0.37-0.05-0.59-0.05
					c-0.15,0-0.25-0.06-0.25-0.16c0-0.11,0.12-0.15,0.34-0.15c0.78,0,1.72,0.04,2.15,0.04c0.48,0,3.78,0.02,4.07,0
					c0.27-0.02,0.51-0.08,0.62-0.09c0.09-0.02,0.17-0.07,0.24-0.07c0.08,0,0.1,0.07,0.1,0.15c0,0.11-0.08,0.29-0.12,1.01
					c-0.01,0.17-0.05,0.84-0.08,1.03c-0.02,0.07-0.05,0.25-0.17,0.25c-0.1,0-0.12-0.07-0.12-0.2c0-0.11-0.02-0.39-0.1-0.57
					c-0.12-0.28-0.24-0.5-0.98-0.57c-0.25-0.04-2.03-0.08-2.33-0.08c-0.07,0-0.1,0.06-0.1,0.15v3.85c0,0.09,0.02,0.16,0.1,0.16
					c0.34,0,2.27,0,2.6-0.04c0.36-0.04,0.56-0.09,0.71-0.24c0.12-0.11,0.17-0.2,0.24-0.2c0.07,0,0.12,0.07,0.12,0.17
					c0,0.09-0.03,0.34-0.12,1.14c-0.03,0.31-0.07,0.93-0.07,1.04c0,0.13-0.02,0.35-0.15,0.35c-0.1,0-0.14-0.05-0.14-0.13
					c-0.02-0.16-0.02-0.36-0.05-0.57c-0.08-0.31-0.27-0.55-0.82-0.6c-0.27-0.04-1.96-0.07-2.33-0.07c-0.07,0-0.09,0.07-0.09,0.16
					v1.24c0,0.53-0.02,1.85,0,2.31c0.04,1.06,0.49,1.3,2.02,1.3c0.39,0,1.01-0.02,1.41-0.2c0.37-0.18,0.54-0.51,0.64-1.15
					c0.03-0.17,0.07-0.24,0.17-0.24c0.12,0,0.14,0.2,0.14,0.37c0,0.35-0.12,1.41-0.2,1.72c-0.1,0.41-0.24,0.41-0.8,0.41
					c-1.11,0-2.01-0.02-2.74-0.06c-0.73-0.02-1.29-0.04-1.73-0.04c-0.17,0-0.49,0.02-0.85,0.02c-0.35,0.02-0.73,0.04-1.03,0.04
					c-0.18,0-0.29-0.05-0.29-0.16c0-0.08,0.05-0.16,0.24-0.16c0.22,0,0.39-0.02,0.53-0.06c0.3-0.07,0.38-0.37,0.44-0.82
					c0.07-0.66,0.07-1.89,0.07-3.32v-2.76H330.47z"/>
				<path class="st0" d="M341.15,73.87c0.03,1.21,0.22,1.58,0.51,1.69c0.25,0.09,0.54,0.11,0.78,0.11c0.17,0,0.25,0.07,0.25,0.16
					c0,0.13-0.13,0.16-0.34,0.16c-0.96,0-1.66-0.05-1.93-0.05c-0.13,0-0.85,0.05-1.61,0.05c-0.2,0-0.34-0.02-0.34-0.16
					c0-0.09,0.1-0.16,0.24-0.16c0.2,0,0.47-0.02,0.68-0.08c0.39-0.11,0.44-0.53,0.46-1.89l0.14-9.24c0-0.31,0.1-0.53,0.25-0.53
					c0.19,0,0.39,0.24,0.64,0.51c0.18,0.2,2.42,2.68,4.58,4.97c1.02,1.08,3,3.28,3.22,3.5h0.07l-0.15-6.93
					c-0.02-0.95-0.16-1.23-0.51-1.38c-0.22-0.09-0.58-0.09-0.78-0.09c-0.19,0-0.24-0.08-0.24-0.16c0-0.13,0.15-0.15,0.37-0.15
					c0.78,0,1.57,0.04,1.89,0.04c0.17,0,0.73-0.04,1.46-0.04c0.2,0,0.34,0.02,0.34,0.15c0,0.09-0.08,0.16-0.25,0.16
					c-0.15,0-0.27,0-0.46,0.05c-0.41,0.13-0.52,0.41-0.54,1.29l-0.17,9.82c0,0.35-0.12,0.49-0.24,0.49c-0.25,0-0.46-0.17-0.61-0.33
					c-0.93-0.93-2.8-2.86-4.35-4.49c-1.62-1.68-3.2-3.57-3.49-3.85h-0.05L341.15,73.87z"/>
				<path class="st0" d="M356.44,65.16l-2.22,0.05c-0.86,0.02-1.22,0.13-1.44,0.48c-0.15,0.22-0.22,0.42-0.25,0.53
					c-0.03,0.13-0.07,0.2-0.17,0.2s-0.14-0.09-0.14-0.26c0-0.25,0.29-1.76,0.32-1.89c0.04-0.2,0.09-0.29,0.17-0.29
					c0.12,0,0.27,0.13,0.64,0.18c0.44,0.06,1,0.08,1.49,0.08h6.04c0.47,0,0.8-0.04,1.01-0.08c0.24-0.04,0.35-0.07,0.41-0.07
					c0.1,0,0.12,0.09,0.12,0.33c0,0.33-0.03,1.49-0.03,1.89c-0.02,0.17-0.05,0.26-0.14,0.26c-0.12,0-0.15-0.07-0.17-0.31l-0.02-0.16
					c-0.03-0.4-0.42-0.88-1.76-0.9l-1.88-0.04v6.3c0,1.43,0.01,2.66,0.08,3.34c0.05,0.44,0.14,0.73,0.58,0.81
					c0.2,0.04,0.54,0.06,0.76,0.06c0.17,0,0.23,0.09,0.23,0.16c0,0.11-0.12,0.16-0.29,0.16c-0.98,0-1.98-0.05-2.41-0.05
					c-0.34,0-1.35,0.05-1.94,0.05c-0.19,0-0.29-0.05-0.29-0.16c0-0.08,0.05-0.16,0.24-0.16c0.22,0,0.4-0.02,0.52-0.06
					c0.31-0.07,0.39-0.37,0.44-0.82c0.07-0.66,0.07-1.89,0.07-3.32v-6.31H356.44z"/>
			</g>
			<g>
				<path class="st0" d="M376.87,75.01c1.51-0.02,2.6-0.03,3.26-0.06c0.46-0.03,0.75-0.08,0.82-0.27c0.04-0.09,0.05-0.23,0.06-0.32
					c0-0.08,0.09-0.11,0.16-0.11c0.11,0,0.16,0.04,0.16,0.14c0,0.42-0.05,0.88-0.04,1.05c0,0.17,0.06,0.58,0.06,0.83
					c0,0.09-0.04,0.13-0.16,0.14c-0.08,0-0.17-0.02-0.17-0.1c0.01-0.1-0.01-0.17-0.05-0.23c-0.07-0.13-0.37-0.17-0.83-0.19
					c-0.66-0.02-1.82-0.01-3.32,0l-2.75,0.02c-2.36,0.02-2.8,0.02-3.29,0.03c-0.53,0.02-0.71,0.08-0.84,0.28
					c-0.03,0.06-0.06,0.17-0.05,0.26c0,0.06-0.05,0.11-0.16,0.11c-0.11,0-0.15-0.05-0.15-0.16c0-0.33,0.03-0.75,0.03-0.93
					c0-0.25,0-1.7-0.01-1.85c-0.02-0.12-0.04-0.2-0.09-0.26c-0.01-0.04-0.09-0.07-0.09-0.11c0-0.02,0.07-0.04,0.15-0.04
					c0.11,0,0.29,0.03,0.7,0.05c0.16,0,1.08,0.01,1.26,0.02c0.13,0.01,0.31,0.02,0.31,0.06c0,0.05-0.07,0.08-0.26,0.08
					c-0.13,0-0.37,0-0.58,0.04c-0.22,0.05-0.46,0.18-0.47,0.42l-0.05,1.08c0,0.04,0.04,0.06,0.22,0.06l3.78-0.03
					c0.09,0,0.15-0.01,0.15-0.05l-0.03-0.91c0-0.11,0-0.2-0.02-0.3c-0.02-0.12-0.08-0.21-0.28-0.27c-0.1-0.04-0.17-0.05-0.17-0.08
					c0-0.02,0.05-0.04,0.15-0.04c0.09,0,0.51,0.03,1.01,0.04c0.31,0.01,1.03,0.01,1.13,0.01c0.13,0,0.35,0,0.35,0.07
					c0,0.04-0.11,0.06-0.22,0.06c-0.11,0-0.29,0.02-0.48,0.05c-0.22,0.03-0.53,0.12-0.57,0.32c-0.04,0.16-0.04,0.93-0.04,1.04
					c0,0.03,0.02,0.05,0.13,0.04L376.87,75.01z"/>
				<path class="st0" d="M375.42,72.4c-2.66,0.02-6.11-0.6-6.12-2.29c-0.01-1.41,2.23-2.3,5.81-2.32c3.57-0.03,6.38,0.85,6.39,2.29
					C381.51,71.69,378.19,72.38,375.42,72.4z M375.68,68.61c-3.44,0.03-5.57,0.76-5.56,1.66c0.01,0.62,0.96,1.34,4.81,1.31
					c3.21-0.02,5.73-0.68,5.72-1.73C380.65,69.46,380.11,68.57,375.68,68.61z"/>
				<path class="st0" d="M373.99,66.53c-2.36,0.02-2.8,0.02-3.3,0.03c-0.53,0.02-0.7,0.08-0.84,0.29c-0.04,0.05-0.05,0.16-0.05,0.26
					c0,0.06-0.06,0.11-0.17,0.11c-0.11,0-0.15-0.05-0.15-0.15c0-0.34,0.03-0.75,0.03-0.89c-0.01-0.22-0.05-0.81-0.04-1.01
					c0-0.41,0.08-0.89,0.65-1.24c0.31-0.19,1.09-0.47,2.14-0.48c1.15-0.01,2.18,0.25,3.45,0.88c1.75-0.59,3.16-1.06,4.13-1.46
					c0.89-0.37,0.97-0.6,1.02-0.7c0.04-0.07,0.04-0.1,0.04-0.16c0-0.05,0.09-0.08,0.17-0.08c0.13,0,0.16,0.04,0.16,0.13l0.01,0.62
					c0.01,0.36-0.09,0.54-0.3,0.71c-0.35,0.28-1.08,0.53-2.29,0.9c-0.84,0.26-1.89,0.55-2.12,0.63c-0.09,0.04-0.11,0.08-0.11,0.12
					l-0.04,0.58c0,0.03,0.04,0.05,0.13,0.05h0.22c1.45-0.01,2.66-0.03,3.32-0.06c0.46-0.03,0.75-0.06,0.82-0.26
					c0.03-0.1,0.06-0.24,0.06-0.32c0-0.05,0.09-0.08,0.17-0.08c0.11,0,0.16,0.05,0.16,0.13c0,0.38-0.05,0.91-0.04,1.01
					c-0.01,0.13,0.05,0.54,0.06,0.8c0,0.08-0.06,0.13-0.16,0.13c-0.08,0-0.17-0.02-0.17-0.1c0-0.1-0.02-0.17-0.06-0.23
					c-0.07-0.13-0.36-0.17-0.82-0.19c-0.66-0.02-1.89-0.01-3.32,0L373.99,66.53z M375.2,65.7c0.16,0,0.22-0.02,0.27-0.06
					c0.11-0.14,0.14-0.33,0.14-0.5c-0.01-0.26-0.06-0.35-0.26-0.46c-0.35-0.19-1.03-0.41-2.32-0.4c-2.2,0.02-2.76,0.63-2.76,1.01
					c0,0.16,0.02,0.32,0.06,0.38c0.04,0.05,0.09,0.06,0.22,0.06L375.2,65.7z"/>
			</g>
			<path class="st0" d="M392.7,69.46c0-0.58-0.14-0.81-0.34-1.12c-0.1-0.16-2.13-2.52-2.66-3.09c-0.37-0.39-0.68-0.64-0.97-0.75
				c-0.18-0.08-0.44-0.14-0.62-0.14c-0.12,0-0.22-0.04-0.22-0.12c0-0.07,0.1-0.1,0.29-0.1c0.25,0,1.37,0.03,1.86,0.03
				c0.32,0,1.02-0.03,1.69-0.03c0.14,0,0.22,0.03,0.22,0.1c0,0.09-0.1,0.09-0.34,0.14c-0.12,0.03-0.2,0.08-0.2,0.17
				s0.07,0.21,0.19,0.36c0.27,0.33,2.22,2.84,2.47,3.14c0.19-0.25,2-2.55,2.22-2.87c0.15-0.25,0.22-0.43,0.22-0.57
				c0-0.1-0.07-0.2-0.33-0.24c-0.14-0.03-0.27-0.04-0.27-0.13c0-0.07,0.08-0.1,0.25-0.1c0.49,0,1.01,0.03,1.45,0.03
				c0.33,0,1.3-0.03,1.59-0.03c0.17,0,0.27,0.03,0.27,0.09c0,0.08-0.12,0.13-0.29,0.13c-0.15,0-0.42,0.05-0.64,0.12
				c-0.32,0.12-0.46,0.21-0.78,0.51c-0.49,0.43-2.62,2.98-2.89,3.43c-0.22,0.39-0.18,0.72-0.18,1.07v0.86c0,0.18,0,0.62,0.03,1.07
				c0.04,0.32,0.17,0.52,0.61,0.57c0.22,0.02,0.54,0.04,0.74,0.04c0.17,0,0.25,0.06,0.25,0.11c0,0.08-0.12,0.12-0.32,0.12
				c-0.93,0-1.93-0.04-2.33-0.04c-0.38,0-1.37,0.04-1.93,0.04c-0.2,0-0.32-0.03-0.32-0.12c0-0.05,0.07-0.11,0.24-0.11
				c0.2,0,0.39-0.01,0.53-0.04c0.3-0.05,0.42-0.25,0.45-0.57c0.05-0.46,0.05-0.9,0.05-1.07v-0.89H392.7z"/>
			<path class="st0" d="M399.46,68.19c0-1.83,1.73-4.2,6.25-4.2c3.76,0,6.09,1.55,6.09,4.01s-2.4,4.39-6.25,4.39
				C401.22,72.39,399.46,70.09,399.46,68.19z M409.58,68.39c0-2.37-1.91-3.84-4.32-3.84c-1.66,0-3.6,0.66-3.6,3.31
				c0,2.21,1.69,3.95,4.5,3.95C407.21,71.81,409.58,71.44,409.58,68.39z"/>
			<path class="st0" d="M414.44,67.24c0-1.62,0.02-1.93-0.02-2.26c-0.04-0.38-0.17-0.48-0.64-0.58c-0.12-0.03-0.37-0.04-0.58-0.04
				c-0.17,0-0.25-0.04-0.25-0.12c0-0.07,0.1-0.1,0.33-0.1c0.79,0,1.79,0.03,2.23,0.03c0.37,0,1.37-0.03,1.91-0.03
				c0.22,0,0.32,0.03,0.32,0.1c0,0.08-0.09,0.12-0.24,0.12c-0.17,0-0.25,0.01-0.44,0.04c-0.39,0.05-0.51,0.2-0.54,0.58
				c-0.04,0.34-0.04,0.64-0.04,2.26v1.51c0,1.57,0.41,2.17,1.14,2.6c0.66,0.39,1.37,0.43,1.88,0.43c0.64,0,1.4-0.14,2-0.57
				c0.83-0.58,0.86-1.52,0.86-2.61v-1.36c0-1.62-0.02-1.93-0.04-2.26c-0.03-0.37-0.16-0.48-0.63-0.58
				c-0.12-0.03-0.37-0.04-0.54-0.04s-0.25-0.04-0.25-0.12c0-0.07,0.1-0.1,0.31-0.1c0.76,0,1.76,0.03,1.78,0.03
				c0.17,0,1.17-0.03,1.74-0.03c0.2,0,0.31,0.03,0.31,0.1c0,0.08-0.09,0.12-0.25,0.12c-0.17,0-0.25,0.01-0.44,0.04
				c-0.41,0.05-0.51,0.2-0.54,0.58c-0.02,0.34-0.03,0.64-0.03,2.26v1.15c0,1.2-0.17,2.46-1.42,3.23c-1.05,0.65-2.19,0.77-3.15,0.77
				c-0.78,0-2.32-0.02-3.4-0.73c-0.76-0.49-1.36-1.28-1.36-2.84L414.44,67.24L414.44,67.24z"/>
			<path class="st0" d="M427.96,67.24c0-1.62,0-1.93-0.02-2.26c-0.03-0.37-0.17-0.48-0.64-0.58c-0.12-0.03-0.37-0.04-0.6-0.04
				c-0.15,0-0.25-0.04-0.25-0.12c0-0.07,0.12-0.1,0.34-0.1c0.78,0,1.73,0.03,2.03,0.03c0.51,0,1.86-0.03,2.32-0.03
				c0.95,0,2.03,0.07,2.83,0.46c0.43,0.21,1.05,0.75,1.05,1.47c0,0.8-0.61,1.5-2.06,2.37c1.32,1.21,2.37,2.18,3.27,2.85
				c0.83,0.62,1.36,0.67,1.59,0.71c0.15,0.02,0.23,0.02,0.36,0.02c0.12,0,0.19,0.06,0.19,0.11c0,0.09-0.1,0.12-0.29,0.12h-1.42
				c-0.82,0-1.23-0.06-1.62-0.21c-0.64-0.24-1.2-0.75-2.03-1.58c-0.59-0.58-1.22-1.3-1.4-1.47c-0.09-0.06-0.17-0.08-0.27-0.08
				L430,68.89c-0.07,0-0.12,0.02-0.12,0.09v0.15c0,0.99,0.02,1.82,0.08,2.28c0.05,0.32,0.12,0.52,0.58,0.57
				c0.22,0.02,0.54,0.04,0.73,0.04c0.12,0,0.19,0.06,0.19,0.11c0,0.08-0.12,0.12-0.3,0.12c-0.86,0-2.1-0.04-2.33-0.04
				c-0.28,0-1.23,0.04-1.82,0.04c-0.19,0-0.29-0.04-0.29-0.12c0-0.05,0.05-0.11,0.24-0.11c0.22,0,0.39-0.01,0.53-0.04
				c0.3-0.05,0.39-0.25,0.44-0.57c0.07-0.46,0.07-1.3,0.07-2.28v-1.89H427.96z M429.85,68.08c0,0.11,0.03,0.15,0.14,0.19
				c0.32,0.07,0.76,0.1,1.14,0.1c0.59,0,0.79-0.04,1.05-0.18c0.46-0.24,0.97-0.71,0.97-1.59c0-1.51-1.39-1.91-2.27-1.91
				c-0.37,0-0.73,0.02-0.88,0.04c-0.1,0.03-0.14,0.06-0.14,0.15v3.2H429.85z"/>
			<path class="st0" d="M445.94,73.5c0.03,1.43,0.25,1.91,0.59,2.04c0.29,0.11,0.61,0.13,0.88,0.13c0.19,0,0.29,0.03,0.29,0.15
				c0,0.15-0.15,0.18-0.39,0.18c-1.1,0-1.78-0.05-2.1-0.05c-0.15,0-0.95,0.05-1.82,0.05c-0.22,0-0.37-0.02-0.37-0.18
				c0-0.11,0.1-0.15,0.27-0.15c0.22,0,0.53-0.02,0.76-0.1c0.44-0.15,0.51-0.68,0.53-2.27l0.15-10.8c0-0.36,0.05-0.62,0.22-0.62
				c0.19,0,0.33,0.23,0.62,0.56c0.21,0.24,2.78,3.17,5.25,5.83c1.15,1.25,3.44,3.89,3.73,4.18h0.08l-0.17-8.23
				c-0.02-1.12-0.17-1.47-0.58-1.65c-0.25-0.11-0.66-0.11-0.89-0.11c-0.2,0-0.27-0.06-0.27-0.16c0-0.15,0.19-0.17,0.44-0.17
				c0.88,0,1.69,0.06,2.05,0.06c0.18,0,0.83-0.06,1.66-0.06c0.22,0,0.39,0.02,0.39,0.17c0,0.11-0.1,0.16-0.3,0.16
				c-0.17,0-0.31,0-0.51,0.06c-0.47,0.15-0.61,0.53-0.62,1.56l-0.19,11.56c0,0.4-0.07,0.57-0.22,0.57c-0.19,0-0.39-0.2-0.57-0.4
				c-1.07-1.1-3.23-3.5-5-5.39c-1.84-1.98-3.72-4.21-4.03-4.56h-0.05L445.94,73.5z"/>
			<path class="st0" d="M460.68,68.72c0-2.36,0-2.8-0.02-3.3c-0.03-0.53-0.17-0.7-0.64-0.85c-0.12-0.03-0.37-0.05-0.59-0.05
				c-0.16,0-0.25-0.06-0.25-0.16c0-0.11,0.12-0.15,0.34-0.15c0.78,0,1.73,0.04,2.15,0.04c0.48,0,3.78,0.02,4.07,0
				c0.27-0.02,0.51-0.08,0.62-0.09c0.08-0.02,0.17-0.07,0.24-0.07c0.08,0,0.1,0.07,0.1,0.15c0,0.11-0.08,0.29-0.12,1.01
				c-0.02,0.17-0.05,0.84-0.08,1.03c-0.02,0.07-0.06,0.25-0.17,0.25c-0.1,0-0.12-0.07-0.12-0.2c0-0.11-0.02-0.39-0.1-0.57
				c-0.12-0.28-0.24-0.5-0.98-0.57c-0.25-0.04-2.03-0.08-2.33-0.08c-0.07,0-0.1,0.06-0.1,0.15v3.85c0,0.09,0.02,0.16,0.1,0.16
				c0.34,0,2.27,0,2.61-0.04c0.36-0.04,0.56-0.09,0.71-0.24c0.12-0.11,0.17-0.2,0.24-0.2s0.12,0.07,0.12,0.17
				c0,0.09-0.04,0.34-0.12,1.14c-0.03,0.31-0.07,0.93-0.07,1.04c0,0.13-0.02,0.35-0.15,0.35c-0.1,0-0.13-0.05-0.13-0.13
				c-0.02-0.16-0.02-0.36-0.06-0.57c-0.08-0.31-0.27-0.55-0.83-0.6c-0.27-0.04-1.96-0.07-2.33-0.07c-0.07,0-0.08,0.07-0.08,0.16
				v1.24c0,0.53-0.02,1.85,0,2.31c0.03,1.06,0.49,1.3,2.01,1.3c0.39,0,1.01-0.02,1.4-0.2c0.37-0.18,0.54-0.51,0.64-1.15
				c0.03-0.17,0.07-0.24,0.17-0.24c0.12,0,0.14,0.2,0.14,0.37c0,0.35-0.12,1.41-0.21,1.72c-0.1,0.41-0.23,0.41-0.79,0.41
				c-1.12,0-2.02-0.02-2.74-0.06c-0.73-0.02-1.28-0.04-1.73-0.04c-0.16,0-0.49,0.02-0.84,0.02c-0.35,0.02-0.73,0.04-1.03,0.04
				c-0.18,0-0.29-0.05-0.29-0.16c0-0.08,0.05-0.16,0.24-0.16c0.22,0,0.39-0.02,0.53-0.06c0.31-0.07,0.39-0.37,0.44-0.82
				c0.06-0.66,0.06-1.89,0.06-3.32v-2.76H460.68z"/>
			<path class="st0" d="M470.43,68.72c0-2.36,0-2.8-0.02-3.3c-0.04-0.53-0.17-0.7-0.64-0.85c-0.12-0.03-0.37-0.05-0.59-0.05
				c-0.15,0-0.25-0.06-0.25-0.16c0-0.11,0.12-0.15,0.34-0.15c0.78,0,1.72,0.04,2.15,0.04c0.47,0,3.77,0.02,4.06,0
				c0.27-0.02,0.51-0.08,0.63-0.09c0.08-0.02,0.17-0.07,0.24-0.07c0.08,0,0.1,0.07,0.1,0.15c0,0.11-0.08,0.29-0.12,1.01
				c-0.01,0.17-0.04,0.84-0.08,1.03c-0.02,0.07-0.06,0.25-0.17,0.25c-0.1,0-0.12-0.07-0.12-0.2c0-0.11-0.02-0.39-0.1-0.57
				c-0.12-0.28-0.24-0.5-0.98-0.57c-0.25-0.04-2.03-0.08-2.33-0.08c-0.07,0-0.1,0.06-0.1,0.15v3.85c0,0.09,0.02,0.16,0.1,0.16
				c0.34,0,2.27,0,2.61-0.04c0.36-0.04,0.56-0.09,0.71-0.24c0.12-0.11,0.17-0.2,0.24-0.2c0.06,0,0.12,0.07,0.12,0.17
				c0,0.09-0.03,0.34-0.12,1.14c-0.04,0.31-0.07,0.93-0.07,1.04c0,0.13-0.02,0.35-0.15,0.35c-0.1,0-0.14-0.05-0.14-0.13
				c-0.02-0.16-0.02-0.36-0.05-0.57c-0.08-0.31-0.27-0.55-0.83-0.6c-0.27-0.04-1.97-0.07-2.33-0.07c-0.07,0-0.09,0.07-0.09,0.16
				v1.24c0,0.53-0.02,1.85,0,2.31c0.04,1.06,0.49,1.3,2.01,1.3c0.39,0,1.02-0.02,1.41-0.2c0.37-0.18,0.54-0.51,0.64-1.15
				c0.03-0.17,0.07-0.24,0.17-0.24c0.12,0,0.14,0.2,0.14,0.37c0,0.35-0.12,1.41-0.2,1.72c-0.1,0.41-0.23,0.41-0.8,0.41
				c-1.12,0-2.01-0.02-2.74-0.06c-0.72-0.02-1.28-0.04-1.73-0.04c-0.17,0-0.49,0.02-0.84,0.02c-0.35,0.02-0.73,0.04-1.03,0.04
				c-0.18,0-0.29-0.05-0.29-0.16c0-0.08,0.05-0.16,0.24-0.16c0.22,0,0.39-0.02,0.53-0.06c0.3-0.07,0.39-0.37,0.44-0.82
				c0.07-0.66,0.07-1.89,0.07-3.32v-2.76H470.43z"/>
			<path class="st0" d="M480.19,68.72c0-2.36,0-2.8-0.02-3.3c-0.04-0.53-0.17-0.7-0.64-0.85c-0.12-0.03-0.37-0.05-0.59-0.05
				c-0.16,0-0.25-0.06-0.25-0.16c0-0.11,0.12-0.15,0.33-0.15c0.78,0,1.73,0.04,2.15,0.04c0.46,0,1.52-0.04,2.42-0.04
				c1.87,0,4.36,0,5.99,1.78c0.74,0.81,1.4,2.11,1.4,3.96c0,1.96-0.78,3.45-1.62,4.34c-0.68,0.73-2.25,1.83-4.99,1.83
				c-0.54,0-1.19-0.06-1.78-0.09c-0.59-0.06-1.13-0.09-1.51-0.09c-0.17,0-0.49,0.02-0.84,0.02c-0.35,0.02-0.73,0.04-1.03,0.04
				c-0.19,0-0.29-0.05-0.29-0.16c0-0.08,0.05-0.16,0.23-0.16c0.22,0,0.39-0.02,0.53-0.06c0.31-0.07,0.39-0.37,0.44-0.82
				c0.07-0.66,0.07-1.89,0.07-3.32V68.72z M482.18,70.44c0,1.65,0.02,2.84,0.04,3.15c0.01,0.39,0.05,0.93,0.17,1.1
				c0.19,0.29,0.78,0.62,1.95,0.62c1.36,0,2.35-0.26,3.25-1.06c0.97-0.86,1.27-2.25,1.27-3.87c0-1.98-0.73-3.26-1.38-3.88
				c-1.37-1.32-3-1.49-4.16-1.49c-0.3,0-0.8,0.04-0.91,0.11c-0.14,0.06-0.19,0.13-0.19,0.31c-0.02,0.53-0.02,1.81-0.02,3.04v1.97
				H482.18z"/>
			<path class="st0" d="M493.44,75.79c-0.23-0.11-0.29-0.18-0.29-0.53c0-0.84,0.07-1.81,0.09-2.07c0-0.24,0.07-0.4,0.18-0.4
				c0.14,0,0.15,0.15,0.15,0.26c0,0.2,0.05,0.53,0.14,0.8c0.32,1.16,1.44,1.54,2.37,1.54c1.29,0,2.07-0.88,2.07-1.98
				c0-0.68-0.15-1.36-1.48-2.2l-0.86-0.55c-1.76-1.12-2.33-2.16-2.33-3.54c0-1.91,1.69-3.13,3.76-3.13c0.97,0,1.73,0.15,2.12,0.26
				c0.14,0.04,0.2,0.09,0.2,0.2c0,0.2-0.06,0.64-0.06,1.87c0,0.33-0.07,0.5-0.18,0.5c-0.1,0-0.15-0.09-0.15-0.28
				c0-0.15-0.07-0.62-0.39-1.03c-0.22-0.29-0.7-0.73-1.66-0.73c-1.06,0-2.03,0.6-2.03,1.67c0,0.69,0.24,1.24,1.58,2.05l0.61,0.37
				c1.97,1.17,2.57,2.36,2.57,3.78c0,1.15-0.41,2.09-1.49,2.91c-0.71,0.55-1.69,0.64-2.49,0.64C495,76.19,494.09,76.1,493.44,75.79z
				"/>
			<path class="st0" d="M502.05,74.82c0-0.46,0.3-1.12,1.03-1.12c0.57,0,1.03,0.42,1.03,1.06s-0.41,1.17-1.05,1.17
				C502.35,75.94,502.05,75.33,502.05,74.82z"/>
			<rect x="389.38" y="74.91" class="st0" width="48.97" height="1.12"/>
		</g>
	</g>
	<g>
		<g>
			<path class="st0" d="M84.46,76.44H66.91l-4.1-11.94h-22l-3.83,11.94H19.44l22.27-60.05H62.2L84.46,76.44z M59.61,53.31
				l-7.57-25.15h-0.18l-7.84,25.15H59.61z"/>
		</g>
		<polygon class="st0" points="37.47,16.39 41.83,16.39 41.83,20.94 		"/>
		<path class="st0" d="M100.6,49.94c0,26.87-21.8,48.64-48.65,48.64C25.08,98.58,3.3,76.8,3.3,49.94C3.3,23.07,25.08,1.3,51.95,1.3
			C78.8,1.3,100.6,23.07,100.6,49.94z M51.95,7.08c-23.67,0-42.87,19.18-42.87,42.86c0,23.65,19.21,42.85,42.87,42.85
			c23.65,0,42.86-19.2,42.86-42.85C94.81,26.26,75.6,7.08,51.95,7.08z"/>
	</g>
</g>
</svg>
