<?xml version="1.0" encoding="utf-8"?>
<!-- Generator: Adobe Illustrator 23.0.0, SVG Export Plug-In . SVG Version: 6.00 Build 0)  -->
<svg version="1.1" id="レイヤー_1" xmlns="http://www.w3.org/2000/svg" xmlns:xlink="http://www.w3.org/1999/xlink" x="0px"
	 y="0px" width="2343.04px" height="300px" viewBox="0 0 2343.04 300" style="enable-background:new 0 0 2343.04 300;"
	 xml:space="preserve">
<style type="text/css">
	.st0{fill:#FFFFFF;}
</style>
<title>logo</title>
<g>
	<g id="Layer_1">
		<path class="st0" d="M141.65,46.42l80.93,46.73c2.29,1.33,5.11,1.33,7.4,0l23.1-13.52c3.51-2.05,4.7-6.55,2.66-10.06
			c-0.64-1.1-1.56-2.02-2.66-2.66L141.69,2.59C138.75,0.88,135.4-0.01,132,0v43.83C135.39,43.83,138.72,44.73,141.65,46.42z"/>
		<path class="st0" d="M40.05,97.28c1.69-3.16,4.22-5.78,7.32-7.57l75-43.29c2.93-1.69,6.25-2.58,9.63-2.59V0
			c-3.4,0.01-6.73,0.91-9.67,2.62L9.59,68.23c-3,1.75-5.47,4.28-7.15,7.33L40.05,97.28z"/>
		<path class="st0" d="M40.05,97.28c-1.52,2.81-2.33,5.95-2.34,9.15V193c0.01,3.24,0.83,6.42,2.4,9.25c0.16,0.29,0.32,0.58,0.5,0.86
			L2.87,224.92C1,221.9,0.01,218.41,0,214.86v-130c0-3.27,0.84-6.49,2.44-9.35L40.05,97.28z"/>
		<path class="st0" d="M40.61,203.13c1.67,2.73,3.99,5,6.76,6.6l75,43.3c2.94,1.69,6.26,2.58,9.65,2.58V300
			c-3.42,0-6.78-0.91-9.73-2.64L9.57,231.52c-2.75-1.61-5.05-3.88-6.7-6.6L40.61,203.13z"/>
		<path class="st0" d="M223.39,203.13c-1.67,2.73-3.99,5-6.75,6.6l-75,43.3c-2.93,1.69-6.26,2.58-9.65,2.58V300
			c3.42,0,6.79-0.91,9.74-2.64l112.7-65.84c2.74-1.61,5.05-3.87,6.7-6.59L223.39,203.13z"/>
		<path class="st0" d="M223.39,203.13l37.75,21.8c1.86-3.03,2.85-6.51,2.86-10.07V114.29c0.01-2.23-1.18-4.3-3.12-5.4l-37.48,64.93
			c1.79,1.03,2.89,2.94,2.89,5V193C226.29,196.58,225.28,200.09,223.39,203.13z"/>
		<path class="st0" d="M254.65,108.89l-116,67c-4.1,2.35-6.64,6.7-6.65,11.43v25.1c0,3.45,2.79,6.25,6.25,6.25
			c1.1,0,2.17-0.29,3.12-0.83l76.24-44c1.79-1.04,4-1.04,5.79,0l37.49-64.93C258.97,107.78,256.58,107.77,254.65,108.89z"/>
		<path class="st0" d="M621.59,102.74c0.81-3.22,3.82-5.4,7.13-5.15h9.77c3.69,0,6.06,1.72,7.13,5.15l33.92,96.1
			c1.58,4.49-0.4,7.39-5.15,7.39h-7c-3.7,0-6.08-1.72-7.13-5.15l-7.66-22.57h-38L607.07,201c-0.7,3.33-3.74,5.64-7.13,5.41h-7
			c-4.76,0-6.74-2.9-5.15-7.39L621.59,102.74z M647.73,162.27l-9.64-29c-1.85-6.07-4.22-16.76-4.22-16.76h-0.27
			c0,0-2.5,10.69-4.22,16.76l-9.77,29H647.73z"/>
		<path class="st0" d="M538.54,184.06c0-6.09,0,4.31,0-30.47c0-4.28-2.14-6.42-6.27-6.42h-21.7c-4.13,0-6.42,2.14-6.42,6.42v4.13
			c0.01,3.54,2.88,6.41,6.42,6.41H521v13.45c-26.27,22.22-62.88,7.49-63.71-26.77C456.73,129.9,469.81,112,494.05,112
			c8.52-0.04,16.88,2.29,24.15,6.72c3.82,2.14,6.57,1.84,8.87-1.68l2.75-4.28c2.29-3.51,2-6.26-1.38-8.86
			c-1.51-1.06-14.82-9.93-35.26-9.93c-31.65,0-56.28,24.23-56.28,56.58l0,0c0,56.34,65.29,71.77,98.91,38.15
			C538.83,185.72,538.54,186.08,538.54,184.06z"/>
		<path class="st0" d="M803.49,112.51h-29.17c-4.23,0-6.47-2.11-6.47-6.34V102c0-4.09,2.11-6.47,6.47-6.47h78
			c4.09,0,6.34,2.25,6.34,6.47v4.22c0,4.1-2.11,6.34-6.34,6.34h-29.16v85.14c0,4.23-2.11,6.47-6.47,6.47h-6.86
			c-4.09,0-6.34-2.11-6.34-6.47V112.51z"/>
		<path class="st0" d="M909.42,102c0-4.09,2.18-6.47,6.41-6.47H968c4.09,0,6.46,2.25,6.46,6.47v4.22c0,4.1-2.24,6.34-6.46,6.34h-39
			V141h30.22c4.1,0,6.47,2.11,6.47,6.34v4.22c0,4.23-2.24,6.47-6.47,6.47H929v29.17h41.44c4.1,0,6.47,2.12,6.47,6.34v4.22
			c0,4.23-2.24,6.47-6.47,6.47h-54.75c-4.09,0-6.27-2.11-6.27-6.47V102z"/>
		<path class="st0" d="M1077.93,93.63c12.67-0.16,25.08,3.63,35.5,10.83c3.17,2.51,3.3,5.54,1.19,8.84l-2.77,4.49
			c-2.11,3.56-5,3.83-8.71,1.58c-4.75-3-13.33-7.65-24.42-7.65c-23.76,0-36.44,17.29-36.44,37.35c0,20.33,13.2,38.81,36.57,38.81
			c12.28,0,21.52-5.8,26.66-9.5c3.3-2.51,6.47-2.51,8.85,1.06l3,4.09c2.25,3,2.12,6.33-0.92,8.84
			c-10.88,8.77-24.44,13.52-38.41,13.47c-34.06,0-56.1-24.69-56.1-56.63C1022,117.79,1045.06,93.63,1077.93,93.63z"/>
		<path class="st0" d="M1175.94,102c0-4.09,2.18-6.47,6.4-6.47h7c4.09,0,6.33,2.25,6.33,6.47v39.6h49.77V102
			c0-4.09,2.11-6.47,6.46-6.47h6.87c4.09,0,6.34,2.25,6.34,6.47v95.7c0,4.23-2.12,6.47-6.34,6.47h-7c-4.22,0-6.47-2.11-6.47-6.47
			v-39.2h-49.76v39.2c0,4.23-2.11,6.47-6.34,6.47h-7c-4.09,0-6.27-2.11-6.27-6.47L1175.94,102z"/>
		<path class="st0" d="M1330.45,102c0-4.09,2.11-6.47,6.33-6.47h8.32c3.69,0,5.94,1.19,7.66,4.23l38.54,58.47
			c4.09,6.47,9,16.77,9,16.77h0.26c0,0-1.06-10.43-1.06-16.77V102c0-4.09,2.25-6.47,6.47-6.47h6.87c4.09,0,6.46,2.25,6.46,6.47v95.7
			c0,4.23-2.24,6.47-6.46,6.47h-8.32c-3.12,0.21-6.07-1.45-7.52-4.22l-38.68-58.22c-4-6.47-9-16.76-9-16.76h-0.26
			c0,0,1.06,10.43,1.06,16.76v56.1c0,4.23-2.12,6.47-6.34,6.47h-7c-4.09,0-6.33-2.11-6.33-6.47V102z"/>
		<path class="st0" d="M1532,93.63c32.86,0,56.1,24.29,56.1,55.31c0,31.95-23.24,56.9-56.1,56.9s-56.11-25-56.11-56.9
			C1475.91,118.05,1499.15,93.63,1532,93.63z M1532,187.88c20.85,0,35.77-16.76,35.77-38.81c0-21.12-15-37.35-35.77-37.35
			s-35.78,16.23-35.78,37.35C1496.24,171.12,1511.29,187.88,1532,187.88z"/>
		<path class="st0" d="M1647,102c0-4.09,2.11-6.47,6.34-6.47h7c4.09,0,6.34,2.25,6.34,6.47v85.14h40.52c4.23,0,6.47,2.11,6.47,6.34
			v4.22c0,4.23-2.11,6.47-6.47,6.47h-53.85c-4.1,0-6.34-2.11-6.34-6.47L1647,102z"/>
		<path class="st0" d="M1807.77,93.63c32.87,0,56.1,24.29,56.1,55.31c0,31.95-23.23,56.9-56.1,56.9s-56.1-25-56.1-56.9
			C1751.54,118.05,1774.9,93.63,1807.77,93.63z M1807.77,187.88c20.86,0,35.77-16.76,35.77-38.81c0-21.12-15-37.35-35.77-37.35
			S1772,128,1772,149.07C1772,171.12,1786.91,187.88,1807.77,187.88z"/>
		<path class="st0" d="M2068.61,102c0-4.09,2.11-6.47,6.33-6.47h7c4.09,0,6.34,2.25,6.34,6.47v95.7c0,4.23-2.12,6.47-6.34,6.47h-7
			c-4.09,0-6.33-2.11-6.33-6.47V102z"/>
		<path class="st0" d="M2151.9,102c0-4.09,2.11-6.47,6.34-6.47h52.27c4.09,0,6.47,2.25,6.47,6.47v4.22c0,4.1-2.25,6.34-6.47,6.34
			h-38.94V141h30.23c4.09,0,6.47,2.11,6.47,6.34v4.22c0,4.23-2.25,6.47-6.47,6.47h-30.23v29.17H2213c4.09,0,6.47,2.12,6.47,6.34
			v4.22c0,4.23-2.25,6.47-6.47,6.47h-54.78c-4.1,0-6.34-2.11-6.34-6.47L2151.9,102z"/>
		<path class="st0" d="M2273,186l3.3-4.89c2.51-3.3,5-3.56,8.84-1.32c3.57,2.51,11.35,7.92,22,7.92c10,0,16.23-5,16.23-12.41
			c0-20.59-50.55-16.37-50.55-50.16c0-19.14,15.84-31.55,36.56-31.55c12.8,0,23.36,4.89,28,8.32c3.3,2.51,3.83,5.41,2,8.71l-2.77,5
			c-2.24,4.49-5.54,3.83-8.71,2.11c-4.49-2.64-10.43-5.94-18.88-5.94c-10,0-16.5,4.88-16.5,12.28c0,20.32,50.56,15.18,50.56,49.76
			c0,17.56-13.2,32.08-35.9,32.08c-12-0.14-23.66-3.98-33.4-11C2271.5,192.77,2269.91,190.13,2273,186z"/>
		<path class="st0" d="M2014,184.06c0-6.09,0,4.31,0-30.47c0-4.28-2.14-6.42-6.27-6.42H1986c-4.13,0-6.42,2.14-6.42,6.42v4.13
			c0,3.54,2.87,6.41,6.41,6.41c0,0,0.01,0,0.01,0h10.39v13.45c-26.27,22.22-62.88,7.49-63.72-26.77
			c-0.51-20.91,12.58-38.79,36.82-38.79c8.52-0.04,16.88,2.29,24.15,6.72c3.82,2.14,6.57,1.84,8.86-1.68l2.76-4.28
			c2.29-3.51,2-6.26-1.38-8.86c-1.51-1.06-14.82-9.93-35.26-9.93c-31.65,0-56.28,24.23-56.28,56.58l0,0
			c0,56.34,65.29,71.77,98.91,38.15C2014.27,185.72,2014,186.08,2014,184.06z"/>
	</g>
</g>
</svg>
