<svg xmlns="http://www.w3.org/2000/svg" viewBox="0 0 400.704 113.168"><defs><style>.a{fill:#fff;}</style></defs><path class="a" d="M44.016-26.16h-10.8v-4.752a81.758,81.758,0,0,0,12-3.984,9.617,9.617,0,0,1,1.248-.48c-1.008-1.3-2.928-3.744-4.272-5.424a54.962,54.962,0,0,1-11.568,4.368c-1.584-.672-3.312-1.44-4.08-1.728.048.384.048,3.456.048,3.744v12.432c0,10.176-1.44,16.176-4.944,21.456,1.584,1.152,4.224,3.216,5.664,4.512C30.72-.384,32.928-9.408,33.168-19.632h2.688V1.248a22.56,22.56,0,0,1-.1,2.64h6.768a22.559,22.559,0,0,1-.1-2.64v-20.88h1.584c1.008,0,1.872,0,2.592.048v-6.624C45.84-26.16,45.024-26.16,44.016-26.16ZM18-11.856h3.648c1.152,0,2.208,0,3.024.048V-17.76c-.864.048-1.872.048-3.024.048h-4.9V-20.64h5.04c1.2,0,2.208,0,3.072.048v-6.144c-.864.048-1.872.048-3.072.048H20.88c.384-1.2.768-2.4,1.056-3.6.1-.24.192-.576.336-.864l-.96-.192h.336c1.1,0,2.016,0,2.88.048v-5.376c-.864.048-1.776.048-2.88.048h-4.9v-2.832a7.432,7.432,0,0,1,.048-1.008c-1.344-.1-5.28-.192-6.72-.24a11.272,11.272,0,0,1,.048,1.248v2.832H5.088c-1.1,0-2.112,0-2.928-.048V-31.3c.816-.048,1.824-.048,2.928-.048H6.336L4.7-31.056c.528,1.344,1.152,2.784,1.632,4.368H4.944c-1.2,0-2.256,0-3.072-.048v6.144c.816-.048,1.872-.048,3.072-.048h5.28v2.928H5.088c-1.2,0-2.208,0-3.024-.048v5.952c.816-.048,1.824-.048,3.024-.048H8.4A24.4,24.4,0,0,1,.768-4.8C1.68-2.928,3.12.144,3.648,1.68a28.164,28.164,0,0,0,6.672-7.1l-.1,7.2a15.574,15.574,0,0,1-.1,2.208h6.72a15.92,15.92,0,0,1-.1-2.208l-.1-7.92a22.335,22.335,0,0,0,4.9,4.08l2.64-6.1A28.45,28.45,0,0,1,18-11.856ZM10.7-31.344h5.472a21.976,21.976,0,0,1-1.152,4.656H12.1A41.772,41.772,0,0,0,10.7-31.344ZM89.232-15.168c-2.688,4.992-8.64,10.08-14.928,10.08-3.456,0-5.76-1.488-5.76-5.808,0-4.128,1.008-17.184,1.44-22.272a21.812,21.812,0,0,1,.72-4.272l-8.88-1.152c.048.816.048,1.776.048,2.5,0,4.32-1.008,20.832-1.008,26.112,0,8.3,4.416,12.816,13.44,12.816,8.64,0,15.792-5.808,19.152-10.464C92.5-9.456,90.48-12.528,89.232-15.168ZM118.176.96c4.56,0,8.448-4.944,9.5-12.576l-6.336-6.528c-.288,6.96-1.536,10.464-3.216,10.464-2.208,0-4.8-3.648-4.8-13.008a87.128,87.128,0,0,1,.96-13.344l-8.112-1.152c-.144,1.3-.432,9.12-.432,12.864C105.744-3.456,112.56.96,118.176.96ZM139.68-8.3l7.488-3.072c-1.008-8.208-5.9-17.424-10.944-21.552L129.7-29.04C134.592-25.2,139.344-15.264,139.68-8.3ZM32.928,42.848c-1.3.96-3.5,2.5-5.184,3.5v-1.92a16.266,16.266,0,0,1,.1-2.16c-.528-.048-1.344-.048-2.256-.1a54.748,54.748,0,0,0,2.784-4.848H40.224c2.256,0,4.08,0,5.376.1v-7.68c-1.3.1-3.12.1-5.376.1H7.776c-2.208,0-4.08,0-5.376-.1v7.68c1.3-.1,3.168-.1,5.376-.1H20.64A52.891,52.891,0,0,1,.912,56.192a53.735,53.735,0,0,1,4.9,5.9A55.9,55.9,0,0,0,19.872,49.9V68.816a28.42,28.42,0,0,1-.1,2.976H27.84c-.048-.816-.1-1.92-.1-2.976V46.976A70.174,70.174,0,0,0,42.96,61.232a61.863,61.863,0,0,1,4.32-6.384A54.24,54.24,0,0,1,32.928,42.848Zm64.08-5.664h-9.36c.048-2.448.1-5.088.1-7.92,0-.576.1-1.3.1-1.392l-6.576-.24c.1,1.1.144,2.88.144,3.888,0,2.016,0,3.888-.048,5.664H77.52V34.928c-.912.048-1.872.048-3.072.048H68.976V33.2c2.64-.288,5.184-.672,7.584-1.056.384-.048,1.056-.192,1.488-.24-1.008-1.008-3.12-3.024-4.416-4.224a115.272,115.272,0,0,1-20.976,1.488c.816,1.392,2.016,3.7,2.5,4.8,2.4,0,4.752-.1,7.056-.192v1.2h-6.48c-1.152,0-2.16,0-3.024-.048v5.184c.864-.048,1.872-.048,3.024-.048h6.48v1.488H54.1c.048.48.048,1.056.048,1.632v11.04c0,.576,0,1.152-.048,1.632h8.112v1.68h-5.76c-1.152,0-2.112,0-2.976-.048v5.184c.864-.048,1.824-.048,2.976-.048h5.76v2.4c-2.448.192-4.656.336-6.192.384-1.3,0-2.688.048-3.5,0l.672,6.048c.72-.1,1.872-.288,2.784-.384,4.944-.336,18.048-1.776,21.072-2.16.864,1.248,1.728,2.544,2.256,3.408,4.7-4.992,7.3-11.712,8.16-28.608h2.832c-.048,13.488-.24,16.608-.672,18.576-.48,1.92-1.3,2.688-2.88,2.688a7.874,7.874,0,0,1-2.4-.432c.768,2.5,1.872,6.24,2.016,7.392,5.088,0,8.208-1.872,9.264-5.616.96-3.36,1.3-8.112,1.3-27.216C96.912,38.672,96.96,37.76,97.008,37.184Zm-28.032,2.88H76.7v1.488H68.976Zm8.4,23.28c-1.392.24-4.7.624-8.4,1.008V62.624H74.3c1.152,0,2.16,0,3.024.048V57.488c-.912.048-1.872.048-3.024.048H68.976v-1.68h8.16l-.048-1.632V43.76c.624-.048,1.344-.048,2.16-.048h1.968C80.832,53.6,79.776,59.5,77.376,63.344Zm-14.688-18v1.488h-2.64V45.344Zm8.5,1.488H68.448V45.344h2.736Zm-11.136,3.6h2.64v1.632h-2.64Zm11.136,1.632H68.448V50.432h2.736Zm71.808,13.008h-9.7v-2.64h6.96c1.2,0,2.208-.048,3.12,0v-5.28c-.912.048-1.92.1-3.12.1H133.3v-2.64h8.016c1.3,0,2.352,0,3.264.048V49.04c-.912.048-1.968.048-3.264.048H133.3V48.08c0-.528,0-1.2.048-1.68-1.392-.1-5.28-.192-6.768-.24.048.48.1,1.44.1,1.872v1.056H123.5a8.956,8.956,0,0,0,.336-1.056c.048-.192.24-.528.336-.768-1.872-.384-4.608-.912-6.336-1.3a21.393,21.393,0,0,1-4.608,8.688q.144-2.16.144-4.464V45.44h29.232c1.68,0,3.024,0,4.08.1v-5.52c-1.056.048-2.4.048-4.08.048h-7.1c.816-1.248,1.536-2.448,2.112-3.456a1.049,1.049,0,0,0,.144-.24h2.928c1.728,0,3.072,0,4.176.048V30.848c-1.1.048-2.448.048-4.176.048H129.5V28.5a8.078,8.078,0,0,1,.1-.96c-1.536-.144-5.808-.24-7.392-.24a11.982,11.982,0,0,1,.1,1.2v2.4H111.168c-1.728,0-3.168,0-4.272-.048v5.568c1.1-.048,2.544-.048,4.272-.048h3.024c.672,1.1,1.44,2.4,2.112,3.7h-9.6c.048.624.1,1.536.1,1.968v8.016c0,8.544-1.632,14.352-4.032,17.616,1.68,1.3,4.272,3.36,5.472,4.464,2.3-2.832,3.888-7.776,4.656-13.728a39.764,39.764,0,0,1,3.456,3.024,21.82,21.82,0,0,0,1.92-2.16v3.168c.912-.048,1.92,0,3.12,0h5.28v2.64h-9.936c-1.632,0-2.976,0-4.032-.048V70.88c1.056-.048,2.4-.048,4.032-.048h26.256c1.632,0,2.976,0,4.032.048V65.024C145.968,65.072,144.624,65.072,142.992,65.072Zm-21.552-28.7h9.072a36.252,36.252,0,0,1-2.112,3.7h-5.136C122.688,38.864,122.064,37.52,121.44,36.368Zm-.048,20.88c-.624,0-1.152,0-1.68-.048.528-.816,1.008-1.68,1.488-2.592h5.472v2.64ZM191.76,58.64c2.976-5.616,4.848-12.72,5.712-22.032l.672-.336A43.944,43.944,0,0,0,192.912,32l-.528.528h-13.44V28.88c-.864.048-1.968.048-3.168.048h-18.24c-1.248,0-2.3,0-3.216-.048v6.1c.912-.048,1.92-.048,3.12-.048v25.44c-1.2.1-2.448.1-3.168.1.288,2.352.624,5.376.864,6.816.576-.144,1.68-.336,2.592-.48,2.352-.288,7.344-1.008,11.184-1.632v3.408c0,1.248,0,2.5-.1,3.5h6.816c-.1-1.008-.1-2.256-.1-3.5V66.7c1.2,1.872,2.592,4.128,3.216,5.376a34.026,34.026,0,0,0,9.12-7.584,41.577,41.577,0,0,0,8.208,7.68c.816-1.68,2.544-4.848,3.648-6.768A30.669,30.669,0,0,1,191.76,58.64ZM168.912,39.1H164.16V34.928h4.752Zm6.624,25.92v-30.1h1.248V39.1c.528-.048,1.056-.048,1.68-.048a46.49,46.49,0,0,0,5.28,19.152A25.675,25.675,0,0,1,175.536,65.024Zm12.048-13.44A38.7,38.7,0,0,1,184.8,39.056h5.664A42.889,42.889,0,0,1,187.584,51.584Zm-23.424-6.72h4.752V48.8H164.16Zm0,14.688V54.56h4.752v4.272C167.472,59.072,165.792,59.312,164.16,59.552Zm81.216-28.944c0-.864,0-1.92.1-2.832-1.584-.144-6.1-.24-7.68-.24.048.72.1,2.112.1,3.072v37.44c0,1.392-.048,2.928-.1,4.032h7.68c-.048-1.1-.1-2.64-.1-4.032Zm-14.736,19.2H214.9l.432-3.648h14.016l-.048-1.968v-13.2c0-.768,0-1.344.048-2.016H209.9c-1.056,0-1.968,0-2.736-.048v6.864c.768-.048,1.68-.048,2.736-.048h12.144v3.7H216.24c-2.16-.1-5.616-.192-7.488-.192a5.826,5.826,0,0,1-.048.864c-.192,3.408-1.392,12.1-2.256,16.464H223.2c-.144,3.792-.48,5.52-1.2,6.576-1.008,1.3-2.928,1.824-6.672,1.824a24.913,24.913,0,0,1-5.76-.672c.912,2.5,2.256,6.336,2.592,7.824,9.072,0,14.16-1.536,16.272-4.8,1.728-2.736,2.112-6.336,2.112-15.36C230.544,51.488,230.592,50.432,230.64,49.808Zm60.192-6.768h5.04c1.584,0,2.88,0,3.888.1v-7.2c-1.008.1-2.3.1-3.888.1h-8.448V28.976a11.979,11.979,0,0,1,.1-1.2c-1.488-.1-5.712-.192-7.3-.24.048.432.1,1.056.1,1.392v7.1h-6.576c-1.584,0-2.928,0-3.888-.1v7.2c.96-.1,2.3-.1,3.888-.1h2.3a37.825,37.825,0,0,1-8.208,13.632v-19.1a75.513,75.513,0,0,0,3.312-8.112l.336-.576L264.48,27.3a49.918,49.918,0,0,1-9.12,17.664A68.056,68.056,0,0,1,258,52.784a25.081,25.081,0,0,0,3.216-4.416c-.384,7.536-.672,16.176-.672,20.112,0,1.248-.048,2.544-.1,3.5h7.488c-.048-.96-.1-2.256-.1-3.5V59.7a40.635,40.635,0,0,1,2.928,4.9,30.038,30.038,0,0,0,4.416-5.376v5.04c.768-.048,1.728-.048,2.688-.048h2.4c-.048,1.872-.048,3.456-.048,4.416,0,1.152-.048,2.4-.1,3.216h7.44c-.048-.816-.1-2.064-.1-3.216,0-.96,0-2.544-.048-4.416h2.736c.96,0,1.92,0,2.688.048v-5.52a31.743,31.743,0,0,0,4.9,5.376,45.278,45.278,0,0,1,3.552-7.2A34.474,34.474,0,0,1,290.832,43.04Zm-.672,14.3h-2.928c-.1-3.264-.24-6.72-.384-9.792a48.069,48.069,0,0,0,5.04,9.792Zm-12.288,0h-1.488a53.858,53.858,0,0,0,4.464-9.648c-.144,3.024-.288,6.432-.384,9.648Zm65.52,1.92h7.152L350.5,57.68V47.36c0-.528,0-1.056.048-1.536h-7.632V44h1.2c.72,0,1.44,0,2.112.048V42.272a23.422,23.422,0,0,0,3.216,2.3,32.769,32.769,0,0,1,3.264-6.048c-3.888-1.872-8.256-5.664-9.888-9.7a2.767,2.767,0,0,1,.384-.672l-6.864-1.2a23.147,23.147,0,0,1-10.32,11.952,43.619,43.619,0,0,1,3.6,5.856,32.252,32.252,0,0,0,3.168-2.256v1.536C333.5,44,334.176,44,334.9,44h1.392v1.824H328.8c.048.432.048,1.008.048,1.536V57.68c0,.576,0,1.1-.048,1.584h6.912c-1.68,3.408-4.9,5.232-8.976,6.384.384-2.3.528-6,.576-13.968,0-.384.048-1.152.048-1.68h-5.04V47.408h1.44c.72,0,1.44,0,2.112.048V42.992c-.72.048-1.392.048-2.112.048h-1.44V40.784h1.392c.72,0,1.44,0,2.112.048V36.368c-.72.048-1.392.048-2.112.048H322.32V34.064h3.072c.816,0,1.632,0,2.352.048V28.928c-.72.048-1.536.048-2.352.048H308.3a18.127,18.127,0,0,1,.1,2.352V52.88c0,.816-.048,1.728-.1,2.352h13.488c-.048,5.952-.24,7.584-.528,8.784a2.412,2.412,0,0,1-2.64,1.824,6.844,6.844,0,0,1-2.4-.432c.624,1.968,1.584,5.04,1.824,6.144,4.752,0,7.392-1.584,8.3-4.224a44.4,44.4,0,0,1,2.832,5.04c4.8-1.872,8.4-4.416,10.608-8.112a19.661,19.661,0,0,0,9.5,8.064,57.94,57.94,0,0,1,3.456-6.432C349.3,64.784,345.264,62.864,343.392,59.264Zm-26.208-25.2v2.352h-2.976V34.064Zm25.68,4.8h-6.336a36.786,36.786,0,0,0,3.216-4.272A30.438,30.438,0,0,0,342.864,38.864Zm-25.68,4.176h-2.976V40.784h2.976ZM314.208,50V47.408h2.976V50Zm20.448,4.176V50.912h2.256V53.12a7.436,7.436,0,0,1-.048,1.056Zm10.032,0h-2.3V50.912h2.3ZM307.776,56.24a50.632,50.632,0,0,1-1.392,13.248l3.744,1.824a70.614,70.614,0,0,0,.96-14.208Zm13.68,6.288a38.158,38.158,0,0,0-1.344-6.288l-2.016.336a38.524,38.524,0,0,1,1.1,6.336Zm-4.32-6.192-2.256.384a48.39,48.39,0,0,1,1.152,8.16l2.5-.432A45.9,45.9,0,0,0,317.136,56.336Zm-5.568.672a73.961,73.961,0,0,1,.912,10.9c.864-.144,2.064-.336,2.784-.432a65.836,65.836,0,0,0-1.248-10.944Zm89.9-7.344L398.5,42.272c-.816.384-1.872.768-2.88,1.152-2.928,1.056-6.432,2.16-9.888,3.456-1.1-2.784-3.12-4.368-6.816-4.368a7.783,7.783,0,0,0-2.928.672c.816-1.1,1.584-2.256,2.3-3.408a123.461,123.461,0,0,0,14.3-1.344l-.624-7.008a82.561,82.561,0,0,1-10.08,1.248,28.052,28.052,0,0,0,.96-3.072,10.427,10.427,0,0,1,.528-1.248l-8.5-.576a7.346,7.346,0,0,1-.1,1.728,15.451,15.451,0,0,1-.864,3.408,56.053,56.053,0,0,1-10.848-1.056l.048,7.536a63.022,63.022,0,0,0,7.248.432A74.318,74.318,0,0,1,358.9,52.832l5.472,6.336c4.464-6.192,8.208-11.04,11.76-11.04a3.353,3.353,0,0,1,3.024,1.584c-6.1,2.976-10.944,6.912-10.944,12.528,0,6.576,6.192,9.84,15.312,9.84A69.52,69.52,0,0,0,396,70.832l-.576-7.68a43.3,43.3,0,0,1-12.576,1.824c-5.28,0-7.248-1.3-7.248-3.6,0-1.92,1.776-3.744,4.608-5.376,0,1.68,0,4.9-.048,5.856l6.864-.24c0-1.344-.048-2.16-.048-3.072,0-1.968-.048-3.744-.144-5.424a90.655,90.655,0,0,1,11.952-3.072A25.876,25.876,0,0,1,401.472,49.664Z" transform="translate(-0.768 40.8)"/></svg>