<svg xmlns="http://www.w3.org/2000/svg" viewBox="0 0 183.528 145.876"><defs><style>.a{fill:#fff;}</style></defs><path class="a" d="M33.012-19.62h-8.1v-3.564a61.318,61.318,0,0,0,9-2.988,7.213,7.213,0,0,1,.936-.36c-.756-.972-2.2-2.808-3.2-4.068a41.222,41.222,0,0,1-8.676,3.276c-1.188-.5-2.484-1.08-3.06-1.3.036.288.036,2.592.036,2.808v9.324c0,7.632-1.08,12.132-3.708,16.092,1.188.864,3.168,2.412,4.248,3.384C23.04-.288,24.7-7.056,24.876-14.724h2.016V.936a16.919,16.919,0,0,1-.072,1.98H31.9a16.919,16.919,0,0,1-.072-1.98v-15.66h1.188c.756,0,1.4,0,1.944.036v-4.968C34.38-19.62,33.768-19.62,33.012-19.62ZM13.5-8.892h2.736c.864,0,1.656,0,2.268.036V-13.32c-.648.036-1.4.036-2.268.036H12.564v-2.2h3.78c.9,0,1.656,0,2.3.036v-4.608c-.648.036-1.4.036-2.3.036H15.66c.288-.9.576-1.8.792-2.7.072-.18.144-.432.252-.648l-.72-.144h.252c.828,0,1.512,0,2.16.036V-27.5c-.648.036-1.332.036-2.16.036H12.564v-2.124a5.574,5.574,0,0,1,.036-.756c-1.008-.072-3.96-.144-5.04-.18a8.454,8.454,0,0,1,.036.936v2.124H3.816c-.828,0-1.584,0-2.2-.036v4.032c.612-.036,1.368-.036,2.2-.036h.936l-1.224.216c.4,1.008.864,2.088,1.224,3.276H3.708c-.9,0-1.692,0-2.3-.036v4.608c.612-.036,1.4-.036,2.3-.036h3.96v2.2H3.816c-.9,0-1.656,0-2.268-.036v4.464c.612-.036,1.368-.036,2.268-.036H6.3A18.3,18.3,0,0,1,.576-3.6C1.26-2.2,2.34.108,2.736,1.26a21.123,21.123,0,0,0,5-5.328l-.072,5.4A11.681,11.681,0,0,1,7.6,2.988h5.04a11.94,11.94,0,0,1-.072-1.656l-.072-5.94a16.752,16.752,0,0,0,3.672,3.06l1.98-4.572A21.337,21.337,0,0,1,13.5-8.892ZM8.028-23.508h4.1a16.482,16.482,0,0,1-.864,3.492h-2.2A31.329,31.329,0,0,0,8.028-23.508Zm58.9,12.132c-2.016,3.744-6.48,7.56-11.2,7.56-2.592,0-4.32-1.116-4.32-4.356,0-3.1.756-12.888,1.08-16.7a16.359,16.359,0,0,1,.54-3.2l-6.66-.864c.036.612.036,1.332.036,1.872,0,3.24-.756,15.624-.756,19.584,0,6.228,3.312,9.612,10.08,9.612,6.48,0,11.844-4.356,14.364-7.848C69.372-7.092,67.86-9.4,66.924-11.376ZM88.632.72c3.42,0,6.336-3.708,7.128-9.432l-4.752-4.9C90.792-8.388,89.856-5.76,88.6-5.76,86.94-5.76,85-8.5,85-15.516a65.346,65.346,0,0,1,.72-10.008l-6.084-.864c-.108.972-.324,6.84-.324,9.648C79.308-2.592,84.42.72,88.632.72ZM104.76-6.228l5.616-2.3c-.756-6.156-4.428-13.068-8.208-16.164l-4.9,2.916C100.944-18.9,104.508-11.448,104.76-6.228ZM24.7,37.136c-.972.72-2.628,1.872-3.888,2.628v-1.44a12.2,12.2,0,0,1,.072-1.62c-.4-.036-1.008-.036-1.692-.072A41.061,41.061,0,0,0,21.276,33h8.892c1.692,0,3.06,0,4.032.072v-5.76c-.972.072-2.34.072-4.032.072H5.832c-1.656,0-3.06,0-4.032-.072v5.76C2.772,33,4.176,33,5.832,33H15.48A39.669,39.669,0,0,1,.684,47.144a40.3,40.3,0,0,1,3.672,4.428A41.926,41.926,0,0,0,14.9,42.428V56.612a21.315,21.315,0,0,1-.072,2.232H20.88c-.036-.612-.072-1.44-.072-2.232V40.232A52.63,52.63,0,0,0,32.22,50.924a46.4,46.4,0,0,1,3.24-4.788A40.68,40.68,0,0,1,24.7,37.136Zm48.06-4.248h-7.02c.036-1.836.072-3.816.072-5.94,0-.432.072-.972.072-1.044l-4.932-.18c.072.828.108,2.16.108,2.916,0,1.512,0,2.916-.036,4.248H58.14V31.2c-.684.036-1.4.036-2.3.036h-4.1V29.9c1.98-.216,3.888-.5,5.688-.792.288-.036.792-.144,1.116-.18-.756-.756-2.34-2.268-3.312-3.168a86.454,86.454,0,0,1-15.732,1.116c.612,1.044,1.512,2.772,1.872,3.6,1.8,0,3.564-.072,5.292-.144v.9H41.8c-.864,0-1.62,0-2.268-.036v3.888c.648-.036,1.4-.036,2.268-.036h4.86v1.116H40.572c.036.36.036.792.036,1.224v8.28c0,.432,0,.864-.036,1.224h6.084v1.26h-4.32c-.864,0-1.584,0-2.232-.036V52c.648-.036,1.368-.036,2.232-.036h4.32v1.8c-1.836.144-3.492.252-4.644.288-.972,0-2.016.036-2.628,0l.5,4.536c.54-.072,1.4-.216,2.088-.288,3.708-.252,13.536-1.332,15.8-1.62.648.936,1.3,1.908,1.692,2.556C63,55.5,64.944,50.456,65.592,37.784h2.124c-.036,10.116-.18,12.456-.5,13.932-.36,1.44-.972,2.016-2.16,2.016a5.905,5.905,0,0,1-1.8-.324c.576,1.872,1.4,4.68,1.512,5.544,3.816,0,6.156-1.4,6.948-4.212.72-2.52.972-6.084.972-20.412C72.684,34,72.72,33.32,72.756,32.888Zm-21.024,2.16h5.8v1.116h-5.8Zm6.3,17.46c-1.044.18-3.528.468-6.3.756v-1.3h4c.864,0,1.62,0,2.268.036V48.116c-.684.036-1.4.036-2.268.036h-4v-1.26h6.12l-.036-1.224V37.82c.468-.036,1.008-.036,1.62-.036h1.476C60.624,45.2,59.832,49.628,58.032,52.508Zm-11.016-13.5v1.116h-1.98V39.008Zm6.372,1.116H51.336V39.008h2.052Zm-8.352,2.7h1.98v1.224h-1.98Zm8.352,1.224H51.336V42.824h2.052ZM107.244,53.8H99.972v-1.98h5.22c.9,0,1.656-.036,2.34,0v-3.96c-.684.036-1.44.072-2.34.072h-5.22v-1.98h6.012c.972,0,1.764,0,2.448.036V41.78c-.684.036-1.476.036-2.448.036H99.972V41.06c0-.4,0-.9.036-1.26-1.044-.072-3.96-.144-5.076-.18.036.36.072,1.08.072,1.4v.792H92.628a6.717,6.717,0,0,0,.252-.792c.036-.144.18-.4.252-.576-1.4-.288-3.456-.684-4.752-.972a16.045,16.045,0,0,1-3.456,6.516q.108-1.62.108-3.348V39.08h21.924c1.26,0,2.268,0,3.06.072v-4.14c-.792.036-1.8.036-3.06.036h-5.328c.612-.936,1.152-1.836,1.584-2.592a.787.787,0,0,0,.108-.18h2.2c1.3,0,2.3,0,3.132.036V28.136c-.828.036-1.836.036-3.132.036H97.128v-1.8a6.06,6.06,0,0,1,.072-.72c-1.152-.108-4.356-.18-5.544-.18a8.985,8.985,0,0,1,.072.9v1.8H83.376c-1.3,0-2.376,0-3.2-.036v4.176c.828-.036,1.908-.036,3.2-.036h2.268c.5.828,1.08,1.8,1.584,2.772h-7.2c.036.468.072,1.152.072,1.476v6.012c0,6.408-1.224,10.764-3.024,13.212,1.26.972,3.2,2.52,4.1,3.348,1.728-2.124,2.916-5.832,3.492-10.3a29.821,29.821,0,0,1,2.592,2.268,16.364,16.364,0,0,0,1.44-1.62v2.376c.684-.036,1.44,0,2.34,0H95V53.8H87.552c-1.224,0-2.232,0-3.024-.036V58.16c.792-.036,1.8-.036,3.024-.036h19.692c1.224,0,2.232,0,3.024.036V53.768C109.476,53.8,108.468,53.8,107.244,53.8ZM91.08,32.276h6.8A27.193,27.193,0,0,1,96.3,35.048H92.448C92.016,34.148,91.548,33.14,91.08,32.276Zm-.036,15.66c-.468,0-.864,0-1.26-.036.4-.612.756-1.26,1.116-1.944H95v1.98ZM143.82,48.98c2.232-4.212,3.636-9.54,4.284-16.524l.5-.252a32.958,32.958,0,0,0-3.924-3.2l-.4.4h-10.08V26.66c-.648.036-1.476.036-2.376.036h-13.68c-.936,0-1.728,0-2.412-.036v4.572c.684-.036,1.44-.036,2.34-.036v19.08c-.9.072-1.836.072-2.376.072.216,1.764.468,4.032.648,5.112.432-.108,1.26-.252,1.944-.36,1.764-.216,5.508-.756,8.388-1.224v2.556c0,.936,0,1.872-.072,2.628h5.112c-.072-.756-.072-1.692-.072-2.628v-1.4c.9,1.4,1.944,3.1,2.412,4.032a25.52,25.52,0,0,0,6.84-5.688,31.183,31.183,0,0,0,6.156,5.76c.612-1.26,1.908-3.636,2.736-5.076A23,23,0,0,1,143.82,48.98ZM126.684,34.328H123.12V31.2h3.564Zm4.968,19.44V31.2h.936v3.132c.4-.036.792-.036,1.26-.036a34.868,34.868,0,0,0,3.96,14.364A19.256,19.256,0,0,1,131.652,53.768Zm9.036-10.08a29.021,29.021,0,0,1-2.088-9.4h4.248A32.167,32.167,0,0,1,140.688,43.688Zm-17.568-5.04h3.564V41.6H123.12Zm0,11.016V45.92h3.564v3.2C125.6,49.3,124.344,49.484,123.12,49.664Zm60.912-21.708c0-.648,0-1.44.072-2.124-1.188-.108-4.572-.18-5.76-.18.036.54.072,1.584.072,2.3v28.08c0,1.044-.036,2.2-.072,3.024h5.76c-.036-.828-.072-1.98-.072-3.024Zm-11.052,14.4H161.172l.324-2.736h10.512l-.036-1.476v-9.9c0-.576,0-1.008.036-1.512h-14.58c-.792,0-1.476,0-2.052-.036v5.148c.576-.036,1.26-.036,2.052-.036h9.108V34.58H162.18c-1.62-.072-4.212-.144-5.616-.144a4.369,4.369,0,0,1-.036.648c-.144,2.556-1.044,9.072-1.692,12.348H167.4c-.108,2.844-.36,4.14-.9,4.932-.756.972-2.2,1.368-5,1.368a18.685,18.685,0,0,1-4.32-.5c.684,1.872,1.692,4.752,1.944,5.868,6.8,0,10.62-1.152,12.2-3.6,1.3-2.052,1.584-4.752,1.584-11.52C172.908,43.616,172.944,42.824,172.98,42.356ZM27.324,93.28H31.1c1.188,0,2.16,0,2.916.072v-5.4c-.756.072-1.728.072-2.916.072H24.768V82.732a8.985,8.985,0,0,1,.072-.9c-1.116-.072-4.284-.144-5.472-.18.036.324.072.792.072,1.044v5.328H14.508c-1.188,0-2.2,0-2.916-.072v5.4c.72-.072,1.728-.072,2.916-.072h1.728A28.368,28.368,0,0,1,10.08,103.5V89.176a56.63,56.63,0,0,0,2.484-6.084l.252-.432L7.56,81.472A37.438,37.438,0,0,1,.72,94.72a51.038,51.038,0,0,1,1.98,5.868,18.811,18.811,0,0,0,2.412-3.312c-.288,5.652-.5,12.132-.5,15.084,0,.936-.036,1.908-.072,2.628h5.616c-.036-.72-.072-1.692-.072-2.628v-6.588a30.475,30.475,0,0,1,2.2,3.672,22.528,22.528,0,0,0,3.312-4.032v3.78c.576-.036,1.3-.036,2.016-.036h1.8c-.036,1.4-.036,2.592-.036,3.312,0,.864-.036,1.8-.072,2.412h5.58c-.036-.612-.072-1.548-.072-2.412,0-.72,0-1.908-.036-3.312H26.82c.72,0,1.44,0,2.016.036v-4.14a23.807,23.807,0,0,0,3.672,4.032,33.957,33.957,0,0,1,2.664-5.4A25.856,25.856,0,0,1,27.324,93.28Zm-.5,10.728h-2.2c-.072-2.448-.18-5.04-.288-7.344a36.052,36.052,0,0,0,3.78,7.344Zm-9.216,0H16.488a40.394,40.394,0,0,0,3.348-7.236c-.108,2.268-.216,4.824-.288,7.236Zm49.14,1.44h5.364l-.036-1.188V96.52c0-.4,0-.792.036-1.152H66.384V94h.9c.54,0,1.08,0,1.584.036V92.7a17.566,17.566,0,0,0,2.412,1.728A24.577,24.577,0,0,1,73.728,89.9c-2.916-1.4-6.192-4.248-7.416-7.272a2.076,2.076,0,0,1,.288-.5l-5.148-.9a17.361,17.361,0,0,1-7.74,8.964,32.714,32.714,0,0,1,2.7,4.392,24.192,24.192,0,0,0,2.376-1.692v1.152C59.328,94,59.832,94,60.372,94h1.044v1.368H55.8c.036.324.036.756.036,1.152v7.74c0,.432,0,.828-.036,1.188h5.184c-1.26,2.556-3.672,3.924-6.732,4.788a78.076,78.076,0,0,0,.432-10.476c0-.288.036-.864.036-1.26H50.94V96.556h1.08c.54,0,1.08,0,1.584.036V93.244c-.54.036-1.044.036-1.584.036H50.94V91.588h1.044c.54,0,1.08,0,1.584.036V88.276c-.54.036-1.044.036-1.584.036H50.94V86.548h2.3c.612,0,1.224,0,1.764.036V82.7c-.54.036-1.152.036-1.764.036H40.428A13.6,13.6,0,0,1,40.5,84.5V100.66c0,.612-.036,1.3-.072,1.764H50.544c-.036,4.464-.18,5.688-.4,6.588a1.809,1.809,0,0,1-1.98,1.368,5.133,5.133,0,0,1-1.8-.324c.468,1.476,1.188,3.78,1.368,4.608,3.564,0,5.544-1.188,6.228-3.168a33.3,33.3,0,0,1,2.124,3.78c3.6-1.4,6.3-3.312,7.956-6.084a14.746,14.746,0,0,0,7.128,6.048,43.455,43.455,0,0,1,2.592-4.824C71.172,109.588,68.148,108.148,66.744,105.448Zm-19.656-18.9v1.764H44.856V86.548Zm19.26,3.6H61.6a27.588,27.588,0,0,0,2.412-3.2A22.829,22.829,0,0,0,66.348,90.148ZM47.088,93.28H44.856V91.588h2.232ZM44.856,98.5V96.556h2.232V98.5Zm15.336,3.132V99.184h1.692v1.656a5.574,5.574,0,0,1-.036.792Zm7.524,0H65.988V99.184h1.728ZM40.032,103.18a37.974,37.974,0,0,1-1.044,9.936l2.808,1.368a52.96,52.96,0,0,0,.72-10.656Zm10.26,4.716a28.619,28.619,0,0,0-1.008-4.716l-1.512.252a28.89,28.89,0,0,1,.828,4.752Zm-3.24-4.644-1.692.288a36.29,36.29,0,0,1,.864,6.12l1.872-.324A34.43,34.43,0,0,0,47.052,103.252Zm-4.176.5a55.472,55.472,0,0,1,.684,8.172c.648-.108,1.548-.252,2.088-.324a49.377,49.377,0,0,0-.936-8.208ZM110.3,98.248,108.072,92.7c-.612.288-1.4.576-2.16.864-2.2.792-4.824,1.62-7.416,2.592-.828-2.088-2.34-3.276-5.112-3.276a5.837,5.837,0,0,0-2.2.5c.612-.828,1.188-1.692,1.728-2.556a92.6,92.6,0,0,0,10.728-1.008l-.468-5.256a61.921,61.921,0,0,1-7.56.936,21.04,21.04,0,0,0,.72-2.3,7.819,7.819,0,0,1,.4-.936l-6.372-.432a5.51,5.51,0,0,1-.072,1.3,11.588,11.588,0,0,1-.648,2.556,42.039,42.039,0,0,1-8.136-.792l.036,5.652a47.265,47.265,0,0,0,5.436.324,55.739,55.739,0,0,1-8.6,9.756l4.1,4.752c3.348-4.644,6.156-8.28,8.82-8.28a2.515,2.515,0,0,1,2.268,1.188c-4.572,2.232-8.208,5.184-8.208,9.4,0,4.932,4.644,7.38,11.484,7.38a52.141,52.141,0,0,0,9.36-.936l-.432-5.76a32.476,32.476,0,0,1-9.432,1.368c-3.96,0-5.436-.972-5.436-2.7,0-1.44,1.332-2.808,3.456-4.032,0,1.26,0,3.672-.036,4.392l5.148-.18c0-1.008-.036-1.62-.036-2.3,0-1.476-.036-2.808-.108-4.068a67.991,67.991,0,0,1,8.964-2.3A19.408,19.408,0,0,1,110.3,98.248Z" transform="translate(-0.576 30.6)"/></svg>