<svg id="レイヤー_1" data-name="レイヤー 1" xmlns="http://www.w3.org/2000/svg" viewBox="0 0 141.73 141.73"><defs><style>.cls-1{fill:#fff;}</style></defs><title>アートボード 6</title><path class="cls-1" d="M78,58.4a7.11,7.11,0,1,0-7.1,7.11A7.11,7.11,0,0,0,78,58.4Zm-11.56,0a4.46,4.46,0,1,1,4.46,4.46A4.46,4.46,0,0,1,66.41,58.4Z"/><path class="cls-1" d="M93,71.55a1.34,1.34,0,0,0-1.3-1H81.38l3.28-5.62a.82.82,0,0,0,.09-.19,21.27,21.27,0,0,0,1.19-6.47,15.08,15.08,0,0,0-30.15,0A21.26,21.26,0,0,0,57,64.69a1.21,1.21,0,0,0,.09.2l3.28,5.62H50a1.32,1.32,0,0,0-1.29,1L43.09,96.79a1.37,1.37,0,0,0,.26,1.12,1.34,1.34,0,0,0,1,.49h53a1.32,1.32,0,0,0,1.29-1.61ZM80.64,73.16h10l1.91,8.56H78.76l-2-3.27L80,73A1.33,1.33,0,0,0,80.64,73.16ZM58.45,58.23a12.42,12.42,0,0,1,24.84,0,18.64,18.64,0,0,1-1,5.42L74.19,77.57a1.51,1.51,0,0,0-.25.42l-3.07,5.28L59.42,63.66A18.87,18.87,0,0,1,58.45,58.23ZM61.9,73.16l7.82,13.4a1.33,1.33,0,0,0,1.15.66A1.32,1.32,0,0,0,72,86.56l3.22-5.51,9.09,14.7H64.8L50.62,76.26a1.16,1.16,0,0,0-.2-.18l.66-2.92Zm-12.23,6.3L61.52,95.75H46ZM87.43,95.75l-7-11.38H93.16l2.53,11.38Z"/></svg>