<?xml version="1.0" encoding="utf-8"?>
<!-- Generator: Adobe Illustrator 22.0.1, SVG Export Plug-In . SVG Version: 6.00 Build 0)  -->
<svg version="1.1" id="レイヤー_1" xmlns="http://www.w3.org/2000/svg" xmlns:xlink="http://www.w3.org/1999/xlink" x="0px"
	 y="0px" viewBox="0 0 74.1 49.9" style="enable-background:new 0 0 74.1 49.9;" xml:space="preserve">
<style type="text/css">
	.st0{fill:#FDAB2A;}
</style>
<title>アートボード 2</title>
<path class="st0" d="M10.3,7c0-1.2-1-2.1-2.2-2.2H7.5C6.3,4.7,5.2,5.6,5.1,6.8C5,8,5.9,9,7.1,9.2c0.1,0,0.3,0,0.4,0h0.7
	C9.3,9.1,10.3,8.2,10.3,7z"/>
<path class="st0" d="M56.3,29.9c0-1.2-1-2.1-2.2-2.2h-0.6c-1.2,0-2.2,1-2.2,2.2s1,2.2,2.2,2.2h0.7C55.3,32.1,56.3,31.1,56.3,29.9z"
	/>
<path class="st0" d="M30.7,32.3c-7.4,0-13.4-6-13.4-13.4s6-13.4,13.4-13.4c7.4,0,13.4,6,13.4,13.4C44.1,26.3,38.1,32.3,30.7,32.3z
	 M30.7,7.5c-6.3,0-11.4,5.1-11.4,11.4c0,6.3,5.1,11.4,11.4,11.4c6.3,0,11.4-5.1,11.4-11.4c0,0,0,0,0,0C42,12.7,37,7.6,30.7,7.5z"/>
<path class="st0" d="M61.9,38.9H1.2c-0.6,0-1.2-0.5-1.2-1.2l0,0V1.2C0,0.5,0.5,0,1.1,0c0,0,0,0,0,0h60.8c0.6,0,1.1,0.5,1.1,1.2v36.6
	C63.1,38.4,62.6,38.9,61.9,38.9z M2.3,36.6h58.5V2.3H2.3L2.3,36.6z"/>
<path class="st0" d="M67.9,44.9H7.2c-0.6,0-1.2-0.5-1.2-1.2s0.5-1.2,1.2-1.2l0,0h59.6V7.2c0-0.6,0.5-1.2,1.2-1.2s1.2,0.5,1.2,1.2
	l0,0v36.6C69.1,44.4,68.6,44.9,67.9,44.9z"/>
<path class="st0" d="M72.9,49.9H12.2c-0.6,0-1.2-0.5-1.2-1.2s0.5-1.2,1.2-1.2h59.6V12.2c0-0.6,0.5-1.2,1.2-1.2s1.2,0.5,1.2,1.2v36.6
	C74.1,49.4,73.6,49.9,72.9,49.9z"/>
<path class="st0" d="M26.2,14.4c-0.2-0.2-0.2-0.4-0.3-0.6c0-0.6,0.5-1,1.1-1c0.3,0,0.6,0.1,0.8,0.4l3,3.6l3-3.6
	c0.2-0.2,0.5-0.4,0.8-0.4c0.6,0,1,0.4,1.1,1c0,0.2-0.1,0.4-0.3,0.6l-2.8,3.5h2.2c0.5,0,0.8,0.3,0.9,0.8c0,0,0,0,0,0
	c0,0.4-0.3,0.8-0.8,0.8c0,0-0.1,0-0.1,0h-2.9v1.1h2.8c0.5,0,0.8,0.3,0.9,0.8c0,0,0,0,0,0.1c0,0.4-0.3,0.8-0.8,0.8c0,0-0.1,0-0.1,0
	h-2.9v2.2c0,0.6-0.4,1-1,1c-0.6,0-1-0.4-1.1-0.9c0,0,0-0.1,0-0.1v-2.2h-2.9c-0.4,0-0.8-0.3-0.9-0.7c0,0,0,0,0-0.1
	c0-0.5,0.4-0.8,0.8-0.8c0,0,0,0,0.1,0h2.8v-1.1h-2.9c-0.4,0-0.8-0.3-0.9-0.7c0,0,0-0.1,0-0.1c0-0.5,0.4-0.8,0.8-0.8c0,0,0,0,0.1,0
	h2.2L26.2,14.4z"/>
</svg>
