<svg id="レイヤー_1" data-name="レイヤー 1" xmlns="http://www.w3.org/2000/svg" viewBox="0 0 141.73 141.73"><defs><style>.cls-1{fill:#fff;}</style></defs><title>アートボード 3</title><path class="cls-1" d="M82.14,64a19.23,19.23,0,0,0-3.5.34V56.26l3.66,3a1.33,1.33,0,0,0,.84.3A1.33,1.33,0,0,0,84,57.15L63.52,40.67a1.35,1.35,0,0,0-1.66,0L41.41,57.15a1.33,1.33,0,1,0,1.67,2.06l3.66-3V78.09a1.33,1.33,0,0,0,1.32,1.33H58.37a1.34,1.34,0,0,0,1.33-1.33V67h6v5.23a1.32,1.32,0,0,0,.41,1,18.49,18.49,0,0,0-2.63,9.5A18.68,18.68,0,1,0,82.14,64ZM67,64.34H58.37A1.34,1.34,0,0,0,57,65.67v11.1H49.39V55.45a1.32,1.32,0,0,0-.44-1L62.69,43.4,76.43,54.48a1.32,1.32,0,0,0-.44,1v9.6a18.71,18.71,0,0,0-7.65,5.08V65.67A1.34,1.34,0,0,0,67,64.34ZM82.14,98.7a16,16,0,1,1,16-16A16,16,0,0,1,82.14,98.7Z"/><path class="cls-1" d="M88.61,73.35h0a1.11,1.11,0,0,0-.9.45l-5.5,7.38L76.56,73.9a1.06,1.06,0,0,0-.91-.43h0a1.18,1.18,0,0,0-1.25,1.22,1.2,1.2,0,0,0,.22.59l5.25,6.62-3.22,0a1,1,0,0,0-1,1.06,1,1,0,0,0,1,1h0l4.4,0,0,1.66-4.4,0a1,1,0,0,0-1,1,1,1,0,0,0,1.05,1h0l4.4,0,0,3.71a1.16,1.16,0,0,0,1.17,1.18h0a1.15,1.15,0,0,0,.79-.31,1.21,1.21,0,0,0,.37-.89l0-3.71,4.39,0a1,1,0,0,0,.75-.3,1,1,0,0,0,.3-.73,1,1,0,0,0-.31-.72,1,1,0,0,0-.75-.3l-4.4,0,0-1.66,4.4,0a1,1,0,0,0,1-1,1,1,0,0,0-.31-.74,1.07,1.07,0,0,0-.74-.3h0l-3.22,0,5.12-6.7a1,1,0,0,0,.23-.65A1.17,1.17,0,0,0,88.61,73.35Z"/></svg>