<svg id="レイヤー_1" data-name="レイヤー 1" xmlns="http://www.w3.org/2000/svg" viewBox="0 0 141.73 141.73"><defs><style>.cls-1{fill:#fff;}</style></defs><title>アートボード 4</title><path class="cls-1" d="M106.8,98.6h-4.26v-35a1.33,1.33,0,0,0-.77-1.21L87.21,55.66a1.34,1.34,0,0,0-1.11,0L71.55,62.38a1.33,1.33,0,0,0-.77,1.21v35h-4.3V72.23a1.33,1.33,0,0,0-1.33-1.32H40.52a1.32,1.32,0,0,0-1.32,1.32V98.6H34.93a1.33,1.33,0,0,0,0,2.65H106.8a1.33,1.33,0,1,0,0-2.65ZM73.43,64.43l13.23-6.1,13.23,6.1V98.6H73.43ZM41.85,73.56h22v25h-22Z"/><rect class="cls-1" x="46.43" y="78.95" width="4.42" height="2.65"/><rect class="cls-1" x="54.82" y="78.95" width="4.42" height="2.65"/><rect class="cls-1" x="78.48" y="67.03" width="6.18" height="2.65"/><rect class="cls-1" x="88.65" y="67.03" width="6.18" height="2.65"/><rect class="cls-1" x="78.48" y="73.65" width="6.18" height="2.65"/><rect class="cls-1" x="88.65" y="73.65" width="6.18" height="2.65"/><rect class="cls-1" x="78.48" y="80.28" width="6.18" height="2.65"/><rect class="cls-1" x="88.65" y="80.28" width="6.18" height="2.65"/><rect class="cls-1" x="78.48" y="86.91" width="6.18" height="2.65"/><rect class="cls-1" x="88.65" y="86.91" width="6.18" height="2.65"/><rect class="cls-1" x="46.43" y="85.58" width="4.42" height="2.65"/><rect class="cls-1" x="54.82" y="85.58" width="4.42" height="2.65"/><rect class="cls-1" x="46.43" y="91.76" width="4.42" height="2.65"/><rect class="cls-1" x="54.82" y="91.76" width="4.42" height="2.65"/><path class="cls-1" d="M63.56,49.82C68.17,51,68.89,51.67,70,56.28a1.06,1.06,0,0,0,2.06,0c1.13-4.61,1.85-5.33,6.46-6.46a1.07,1.07,0,0,0,.81-1,1,1,0,0,0-.81-1c-4.61-1.13-5.33-1.86-6.46-6.47a1.06,1.06,0,0,0-2.06,0c-1.13,4.61-1.85,5.34-6.46,6.47a1,1,0,0,0-.81,1A1.07,1.07,0,0,0,63.56,49.82Zm7.49-4.72a6.32,6.32,0,0,0,3.68,3.69,6.3,6.3,0,0,0-3.68,3.68,6.32,6.32,0,0,0-3.69-3.68A6.34,6.34,0,0,0,71.05,45.1Z"/></svg>