<svg id="レイヤー_1" data-name="レイヤー 1" xmlns="http://www.w3.org/2000/svg" viewBox="0 0 141.73 141.73"><defs><style>.cls-1{fill:#fff;}</style></defs><title>アートボード 7</title><path class="cls-1" d="M70.87,81.82a1.33,1.33,0,0,1-1.11-.59,38,38,0,0,0-8.2-8.47c-4.13-3.41-7.7-6.34-7.7-12.64a9.12,9.12,0,0,1,2.64-6.51,9.37,9.37,0,0,1,6.75-2.74h0a9.62,9.62,0,0,1,7.62,3.81,9.59,9.59,0,0,1,10-3.52,9.15,9.15,0,0,1,7,9c0,6.3-3.57,9.23-7.71,12.64A38.25,38.25,0,0,0,72,81.23,1.33,1.33,0,0,1,70.87,81.82Zm-7.66-28.3a6.88,6.88,0,0,0-4.84,2,6.39,6.39,0,0,0-1.86,4.63c0,5,2.82,7.37,6.74,10.59a44.48,44.48,0,0,1,7.62,7.5,43.78,43.78,0,0,1,7.62-7.5c3.91-3.22,6.74-5.55,6.74-10.59a6.46,6.46,0,0,0-5-6.39c-2.56-.65-6.07.05-8.21,4a1.38,1.38,0,0,1-2.33,0,7.38,7.38,0,0,0-6.46-4.19Z"/><path class="cls-1" d="M60.41,62.2a1.33,1.33,0,0,1-1.33-1.32,4.75,4.75,0,0,1,4.74-4.74,1.33,1.33,0,1,1,0,2.65,2.1,2.1,0,0,0-2.09,2.09A1.32,1.32,0,0,1,60.41,62.2Z"/><path class="cls-1" d="M75.06,98.92a1.36,1.36,0,0,1-1-.44l-8.6-9.64H47.39a4.14,4.14,0,0,1-4.14-4.14V47a4.15,4.15,0,0,1,4.14-4.15h47A4.14,4.14,0,0,1,98.48,47V84.7a4.14,4.14,0,0,1-4.14,4.14H77.07l-.69,8.86a1.33,1.33,0,0,1-.89,1.15A1.29,1.29,0,0,1,75.06,98.92ZM47.39,45.47A1.49,1.49,0,0,0,45.9,47V84.7a1.49,1.49,0,0,0,1.49,1.49H66.07a1.32,1.32,0,0,1,1,.44L74,94.39l.55-7a1.32,1.32,0,0,1,1.32-1.22H94.34a1.49,1.49,0,0,0,1.49-1.49V47a1.49,1.49,0,0,0-1.49-1.49Z"/></svg>