<svg id="レイヤー_1" data-name="レイヤー 1" xmlns="http://www.w3.org/2000/svg" viewBox="0 0 141.73 141.73"><defs><style>.cls-1{fill:#fff;}</style></defs><title>アートボード 8</title><path class="cls-1" d="M102.72,49.2H75.82a1.32,1.32,0,0,0-1.32,1.32V91.21a1.32,1.32,0,0,0,1.32,1.32h26.9a1.33,1.33,0,0,0,1.33-1.32V50.52A1.33,1.33,0,0,0,102.72,49.2ZM101.4,89.88H77.15v-38H101.4Z"/><path class="cls-1" d="M62.38,77.84a1.33,1.33,0,0,0-1.33,1.33V89.88H40.34v-38H61.05V62.68a1.33,1.33,0,0,0,2.65,0V50.52a1.32,1.32,0,0,0-1.32-1.32H39a1.32,1.32,0,0,0-1.32,1.32V91.21A1.32,1.32,0,0,0,39,92.53H62.38a1.32,1.32,0,0,0,1.32-1.32v-12A1.33,1.33,0,0,0,62.38,77.84Z"/><path class="cls-1" d="M67.88,66.06A1.33,1.33,0,1,0,66,68l1.82,1.75-16.23.13a1.33,1.33,0,0,0,0,2.65h0l16.19-.13L66,74.11A1.32,1.32,0,0,0,66,76a1.33,1.33,0,0,0,1,.41,1.36,1.36,0,0,0,.92-.37l4.18-4a1.31,1.31,0,0,0,.4-.95,1.33,1.33,0,0,0-.4-1Z"/><path class="cls-1" d="M86.65,69.64l-2.79,0A1.16,1.16,0,0,0,83,70a1.18,1.18,0,0,0-.34.85,1.22,1.22,0,0,0,1.22,1.18L88,72v1.27l-4.14,0a1.21,1.21,0,0,0-1.21,1.21,1.19,1.19,0,0,0,1.22,1.18h0l4.14,0,0,3.46a1.44,1.44,0,0,0,.4,1,1.35,1.35,0,0,0,.93.37h0a1.31,1.31,0,0,0,.9-.36,1.28,1.28,0,0,0,.42-1l0-3.47,4.15,0a1.23,1.23,0,0,0,.86-.36,1.19,1.19,0,0,0-.88-2h0l-4.14,0V72l4.14,0a1.22,1.22,0,0,0,.89-.39,1.21,1.21,0,0,0-.9-2h0l-2.8,0,4.81-6.29a1.17,1.17,0,0,0,.26-.76,1.32,1.32,0,0,0-1.44-1.31h0a1.25,1.25,0,0,0-1,.51l-5.27,7.07-5.39-7a1.25,1.25,0,0,0-1-.5h0a1.49,1.49,0,0,0-1,.42,1.38,1.38,0,0,0-.37,1,1.33,1.33,0,0,0,.26.69Z"/></svg>