<?xml version="1.0" encoding="utf-8"?>
<!-- Generator: Adobe Illustrator 22.0.1, SVG Export Plug-In . SVG Version: 6.00 Build 0)  -->
<svg version="1.1" id="レイヤー_1" xmlns="http://www.w3.org/2000/svg" xmlns:xlink="http://www.w3.org/1999/xlink" x="0px"
	 y="0px" viewBox="0 0 63.2 62.2" style="enable-background:new 0 0 63.2 62.2;" xml:space="preserve">
<style type="text/css">
	.st0{fill:#FDAB2A;}
</style>
<title>アートボード 1</title>
<path class="st0" d="M56.4,31.6c1.6,1.5,4.2,1.4,5.8-0.2c0.7-0.8,1.1-1.8,1.1-2.8v-6.1c0-2.2-1.8-4.1-4-4.1c-1,0-2,0.4-2.8,1.1
	C53,5.8,39.2-2.6,25.6,0.7C19.4,2.2,14,6,10.5,11.2H5.1c-2.8,0-5.1,2.3-5.1,5.1v16.3c0,2.8,2.3,5.1,5.1,5.1h4.2
	c2.8,5,7.1,9,12.4,11.2h-8.4C6.4,49,0.7,55.3,0.1,62h2c0.6-5.6,5.4-11,11.2-11h4.1v11h2v-2.9h6.1v-2h-6v-2h6.1v-2h-6.1v-2h11.2v11h2
	v-6c9.7-0.2,13.7-3.8,14.8-5.1h2.6c5.8,0,10.5,5.4,11.1,11h2C62.4,55.3,56.8,49,49.9,49h-8.3C49,45.8,54.5,39.4,56.4,31.6z
	 M57.1,22.5c0-1.1,0.9-2,2-2s2,0.9,2,2v6.1c0,1.1-0.9,2-2,2s-2-0.9-2-2V22.5z M5.1,35.7c-1.3,0-2.4-0.8-2.9-2h1.8v-2h-2v-2h2v-2h-2
	v-2h2v-2h-2v-2h2v-2h-2v-2h2v-2H2.2c0.4-1.2,1.6-2,2.9-2h4.2c-3.8,6.9-4.2,15.2-1,22.4L5.1,35.7z M23.4,47.5
	c-4.9-1.8-9.1-5.3-11.8-9.7h8.8c1.7,0,3,1.3,3.1,3V47.5z M30.6,48.9c-1.7-0.1-3.4-0.3-5.1-0.8v-7.3c0-2.8-2.3-5.1-5.1-5.1h-9.9
	C4.9,24,9.8,10,21.5,4.4c0.7-0.3,1.3-0.6,2-0.9v10.3c0,2.5,2.1,4.6,4.6,4.6h2.6L30.6,48.9z M30.6,16.3H28c-1.4,0-2.6-1.1-2.6-2.5
	c0,0,0,0,0,0v-1.5h5.1V16.3z M30.6,10.2h-5.1V8.2h5.1V10.2z M30.6,6.1h-5.1V2.9c1.7-0.4,3.4-0.7,5.1-0.8V6.1z M32.6,2.1
	c11,0.5,20.2,8.5,22.2,19.4c-3.8,0.1-15.3-0.2-22.1-6.6L32.6,2.1z M44.3,51c-1.8,1.3-5.4,2.9-11.7,3v-3H44.3z M32.6,48.9v-4.1
	c7.9-0.4,10-5.5,10.1-5.7l-1.9-0.8c-0.1,0.2-1.8,4-8.2,4.4V17.6c6.7,5.3,16.1,6,20.8,6c0.6,0,1.1,0,1.6,0c0.1,0.7,0.1,1.3,0.1,2
	C55,38.1,45.1,48.4,32.6,48.9z"/>
<rect x="13.3" y="53" class="st0" width="2" height="2"/>
<rect x="9.2" y="53" class="st0" width="2" height="2"/>
<rect x="37.7" y="23.5" class="st0" width="2" height="5.1"/>
<path class="st0" d="M19.4,19.4c-3.9,0-7.1,3.2-7.1,7.1c0,3.9,3.2,7.1,7.1,7.1c3.9,0,7.1-3.2,7.1-7.1c0,0,0,0,0,0
	C26.5,22.6,23.3,19.4,19.4,19.4z M19.4,21.4c1.3,0,2.5,0.5,3.4,1.3c-1,0.5-2.2,0.8-3.4,0.7c-1.2,0.1-2.3-0.2-3.3-0.8
	C16.9,21.9,18.1,21.4,19.4,21.4L19.4,21.4z M19.4,31.6c-1.2,0-2.4-0.5-3.3-1.3c1-0.6,2.2-0.8,3.3-0.8c1.2-0.1,2.3,0.2,3.4,0.8
	C21.8,31.1,20.6,31.6,19.4,31.6L19.4,31.6z M24,28.7c-1.4-0.8-3-1.2-4.6-1.2c-1.6-0.1-3.2,0.3-4.6,1.2c-0.7-1.4-0.7-3,0-4.3
	c1.4,0.8,3,1.2,4.6,1.2c1.6,0.1,3.2-0.3,4.6-1.2C24.6,25.7,24.6,27.3,24,28.7L24,28.7z"/>
</svg>
