<svg id="レイヤー_1" data-name="レイヤー 1" xmlns="http://www.w3.org/2000/svg" viewBox="0 0 141.73 141.73"><defs><style>.cls-1{fill:#fff;}</style></defs><title>アートボード 5</title><path class="cls-1" d="M93.09,78.27H49.37A1.33,1.33,0,0,1,48,76.94V49.61a1.33,1.33,0,0,1,1.33-1.32H93.09a1.33,1.33,0,0,1,1.33,1.32V76.94A1.33,1.33,0,0,1,93.09,78.27Zm-42.4-2.65H91.77V50.94H50.69Z"/><path class="cls-1" d="M99.28,86.62a4.34,4.34,0,0,0-5.56-2.08c-1.66.67-8.44,3.36-12,4.7a4.27,4.27,0,0,0-3.82-3l-6.86-.41a18.82,18.82,0,0,1-5.31-1.41,21.67,21.67,0,0,0-6.52-1.67,16.62,16.62,0,0,0-9,1.88c-1.1.48-2.35,1-3.92,1.58H43.45a1.33,1.33,0,0,0,0,2.65h3.11a1.29,1.29,0,0,0,.43-.07c1.77-.61,3.13-1.21,4.33-1.73,2.66-1.17,4.26-1.88,7.76-1.67a19.45,19.45,0,0,1,5.75,1.51,20.66,20.66,0,0,0,6.08,1.57l6.86.42a1.62,1.62,0,0,1,1.52,1.71v.17a1.64,1.64,0,0,1-1.48.78l-16.47-1a1.37,1.37,0,0,0-1.41,1.25,1.34,1.34,0,0,0,1.25,1.4l16.47,1h.26a4.27,4.27,0,0,0,3.75-2.31,1.3,1.3,0,0,0,.78,0C85.91,90.51,93,87.69,94.71,87a1.68,1.68,0,0,1,2.16.7c.36.81-.39,1.79-2,2.57-6,3-16.29,7.62-22.47,9.87a5.76,5.76,0,0,1-3.93.17,37.78,37.78,0,0,0-10.83-1.76,47.64,47.64,0,0,0-12.19.83,1.61,1.61,0,0,0-.29.09l-2.3,1.07a1.32,1.32,0,1,0,1.11,2.4l2.17-1a45.36,45.36,0,0,1,11.36-.74,35.44,35.44,0,0,1,10.16,1.63,7.8,7.8,0,0,0,2.48.4,9.1,9.1,0,0,0,3.16-.6c6.27-2.28,16.7-7,22.76-10C99.65,90.87,100,88.29,99.28,86.62Z"/><path class="cls-1" d="M78.51,56.12A1.57,1.57,0,0,0,77,54.58a1.35,1.35,0,0,0-1.1.54l-4.44,5.3L67,55.12a1.4,1.4,0,0,0-1.11-.54,1.58,1.58,0,0,0-1.55,1.51,1.39,1.39,0,0,0,.38.93L69,62.15H65.69a1.2,1.2,0,0,0-1.28,1.2,1.14,1.14,0,0,0,1.26,1.15h4.19v1.6H65.69a1.21,1.21,0,0,0-1.28,1.21,1.13,1.13,0,0,0,1.26,1.13h4.19v3.27a1.46,1.46,0,0,0,1.58,1.44A1.43,1.43,0,0,0,73,71.71V68.44h4.19a1.14,1.14,0,0,0,1.26-1.15,1.2,1.2,0,0,0-1.28-1.19H73V64.5h4.19a1.14,1.14,0,0,0,1.26-1.17,1.19,1.19,0,0,0-1.28-1.18H73.9L78.13,57A1.4,1.4,0,0,0,78.51,56.12Z"/><path class="cls-1" d="M50.34,45.48H92.13a1.06,1.06,0,0,0,0-2.12H50.34a1.06,1.06,0,0,0,0,2.12Z"/><path class="cls-1" d="M52.85,40.62H88.43a1.06,1.06,0,1,0,0-2.12H52.85a1.06,1.06,0,0,0,0,2.12Z"/></svg>