<?xml version="1.0" encoding="utf-8"?>
<!-- Generator: Adobe Illustrator 22.0.1, SVG Export Plug-In . SVG Version: 6.00 Build 0)  -->
<svg version="1.1" id="レイヤー_1" xmlns="http://www.w3.org/2000/svg" xmlns:xlink="http://www.w3.org/1999/xlink" x="0px"
	 y="0px" viewBox="0 0 65.8 66.9" style="enable-background:new 0 0 65.8 66.9;" xml:space="preserve">
<style type="text/css">
	.st0{fill:#FDAB2A;}
</style>
<title>アートボード 1_1</title>
<path class="st0" d="M65.8,29.2c0-2.3-1.9-4.2-4.2-4.2c-0.1,0-0.3,0-0.4,0c-2.2,0.3-3.8,2.2-3.8,4.4v7.8c-0.6,0.2-1.1,0.5-1.5,0.9
	c-0.1,0.1-2.1,1.9-2.5,2.4l-1,1c-1.5,1.7-3.3,3.2-5.2,4.5L46,46.7c-2.2,1.2-4.2,2.3-5.6,5.1c-1.3,2.8-1.8,5.9-1.6,9l-0.2,4.8
	c0,0.6,0.5,1.2,1.1,1.2c0,0,0,0,0.1,0l0,0c0.6,0,1.1-0.5,1.1-1.1l0.2-4.9v-0.1c-0.2-2.7,0.3-5.5,1.4-8c1-2.1,2.6-3,4.6-4.1
	c0.4-0.2,0.9-0.5,1.4-0.8c2.1-1.4,4-3,5.7-4.9l1-1c0.3-0.4,1.9-1.8,2.5-2.3c0.6-0.6,1.6-0.6,2.2,0c0.3,0.3,0.5,0.7,0.5,1.1
	c0,0.4-0.2,0.8-0.5,1.1L51,50.6c-0.4,0.4-0.4,1-0.2,1.4c0.1,0.1,0.2,0.3,0.3,0.4c0.3,0.4,0.9,0.5,1.3,0.3c0.4-0.2,0.7-0.6,0.7-1
	l0.5-0.5l7.6-7.6c1.2-1.2,1.6-3,0.9-4.6c-0.5-1-1.3-1.7-2.4-2v-7.7c-0.1-1,0.7-1.9,1.7-2.1h0.2c0.5,0,0.9,0.2,1.3,0.5
	c0.4,0.4,0.6,0.9,0.6,1.4v18c0,0.5-0.2,0.9-0.5,1.2L62.5,49l-9.3,9.3c-0.3,0.3-0.6,0.6-1,0.9c-0.3,0.2-0.5,0.5-0.6,0.8l-0.8,5.6
	c-0.1,0.6,0.3,1.2,1,1.3c0.6,0.1,1.2-0.3,1.3-1c0,0,0,0,0,0l0.7-5.1c0.4-0.3,0.7-0.6,1-0.9l9.9-9.9c0.3-0.3,0.6-0.6,0.8-0.9
	c0.2-0.3,0.4-0.3,0.3-0.7c0-0.4,0-0.8,0-1.2L65.8,29.2z"/>
<path class="st0" d="M0.4,49.1c0.3,0.3,0.6,0.6,0.8,0.9l9.9,9.9c0.3,0.3,0.6,0.6,1,0.9l0.7,5.1c0.1,0.6,0.6,1,1.1,1l0,0
	c0.6,0,1.1-0.5,1.1-1.2c0-0.1,0-0.1,0-0.1L14.3,60c-0.1-0.4-0.3-0.7-0.6-0.8c-0.4-0.3-0.7-0.5-1-0.9l-9.3-9.3l-0.6-0.6
	c-0.3-0.3-0.5-0.7-0.5-1.2v-18c0-0.5,0.2-1.1,0.6-1.4c0.4-0.3,0.8-0.5,1.3-0.5h0.1c1,0.1,1.8,1,1.7,2.1v7.8c-1,0.3-1.9,1-2.4,2
	c-0.7,1.6-0.3,3.4,0.9,4.6l7.6,7.6l0.5,0.5c0,0.4,0.2,0.7,0.5,0.9c0.5,0.3,1.1,0.2,1.4-0.2c0.1-0.1,0.2-0.3,0.3-0.4
	c0.3-0.5,0.2-1-0.2-1.4l-8.7-8.7c-0.3-0.3-0.5-0.7-0.5-1.1c0-0.9,0.7-1.6,1.5-1.6c0.5,0,0.9,0.2,1.2,0.6c0.6,0.5,2.1,1.9,2.4,2.3
	s0.6,0.7,1,1c1.6,1.9,3.5,3.5,5.6,4.9c0.5,0.3,0.9,0.5,1.4,0.8c2,1.1,3.6,2,4.6,4.1c1.1,2.5,1.6,5.3,1.4,8v0.1l0.2,4.9
	c0,0.6,0.5,1.1,1.1,1.1l0,0c0.6,0,1.2-0.5,1.2-1.1c0,0,0,0,0-0.1l-0.2-4.8c0.2-3.1-0.3-6.2-1.6-9c-1.3-2.8-3.4-3.9-5.6-5.1l-1.3-0.7
	c-1.9-1.3-3.6-2.8-5.2-4.5l-1-1C12,39.9,10,38.1,10,38.1c-0.4-0.4-0.9-0.7-1.5-0.9v-7.8c0-2.2-1.6-4.1-3.8-4.4
	c-2.3-0.2-4.4,1.4-4.6,3.7c0,0.2,0,0.3,0,0.5v18c0,0.4,0,0.8,0,1.2C0,48.8,0.1,48.8,0.4,49.1z"/>
<path class="st0" d="M33.4,0c-0.2,0-0.5,0.1-0.7,0.2l-22,17.4c-0.5,0.4-0.6,1.1-0.2,1.6c0.4,0.5,1.1,0.6,1.7,0.2L33.4,2.6l21.2,16.8
	c0.5,0.4,1.2,0.3,1.6-0.2c0.4-0.5,0.3-1.2-0.2-1.6l-22-17.3C33.9,0.1,33.7,0,33.4,0z"/>
<path class="st0" d="M19,15.5l-2.3,1.8v18.5c0,0.6,0.5,1.2,1.2,1.2c0,0,0,0,0,0h11c0.6,0,1.2-0.5,1.2-1.2v0V25.4h6.9v10.4
	c0,0.6,0.5,1.1,1.1,1.2h11c0.6,0,1.2-0.5,1.2-1.2v0V17.4l-2.3-1.8v19.1h-8.7V24.3c0-0.6-0.5-1.2-1.2-1.2l0,0h-9.3
	c-0.6,0-1.2,0.5-1.2,1.2v0v10.4H19V15.5z"/>
</svg>
