<svg id="レイヤー_1" data-name="レイヤー 1" xmlns="http://www.w3.org/2000/svg" viewBox="0 0 208.16 34.7"><defs><style>.cls-1{fill:#00a73c;}.cls-2{fill:#fff;}.cls-3{fill:#999;}.cls-4{fill:#333;}</style></defs><title>アートボード 1</title><rect class="cls-1" y="15.12" width="30" height="19.58"/><path class="cls-2" d="M7.54,30.31a3.71,3.71,0,0,1-3.69-3.85c0-2,2-3.63,3.69-4.59,1.69,1,3.69,2.57,3.69,4.59a3.72,3.72,0,0,1-3.69,3.85m11.3-3.9c0-2,2-3.62,3.69-4.58,1.69,1,3.69,2.57,3.69,4.58a3.69,3.69,0,1,1-7.38,0M30,18.17a17,17,0,0,0-7.59,1.71A16.18,16.18,0,0,0,15,18.17a16.19,16.19,0,0,0-7.42,1.71A16.92,16.92,0,0,0,0,18.17v1.71A15,15,0,0,1,5.7,21C3.85,22.21,2,24.08,2,26.46A5.6,5.6,0,0,0,7.58,32,5.49,5.49,0,0,0,13,26.46c0-2.38-1.7-4.25-3.56-5.49a14.65,14.65,0,0,1,11.09,0C18.68,22.21,17,24.08,17,26.46A5.49,5.49,0,0,0,22.41,32a5.56,5.56,0,0,0,5.52-5.52c0-2.38-1.79-4.25-3.64-5.49A15.05,15.05,0,0,1,30,19.88Z"/><path class="cls-3" d="M4.94,2.59l-.3.06A17.55,17.55,0,0,1,2.87,3V4.68A7.08,7.08,0,0,1,5,4.32a3.39,3.39,0,0,1,1.77.42,2.06,2.06,0,0,1-1,3.84A1.47,1.47,0,0,1,4.24,7.45a3.65,3.65,0,0,1-.12-1.13,2.17,2.17,0,0,0,.66-.26,3,3,0,0,0,0,.39c0,1,.3,1.47,1,1.47A1.33,1.33,0,0,0,7.13,6.51c0-1-.83-1.59-2.14-1.59a6.75,6.75,0,0,0-2.12.39v2.5c0,.54-.24.8-.73.8A2.64,2.64,0,0,1,.49,8,1.21,1.21,0,0,1,0,7,1.81,1.81,0,0,1,.82,5.7a5.35,5.35,0,0,1,1.41-.82V3l-.4,0H.25V2.36a5.66,5.66,0,0,0,1,.07c.27,0,.66,0,1,0v-1a6.64,6.64,0,0,0,0-.95h.74a5.72,5.72,0,0,0,0,.93v1a10.11,10.11,0,0,0,2-.43Zm-2.71,3C1.24,6,.68,6.56.68,7c0,.21.14.41.43.6A1.87,1.87,0,0,0,2,7.93c.2,0,.23-.06.23-.49ZM7.72,3.66a8.19,8.19,0,0,0-2-2l.52-.39a8.4,8.4,0,0,1,2,1.9Z"/><path class="cls-3" d="M11.54,1.63A7.85,7.85,0,0,1,10,3.56a1.18,1.18,0,0,0-.47-.44A6.79,6.79,0,0,0,11.41.59,2,2,0,0,0,11.6,0l.71.16a2.3,2.3,0,0,0-.17.35c-.09.18-.13.27-.28.54h4.92A8.24,8.24,0,0,0,18,1V1.7a7.19,7.19,0,0,0-1.26-.07ZM15.38,8.8a16.81,16.81,0,0,0-2-1.74,10.67,10.67,0,0,1-3.13,2,1.68,1.68,0,0,0-.48-.55,9.65,9.65,0,0,0,3.1-1.87A19.09,19.09,0,0,0,11,5.45l.43-.4a18.55,18.55,0,0,1,1.91,1.21,5.12,5.12,0,0,0,1.12-1.55l.64.37L15,5.25l-.25.34a10.54,10.54,0,0,1-.86,1,23.39,23.39,0,0,1,2,1.65ZM11.14,4.46a7.22,7.22,0,0,0-1,.06V3.84A6,6,0,0,0,11,3.9h4.79a7.88,7.88,0,0,0,1.13,0,7.81,7.81,0,0,0,0,.85,9.27,9.27,0,0,0,.37,2.91c.14.4.39.79.5.79s.3-.75.36-1.67a1.51,1.51,0,0,0,.55.39,5.84,5.84,0,0,1-.27,1.37c-.13.42-.35.65-.6.65s-.88-.59-1.15-1.4a10.87,10.87,0,0,1-.38-3.28Zm.17-2a4.66,4.66,0,0,0,.87,0h4.05a5.47,5.47,0,0,0,1-.06V3.1a5.07,5.07,0,0,0-1-.06h-4a5.87,5.87,0,0,0-.93,0Z"/><path class="cls-3" d="M22,8.21a6.81,6.81,0,0,0,.06,1h-.68a7.24,7.24,0,0,0,.06-1.05V7.55h-.89a4.7,4.7,0,0,0-.91.06V7a5.6,5.6,0,0,0,.91,0h.89v-.9h-.52a9.25,9.25,0,0,0-1,0,10.08,10.08,0,0,0,0-1V3.63a9.58,9.58,0,0,0,0-1,8.22,8.22,0,0,0,1,0h.52V1.76h-.85a5.9,5.9,0,0,0-.91.05V1.18a4.47,4.47,0,0,0,.91.06h.85a6.52,6.52,0,0,0-.06-1h.68A6.52,6.52,0,0,0,22,1.24h.68a4.42,4.42,0,0,0,.9-.06v.63a5.61,5.61,0,0,0-.9-.05H22v.89h.52a8.72,8.72,0,0,0,1,0,8.34,8.34,0,0,0,0,1V5.12a9.48,9.48,0,0,0,0,1,9.26,9.26,0,0,0-1,0H22V7h.93a4.87,4.87,0,0,0,.86,0v.63a4.39,4.39,0,0,0-.87-.06H22ZM20.5,3.14v1h.93v-1Zm0,1.42V5.64h.93V4.56Zm2.44-.46v-1H22v1Zm0,1.54V4.56H22V5.64Zm4.41.27a5,5,0,0,0,.88,0v.66a5.4,5.4,0,0,0-.89,0h-1.1V8.28h1.37a6.19,6.19,0,0,0,1-.06v.69a6.46,6.46,0,0,0-1-.06H24.3a6.61,6.61,0,0,0-1,.06V8.22a5.09,5.09,0,0,0,1,.06h1.36V6.47h-.79a5.52,5.52,0,0,0-.91,0V5.86a5.51,5.51,0,0,0,.92,0h.78V5.47a5.52,5.52,0,0,0-.06-1h.72a5.33,5.33,0,0,0-.06,1v.44Zm.74-4.78a3.37,3.37,0,0,0-.27.39,7.8,7.8,0,0,1-1.36,1.7,6.83,6.83,0,0,0,2.26,1.13,1.79,1.79,0,0,0-.35.57A7.78,7.78,0,0,1,26,3.6a8.52,8.52,0,0,1-2.15,1.3,1.37,1.37,0,0,0-.39-.52,7.33,7.33,0,0,0,2.13-1.16A5.74,5.74,0,0,1,24.33,1.3a5.9,5.9,0,0,0-.62,0V.7a5.27,5.27,0,0,0,.88.06H27a3.62,3.62,0,0,0,.68-.05Zm-3.15.17A4.57,4.57,0,0,0,26,2.86,6.49,6.49,0,0,0,27.28,1.3Z"/><path class="cls-3" d="M31.77.83a14.21,14.21,0,0,0-.42,1.6,14.78,14.78,0,0,0-.3,3.13c0,.78,0,1.37.06,1.9a9.29,9.29,0,0,1,.65-1.95l.48.23a8.72,8.72,0,0,0-.81,2.75v.15l-.72.06c0-.16,0-.21-.06-.4a14.33,14.33,0,0,1-.26-2.83,16.54,16.54,0,0,1,.45-4A5.57,5.57,0,0,0,31,.71Zm2.55,4a2.32,2.32,0,0,0-.75,1.47c0,.74.63,1.1,1.92,1.1a6.58,6.58,0,0,0,2.3-.35l.1.77-.35,0a10.32,10.32,0,0,1-2,.2,2.78,2.78,0,0,1-2.29-.76,1.41,1.41,0,0,1-.3-.92,2.76,2.76,0,0,1,.87-1.86Zm-1.27-3a6.79,6.79,0,0,0,1.7.15,10.73,10.73,0,0,0,2.68-.27l0,.71-.69.09a16.88,16.88,0,0,1-2.15.13A13.32,13.32,0,0,1,33,2.6Z"/><path class="cls-3" d="M44.94,2.59l-.3.06a17.55,17.55,0,0,1-1.77.3V4.68A7.08,7.08,0,0,1,45,4.32a3.39,3.39,0,0,1,1.77.42,2.06,2.06,0,0,1-1,3.84,1.47,1.47,0,0,1-1.54-1.13,3.65,3.65,0,0,1-.12-1.13,2.17,2.17,0,0,0,.66-.26,3,3,0,0,0,0,.39c0,1,.3,1.47,1,1.47a1.33,1.33,0,0,0,1.34-1.41c0-1-.83-1.59-2.14-1.59a6.75,6.75,0,0,0-2.12.39v2.5c0,.54-.24.8-.73.8A2.64,2.64,0,0,1,40.49,8,1.21,1.21,0,0,1,40,7a1.81,1.81,0,0,1,.79-1.33,5.35,5.35,0,0,1,1.41-.82V3l-.4,0H40.25V2.36a5.66,5.66,0,0,0,1,.07c.27,0,.66,0,1,0v-1a6.64,6.64,0,0,0,0-.95h.74a5.72,5.72,0,0,0-.05.93v1a10.11,10.11,0,0,0,2-.43Zm-2.71,3c-1,.48-1.55,1-1.55,1.5,0,.21.14.41.43.6a1.87,1.87,0,0,0,.89.29c.2,0,.23-.06.23-.49Zm5.49-1.88a8.19,8.19,0,0,0-2-2l.52-.39a8.4,8.4,0,0,1,2,1.9Z"/><path class="cls-3" d="M50.67,8.08a6.8,6.8,0,0,0,.06,1.11H50a7.32,7.32,0,0,0,.06-1.11V1.59c0-.49,0-.78,0-1.1a9.17,9.17,0,0,0,1,0h1.43a8.77,8.77,0,0,0,1,0c0,.3,0,.56,0,1V2.78c0,.4,0,.68,0,.92-.22,0-.6,0-1,0H50.67Zm0-6.24H52.9V1H50.67Zm0,1.33H52.9V2.33H50.67Zm5.14,3.62a5.09,5.09,0,0,0,0,.6,5.78,5.78,0,0,0-.63,0h-2.4v.79h-.65a6.19,6.19,0,0,0,.05-.93v-2a6.19,6.19,0,0,0,0-.63,6.87,6.87,0,0,0,.69,0h2.24a7.18,7.18,0,0,0,.73,0,5.66,5.66,0,0,0,0,.61Zm-3,0h2.41V5.15H52.81Zm5.26,1.4c0,.65-.19.83-.88.83-.39,0-.75,0-1.19,0a1.9,1.9,0,0,0-.18-.64,11.35,11.35,0,0,0,1.27.1c.29,0,.36-.06.36-.29V3.67h-2c-.42,0-.8,0-1,0,0-.29,0-.55,0-.92V1.44c0-.35,0-.65,0-.95a8.77,8.77,0,0,0,1,0h1.62a9.37,9.37,0,0,0,1,0,9.36,9.36,0,0,0,0,1.1ZM55,1.84h2.41V1H55Zm0,1.33h2.41V2.33H55Z"/><path class="cls-3" d="M61.24,1.43a7.25,7.25,0,0,0-.07,1.19,17.12,17.12,0,0,0,.26,3.11c.22,1,.63,1.71,1,1.71.18,0,.35-.17.5-.5a7.19,7.19,0,0,0,.52-1.71,3.2,3.2,0,0,0,.59.57c-.49,1.75-.95,2.42-1.66,2.42S61.31,7.66,61,6.7A15,15,0,0,1,60.43,2a5.41,5.41,0,0,0,0-.59ZM66.07,2A8.68,8.68,0,0,1,67.5,4.24a9.58,9.58,0,0,1,.75,2.67l-.71.29a8.83,8.83,0,0,0-2.08-4.93Z"/><path class="cls-3" d="M74.38.22A6.87,6.87,0,0,0,76,2a10.49,10.49,0,0,0,2.74,1.64,2.59,2.59,0,0,0-.4.63,14,14,0,0,1-2.82-1.84A8.4,8.4,0,0,1,74,.78,9.32,9.32,0,0,1,71.91,3a11.56,11.56,0,0,1-2.12,1.3,1.74,1.74,0,0,0-.42-.57A10.43,10.43,0,0,0,72.09,2,7.27,7.27,0,0,0,73.63.22ZM70.89,9.15a7,7,0,0,0,.06-1V6a6.29,6.29,0,0,0,0-.92,5.3,5.3,0,0,0,.78,0h4.69a5.3,5.3,0,0,0,.78,0A6,6,0,0,0,77.1,6V8.18a6.7,6.7,0,0,0,.06,1h-.72V8.58H71.61v.57ZM71.61,8h4.83V5.7H71.61Zm.07-4.73a5.11,5.11,0,0,0,.79,0h3.1a6,6,0,0,0,.84,0v.68a6.16,6.16,0,0,0-.84,0H72.46a5.75,5.75,0,0,0-.78,0Z"/><path class="cls-3" d="M79.8,6.31a7.4,7.4,0,0,0,.86-.74l.68-.63.29-.26c0-.83,0-.92.05-1.77l-.51,0a8.73,8.73,0,0,0-1.1.12l0-.69h.28c.15,0,.57,0,1.39-.08,0-.62,0-1,0-1.39a1.8,1.8,0,0,0,0-.39h.79a6.27,6.27,0,0,0-.1,1.16c0,.34,0,.34,0,.57a.58.58,0,0,0,.23-.06l.26.33a3,3,0,0,0-.53.65c0,.65,0,1,0,1h0l0,0a5.48,5.48,0,0,1,.58-.51,3.89,3.89,0,0,1,2.53-1,2.53,2.53,0,0,1,2.69,2.6,2.84,2.84,0,0,1-3,3,5,5,0,0,1-1.7-.3,1.31,1.31,0,0,0,0-.17,2.46,2.46,0,0,0-.08-.58,4.38,4.38,0,0,0,1.77.39,2.23,2.23,0,0,0,2-1.13,2.53,2.53,0,0,0,.28-1.2,1.83,1.83,0,0,0-1.91-2c-1,0-1.88.47-3.19,1.65,0,3,0,3.51.06,4h-.79a10.68,10.68,0,0,0,0-1.89c0-1.22,0-1.3,0-1.54h0a2.81,2.81,0,0,1-.52.55,8.52,8.52,0,0,0-.9,1Z"/><path class="cls-3" d="M92.41.9A11.57,11.57,0,0,0,92.32,3c1.62-.09,2-.11,3.27-.16V2.55c0-.11,0-.22,0-.34A9.58,9.58,0,0,0,95.54.69h.77a5.41,5.41,0,0,0,0,.77V2.8c1,0,1.76,0,2.09-.09l0,.71c-.27,0-.33,0-.75,0H96.24a9.51,9.51,0,0,1-.18,2,1,1,0,0,1-1,.88,2.87,2.87,0,0,1-1.39-.46c0-.15,0-.2,0-.3s0-.21,0-.41A2.84,2.84,0,0,0,95,5.63c.28,0,.4-.16.49-.65a9.09,9.09,0,0,0,.12-1.54c-1.21,0-1.93.08-3.26.17v.9A15.33,15.33,0,0,0,92.42,7a.86.86,0,0,0,.67.65,5.56,5.56,0,0,0,1.56.17,9.07,9.07,0,0,0,2.78-.37l.08.77-.4.05a17,17,0,0,1-2.53.21c-1.78,0-2.54-.34-2.8-1.24a10.55,10.55,0,0,1-.13-2.37V3.65a20.15,20.15,0,0,0-2,.21l-.06-.7h.22c.18,0,.8,0,1.85-.13V2.39A10.63,10.63,0,0,0,91.6.9Z"/><path class="cls-3" d="M105.93,1c-.11.09-.19.16-1.23,1.16A29.13,29.13,0,0,1,102.4,4c-.37.28-.44.36-.44.5s.08.25.89.88a29.48,29.48,0,0,1,3.2,2.73,2.55,2.55,0,0,0,.28.25L105.7,9a9.44,9.44,0,0,0-1.29-1.37c-.67-.62-1.07-1-2.53-2.09-.56-.44-.72-.66-.72-1a1,1,0,0,1,.29-.67,7.73,7.73,0,0,1,.85-.68A15.9,15.9,0,0,0,105.23.45Z"/><path class="cls-3" d="M110.06,2.23a6.9,6.9,0,0,0,1.25.09c.2,0,.31,0,.6,0a12.33,12.33,0,0,0,.22-1.77V.46l.79.08c0,.16,0,.21-.08.35s0,.26-.1.6-.08.49-.13.76a8.13,8.13,0,0,0,1.8-.34l0,.69h-.1l-.18,0a13.34,13.34,0,0,1-1.69.24,26.74,26.74,0,0,1-1.85,5.88l-.73-.31a20.35,20.35,0,0,0,1.88-5.53h-.69c-.35,0-.44,0-.83,0h-.21Zm4.47,3.63a3.35,3.35,0,0,0-.3.38A1.2,1.2,0,0,0,114,7c0,.6.61.92,1.75.92a7.43,7.43,0,0,0,2.21-.34l.07.75-.13,0-.31.06a11,11,0,0,1-1.78.16c-1.64,0-2.49-.51-2.49-1.5,0-.45.14-.76.67-1.44Zm3.09-1.73a10,10,0,0,0-1.18-.07,8.7,8.7,0,0,0-2.5.34l-.07-.68a11.33,11.33,0,0,1,2.65-.33l1.09,0ZM116.12.62a7.59,7.59,0,0,1,1,1.55l-.5.3a7.32,7.32,0,0,0-1-1.58Zm1.13-.54a8,8,0,0,1,1,1.55l-.5.29a7.49,7.49,0,0,0-1-1.57Z"/><path class="cls-3" d="M120.51,2.49a4.38,4.38,0,0,0,.77,0,23.34,23.34,0,0,0,3-.21c-.15-.34-.31-.74-.49-1.19-.11-.26-.17-.4-.26-.58l.79-.11a3.19,3.19,0,0,0,.29.9,8.23,8.23,0,0,0,.36.88,11.7,11.7,0,0,0,2.42-.63l.1.71-.59.14c-.6.16-.72.19-1.35.31l-.34.07A18.52,18.52,0,0,0,127,5.74l-.67.38a2,2,0,0,0-.69-.41,5.42,5.42,0,0,0-1.75-.26,3.54,3.54,0,0,0-1.9.42,1.14,1.14,0,0,0-.54.93,1,1,0,0,0,.38.78,3.39,3.39,0,0,0,2,.46,6.59,6.59,0,0,0,2.84-.64l.11.77a8.29,8.29,0,0,1-2.94.54,3.67,3.67,0,0,1-2.6-.75,1.61,1.61,0,0,1-.45-1.1,1.87,1.87,0,0,1,1.13-1.63,4.25,4.25,0,0,1,1.94-.37,5,5,0,0,1,2.07.36,12.19,12.19,0,0,1-1.2-2c-.11-.21-.11-.23-.17-.33a29.44,29.44,0,0,1-3.56.26,2.21,2.21,0,0,0-.39,0Z"/><path class="cls-3" d="M131.24,1.43a7.25,7.25,0,0,0-.07,1.19,17.12,17.12,0,0,0,.26,3.11c.22,1,.63,1.71,1,1.71.18,0,.35-.17.5-.5a7.19,7.19,0,0,0,.52-1.71,3.2,3.2,0,0,0,.59.57c-.49,1.75-1,2.42-1.66,2.42-.56,0-1.08-.56-1.42-1.52A15,15,0,0,1,130.43,2a5.41,5.41,0,0,0,0-.59Zm4.83.53a8.68,8.68,0,0,1,1.43,2.28,9.58,9.58,0,0,1,.75,2.67l-.71.29a8.83,8.83,0,0,0-2.08-4.93Z"/><path class="cls-3" d="M141.68,10.09A7.86,7.86,0,0,1,140.62,8a8.14,8.14,0,0,1-.41-2.6,8.14,8.14,0,0,1,.41-2.6A8.17,8.17,0,0,1,141.68.73l.63.4a7.09,7.09,0,0,0-1,2A7.36,7.36,0,0,0,141,5.41a7.43,7.43,0,0,0,.34,2.27,7.05,7.05,0,0,0,1,2Z"/><path class="cls-3" d="M144.29,8.45a7.16,7.16,0,0,0-1.1.05,4.59,4.59,0,0,1,.29-1.32,4.39,4.39,0,0,1,1.3-1.72,13.58,13.58,0,0,1,1.53-1.1c1-.67,1.32-1.11,1.32-1.72,0-.76-.64-1.25-1.66-1.25a1.65,1.65,0,0,0-1.45.65,2,2,0,0,0-.35,1l-.84-.14A2.72,2.72,0,0,1,144,1.47a2.56,2.56,0,0,1,2-.77c1.51,0,2.48.76,2.48,1.94a2.09,2.09,0,0,1-.59,1.42,7.88,7.88,0,0,1-1.7,1.29,5.45,5.45,0,0,0-1.44,1.23,2.8,2.8,0,0,0-.57,1.16h3.19a8.73,8.73,0,0,0,1.22-.07v.84a11.25,11.25,0,0,0-1.23-.06Z"/><path class="cls-3" d="M149.48,5.8l.65-.77,2.53-3.16a11.28,11.28,0,0,0,.75-1h.75a16.59,16.59,0,0,0-.06,1.69V5.82h.38a6.72,6.72,0,0,0,1-.07v.83a6.85,6.85,0,0,0-1.05-.07h-.37v.86a5.73,5.73,0,0,0,.08,1.08h-.91a5.8,5.8,0,0,0,.08-1.08V6.51h-2.68c-.56,0-.86,0-1.19,0Zm3.88-2.51a12.16,12.16,0,0,1,.06-1.36c-.21.3-.46.63-.75,1l-2.3,2.9h3Z"/><path class="cls-3" d="M156.75,1.73a8.28,8.28,0,0,0,0-1,9,9,0,0,0,.92,0h.74a8.59,8.59,0,0,0,.9,0,7.41,7.41,0,0,0,0,1V7.23c0,.48,0,.74,0,1h-.62v-.5h-1.31v.82h-.65a8,8,0,0,0,.06-1.06Zm.59,2.11h1.31V1.36h-1.31Zm0,3.29h1.31V4.38h-1.31ZM160.83,2a8.72,8.72,0,0,0-1,.05V1.36a5.87,5.87,0,0,0,.95.06h1.06V1.1a5.13,5.13,0,0,0-.06-.81h.74a4.87,4.87,0,0,0-.06.81v.32h1.42a6,6,0,0,0,1-.06V2a8.25,8.25,0,0,0-1-.05H162.5v1.3h1.77a6.55,6.55,0,0,0,1-.06v.67a6.42,6.42,0,0,0-1-.06H164V5h.31a6.12,6.12,0,0,0,1-.06v.69a6.66,6.66,0,0,0-1-.06H164v2.8c0,.64-.22.79-1.15.79l-.9-.05a1.78,1.78,0,0,0-.16-.65,7.26,7.26,0,0,0,1.14.12c.38,0,.45,0,.45-.26V5.56h-2.82a7.46,7.46,0,0,0-1,.06V4.93a6.37,6.37,0,0,0,1,.06h2.81V3.82h-2.81a7.31,7.31,0,0,0-1,.06V3.21a6.64,6.64,0,0,0,1,.06h1.33V2Zm.77,6a9.08,9.08,0,0,0-1.39-1.68L160.7,6a10.76,10.76,0,0,1,1.44,1.63Z"/><path class="cls-3" d="M167.37,8.1a7,7,0,0,0,.06,1.11h-.74a7.23,7.23,0,0,0,.06-1.11V1.64c0-.49,0-.78,0-1.1a9.26,9.26,0,0,0,1,0h1.43a8.77,8.77,0,0,0,1,0c0,.28,0,.58,0,1V2.73c0,.4,0,.68,0,.93-.27,0-.61,0-1,0h-1.83Zm0-6.23h2.24v-.8h-2.24Zm0,1.28h2.24V2.34h-2.24Zm5.25,3.79c0,.38,0,.65,0,.91-.28,0-.61,0-1,0h-2.19v.7h-.62a6.17,6.17,0,0,0,.05-.94V5.36c0-.36,0-.65,0-.94a9,9,0,0,0,1,0h1.83a8.86,8.86,0,0,0,1,0c0,.28,0,.54,0,.94Zm-3.18-1.09h2.61V5h-2.61Zm0,1.47h2.61v-1h-2.61Zm5.36.93c0,.66-.21.83-1,.83-.21,0-.75,0-1,0a2.3,2.3,0,0,0-.18-.64,10.87,10.87,0,0,0,1.1.1c.41,0,.49-.05.49-.29V3.63h-2.05c-.42,0-.74,0-1,0,0-.26,0-.56,0-.93V1.49c0-.35,0-.65,0-.95a8.66,8.66,0,0,0,1,0h1.65a9.26,9.26,0,0,0,1,0,9.46,9.46,0,0,0,0,1.1Zm-3.07-6.38h2.46v-.8h-2.46Zm0,1.28h2.46V2.34h-2.46Z"/><path class="cls-3" d="M183.73,5.05a2.94,2.94,0,0,0-.34.36,9.11,9.11,0,0,1-2,1.92,10.51,10.51,0,0,0,3.95,1.24,3.24,3.24,0,0,0-.36.64,10,10,0,0,1-4.17-1.51,11.85,11.85,0,0,1-4.07,1.49,2.62,2.62,0,0,0-.36-.62,10.8,10.8,0,0,0,3.89-1.26,6.61,6.61,0,0,1-1.79-2.13,6.92,6.92,0,0,0-.74.06V4.57a6.49,6.49,0,0,0,1,.06h3.72a4.78,4.78,0,0,0,.88,0Zm-5.28-2.12a8.48,8.48,0,0,0-.53-1.34l-.89,0A1.75,1.75,0,0,0,176.8,1a32.1,32.1,0,0,0,4.68-.29A10.37,10.37,0,0,0,184.1.15l.44.59-.4.09a28.2,28.2,0,0,1-3.42.57,9.87,9.87,0,0,1,.53,1.53h1.16a8.39,8.39,0,0,0,.84-1.78l.65.23a16.94,16.94,0,0,1-.81,1.55h.85a10.66,10.66,0,0,0,1.14,0,5.92,5.92,0,0,0,0,.76V4.3a2.94,2.94,0,0,0,.05.62h-.68V3.52h-7.24V5h-.68a5,5,0,0,0,0-.71V3.63c0-.26,0-.48,0-.75a9.38,9.38,0,0,0,1.23.05Zm2.18,0a9.18,9.18,0,0,0-.53-1.47c-.5,0-.84.07-1.57.1a9.55,9.55,0,0,1,.56,1.37Zm-1.5,2.25A5.45,5.45,0,0,0,180.8,7a7.85,7.85,0,0,0,2-1.8Z"/><path class="cls-3" d="M188.39,8.05c0,.46,0,.84.05,1.18h-.75a9.83,9.83,0,0,0,.06-1.2V4.69c0-.44,0-.75,0-1.21A8.36,8.36,0,0,1,186.67,5l-.07-.11a1.54,1.54,0,0,0-.37-.44,9.87,9.87,0,0,0,2-3,5.51,5.51,0,0,0,.44-1.28l.72.23a4.1,4.1,0,0,0-.25.57c-.14.35-.46,1-.76,1.61Zm5.41.12c0,.66-.21.81-1.11.81-.39,0-.77,0-1.21-.05a2.22,2.22,0,0,0-.19-.68,8.19,8.19,0,0,0,1.37.12c.41,0,.5,0,.5-.26V3.17H190a7.74,7.74,0,0,0-1.07.06v-.7a7.37,7.37,0,0,0,1,.06h3.17V1.44a7.46,7.46,0,0,0-.07-1.17h.77a9.53,9.53,0,0,0-.06,1.17V2.59h.49a6.13,6.13,0,0,0,1-.06v.68c-.31,0-.63,0-1,0h-.49Zm-3.67-4.11a12.68,12.68,0,0,1,1.69,2.26l-.56.43a10.22,10.22,0,0,0-1.65-2.33Z"/><path class="cls-3" d="M200.37,1.21a5.76,5.76,0,0,0-.07-1h.8a6,6,0,0,0-.07,1v.88H204a5.35,5.35,0,0,0,.76,0,4.77,4.77,0,0,0-.05.79V5.55a6.33,6.33,0,0,0,.06.89H204V5.76h-3V8.09a5.65,5.65,0,0,0,.07,1.14h-.8a6.89,6.89,0,0,0,.07-1.14V5.76h-2.82v.68h-.72a6.33,6.33,0,0,0,.06-.89V2.82a6.3,6.3,0,0,0,0-.79,5.47,5.47,0,0,0,.75,0h2.78Zm-2.82,1.46V5.16h2.82V2.67ZM204,5.16V2.67h-3V5.16Z"/><path class="cls-3" d="M206.69.73a8.17,8.17,0,0,1,1.06,2.08,7.87,7.87,0,0,1,.41,2.6,7.92,7.92,0,0,1-1.47,4.68l-.63-.4a7.05,7.05,0,0,0,1-2,7.38,7.38,0,0,0,.34-2.27,7.32,7.32,0,0,0-.34-2.26,7.09,7.09,0,0,0-1-2Z"/><path class="cls-4" d="M51,30.49a5.53,5.53,0,0,1-2.18,2.61,7,7,0,0,1-6.65,0A5.56,5.56,0,0,1,40,30.49a10.73,10.73,0,0,1-.79-4.42V22.79A10.85,10.85,0,0,1,40,18.38a5.49,5.49,0,0,1,2.19-2.59,7,7,0,0,1,6.65,0A5.49,5.49,0,0,1,51,18.38a10.85,10.85,0,0,1,.78,4.41v3.28A10.91,10.91,0,0,1,51,30.49ZM47.32,19a2.2,2.2,0,0,0-3.68,0A6.27,6.27,0,0,0,43,22.27v4.31a6.41,6.41,0,0,0,.63,3.29,2.06,2.06,0,0,0,1.86,1,2,2,0,0,0,1.83-1,6.55,6.55,0,0,0,.61-3.29V22.27A6.39,6.39,0,0,0,47.32,19Z"/><path class="cls-4" d="M59.1,33.69v-14L54.76,21V17.94l7.77-2.75h.39v18.5Z"/><path class="cls-4" d="M67.85,33.69V31.06l6-6.32a14.08,14.08,0,0,0,1.81-2.38,3.72,3.72,0,0,0,.54-1.76,2.78,2.78,0,0,0-.6-1.9A2.2,2.2,0,0,0,73.87,18a2.4,2.4,0,0,0-1.37.39,2.57,2.57,0,0,0-.88,1.09,3.89,3.89,0,0,0-.3,1.57H67.48a6.13,6.13,0,0,1,.8-3.09,5.8,5.8,0,0,1,2.27-2.23,7,7,0,0,1,3.39-.81,8,8,0,0,1,3.32.62,4.51,4.51,0,0,1,2,1.82,5.48,5.48,0,0,1,.7,2.85,5.81,5.81,0,0,1-.49,2.34,10.06,10.06,0,0,1-1.37,2.25c-.59.75-1.35,1.61-2.3,2.6l-3,3.18h7.77v3.09Z"/><path class="cls-4" d="M95.52,30.49a5.58,5.58,0,0,1-2.18,2.61,7,7,0,0,1-6.65,0,5.58,5.58,0,0,1-2.21-2.61,10.9,10.9,0,0,1-.78-4.42V22.79a10.85,10.85,0,0,1,.78-4.41,5.49,5.49,0,0,1,2.19-2.59,7,7,0,0,1,6.65,0,5.49,5.49,0,0,1,2.19,2.59,10.85,10.85,0,0,1,.78,4.41v3.28A11.09,11.09,0,0,1,95.52,30.49ZM91.83,19A2,2,0,0,0,90,18a2,2,0,0,0-1.84,1,6.39,6.39,0,0,0-.62,3.25v4.31a6.41,6.41,0,0,0,.63,3.29,2.06,2.06,0,0,0,1.86,1,2,2,0,0,0,1.83-1,6.66,6.66,0,0,0,.61-3.29V22.27A6.27,6.27,0,0,0,91.83,19Z"/><path class="cls-4" d="M99.13,27.3V24.19h7.26V27.3Z"/><path class="cls-4" d="M118.56,15.86a6,6,0,0,1,2.23,2.63,9.42,9.42,0,0,1,.79,4v1.36a12.1,12.1,0,0,1-1.11,5.38,7.89,7.89,0,0,1-3.24,3.47,10.35,10.35,0,0,1-5.15,1.2h-.3V30.69H112a6.52,6.52,0,0,0,4-1.07,4.44,4.44,0,0,0,1.63-3.25,5,5,0,0,1-1.52,1,4.45,4.45,0,0,1-1.77.36,5.24,5.24,0,0,1-2.91-.79,5.09,5.09,0,0,1-1.86-2.2A7.87,7.87,0,0,1,109,21.5a7.05,7.05,0,0,1,.79-3.3,6,6,0,0,1,5.47-3.26A5.9,5.9,0,0,1,118.56,15.86Zm-1.76,8.55a2.78,2.78,0,0,0,1-1V21.78a4.75,4.75,0,0,0-.69-2.79,2.11,2.11,0,0,0-1.81-1,1.92,1.92,0,0,0-1.29.49,3,3,0,0,0-.84,1.28,4.62,4.62,0,0,0-.3,1.67,4.05,4.05,0,0,0,.66,2.4,2.17,2.17,0,0,0,1.9.94A2.51,2.51,0,0,0,116.8,24.41Z"/><path class="cls-4" d="M134.45,22.11a5.2,5.2,0,0,1,1.79,2.27,8.18,8.18,0,0,1,.6,3.2,6.73,6.73,0,0,1-.78,3.25,5.66,5.66,0,0,1-2.22,2.28,6.95,6.95,0,0,1-6.73-.08,6.15,6.15,0,0,1-2.32-2.59,8.73,8.73,0,0,1-.82-3.89V25.08a11.51,11.51,0,0,1,1.17-5.31,8.52,8.52,0,0,1,3.33-3.55,9.86,9.86,0,0,1,5-1.25H134v3.17h-.22a6.36,6.36,0,0,0-4.05,1.21,5,5,0,0,0-1.87,3.43,5.08,5.08,0,0,1,1.62-1.11,5.23,5.23,0,0,1,2.09-.4A4.78,4.78,0,0,1,134.45,22.11Zm-2.64,8.31a2.67,2.67,0,0,0,.89-1.15,4.2,4.2,0,0,0,.32-1.66,4.31,4.31,0,0,0-.32-1.71,2.61,2.61,0,0,0-.93-1.15,2.4,2.4,0,0,0-1.39-.41,2.78,2.78,0,0,0-1.57.45,2.83,2.83,0,0,0-1,1.14v1.16a4.66,4.66,0,0,0,.71,2.8,2.31,2.31,0,0,0,2,.95A2.22,2.22,0,0,0,131.81,30.42Z"/><path class="cls-4" d="M150,22.11a5.18,5.18,0,0,1,1.78,2.27,8.18,8.18,0,0,1,.6,3.2,6.73,6.73,0,0,1-.78,3.25,5.7,5.7,0,0,1-2.21,2.28A7,7,0,0,1,142.6,33a6.19,6.19,0,0,1-2.31-2.59,8.73,8.73,0,0,1-.83-3.89V25.08a11.51,11.51,0,0,1,1.17-5.31A8.55,8.55,0,0,1,144,16.22,9.82,9.82,0,0,1,149,15h.56v3.17h-.23a6.36,6.36,0,0,0-4.05,1.21,5.12,5.12,0,0,0-1.87,3.43A5,5,0,0,1,145,21.67a5.18,5.18,0,0,1,2.08-.4A4.81,4.81,0,0,1,150,22.11Zm-2.65,8.31a2.69,2.69,0,0,0,.9-1.15,4.2,4.2,0,0,0,.31-1.66,4.31,4.31,0,0,0-.32-1.71,2.59,2.59,0,0,0-.92-1.15,2.43,2.43,0,0,0-1.4-.41,2.82,2.82,0,0,0-2.58,1.59v1.16a4.59,4.59,0,0,0,.72,2.8,2.29,2.29,0,0,0,2,.95A2.2,2.2,0,0,0,147.3,30.42Z"/><path class="cls-4" d="M154.75,27.3V24.19H162V27.3Z"/><path class="cls-4" d="M170.17,33.69v-14L165.83,21V17.94l7.77-2.75H174v18.5Z"/><path class="cls-4" d="M191.67,26a4.68,4.68,0,0,1,.77,2.65,5.08,5.08,0,0,1-.81,2.91,5,5,0,0,1-2.22,1.81,9,9,0,0,1-6.51,0,4.85,4.85,0,0,1-3.07-4.72,4.62,4.62,0,0,1,.78-2.65,5.12,5.12,0,0,1,2.13-1.81,4.81,4.81,0,0,1-1.84-1.67,4.33,4.33,0,0,1-.66-2.36,5.08,5.08,0,0,1,.75-2.81,4.66,4.66,0,0,1,2.09-1.77,8.15,8.15,0,0,1,6.14,0,4.71,4.71,0,0,1,2.09,1.77,5.08,5.08,0,0,1,.75,2.81,4.3,4.3,0,0,1-.66,2.36,4.93,4.93,0,0,1-1.84,1.69A5.22,5.22,0,0,1,191.67,26Zm-3.73,4.22a3,3,0,0,0,0-3.74,2.43,2.43,0,0,0-1.8-.67,2.37,2.37,0,0,0-1.78.67,2.56,2.56,0,0,0-.67,1.88,2.52,2.52,0,0,0,.67,1.85,2.69,2.69,0,0,0,3.59,0Zm-3.32-11.54a2.41,2.41,0,0,0-.55,1.68,2.58,2.58,0,0,0,.55,1.71,1.94,1.94,0,0,0,1.53.64,1.89,1.89,0,0,0,1.53-.64,2.54,2.54,0,0,0,.54-1.71,2.45,2.45,0,0,0-.55-1.68,2,2,0,0,0-1.53-.62A1.92,1.92,0,0,0,184.62,18.64Z"/><path class="cls-4" d="M200.41,33.69h-4l7.09-15.4h-9.09V15.2H207.5v2.14Z"/></svg>