<svg id="レイヤー_1" data-name="レイヤー 1" xmlns="http://www.w3.org/2000/svg" viewBox="0 0 470 329.97"><defs><style>.cls-1{fill:#fff;}.cls-2{fill:#333;}</style></defs><title>アートボード 1</title><circle class="cls-1" cx="90.3" cy="36" r="35"/><circle class="cls-1" cx="187.3" cy="36" r="35"/><circle class="cls-1" cx="284.31" cy="36" r="35"/><circle class="cls-1" cx="381.31" cy="36" r="35"/><rect class="cls-2" y="223.01" width="470" height="4"/><rect class="cls-2" y="325.97" width="470" height="4"/><path class="cls-2" d="M90.3,2a34,34,0,1,1-34,34,34,34,0,0,1,34-34m0-2a36,36,0,1,0,36,36,36,36,0,0,0-36-36Z"/><path class="cls-2" d="M77,31.42a13.72,13.72,0,0,0-1.93.09V29.75a14.06,14.06,0,0,0,2,.11h4.23a9.83,9.83,0,0,0-.11-1.44h2a8.06,8.06,0,0,0-.09,1.44h4.36a13.4,13.4,0,0,0,2.1-.11v1.76a18.22,18.22,0,0,0-2-.09H83.11v.89h3.34a15.35,15.35,0,0,0,1.78-.06,15.73,15.73,0,0,0-.07,1.62v3a11.58,11.58,0,0,0,.07,1.63,11.87,11.87,0,0,0-1.8-.08H84.51a11.34,11.34,0,0,0,5.56,2.74,10,10,0,0,0-.91,1.69,16.9,16.9,0,0,1-3.29-1.45,10.7,10.7,0,0,1-2.8-2.31c0,.53,0,.83,0,1.11v1.15a9.45,9.45,0,0,0,.11,1.82h-2a12.8,12.8,0,0,0,.11-1.82V40.16c0-.2,0-.79,0-1.09a10.26,10.26,0,0,1-3.06,2.53,17.25,17.25,0,0,1-2.73,1.23,6.92,6.92,0,0,0-.9-1.62,13.11,13.11,0,0,0,3-1.18A9.41,9.41,0,0,0,80,38.38H78.27a11.48,11.48,0,0,0-1.81.08,2.07,2.07,0,0,1,.05-.47c0-.06,0-.06,0-1.16V33.88a14.6,14.6,0,0,0-.07-1.65,10.55,10.55,0,0,0,1.75.08h3.15v-.89Zm1.2,2.27v1h3.14v-1Zm0,2.3v1h3.14V36Zm4.89-1.32h3.36v-1H83.11Zm0,2.33h3.36V36H83.11Z"/><path class="cls-2" d="M95.89,38.52A13,13,0,0,1,92,42.65a5.14,5.14,0,0,0-1.14-1.39A9.17,9.17,0,0,0,93,39.64a7.62,7.62,0,0,0,1.41-2Zm1.39-8.91a6.15,6.15,0,0,0-.1-1.17h2a6,6,0,0,0-.1,1.15v.48h4.58a11.53,11.53,0,0,0,1.87-.11v1.81a9.56,9.56,0,0,0-1.76-.1H92.89a9.34,9.34,0,0,0-1.72.1V30a11.66,11.66,0,0,0,1.92.11h4.19ZM94.4,37.4c-.7,0-1,0-1.44.05A9.15,9.15,0,0,0,93,36.19V33.9c0-.55,0-.84,0-.87s0-.09,0-.22a1.87,1.87,0,0,0,0-.21l.38,0c.15,0,.66,0,1.06,0h7.7a8.43,8.43,0,0,0,1.45-.06,11.34,11.34,0,0,0-.06,1.3v2.29c0,.56,0,.83.05,1.26-.37,0-.83-.05-1.46-.05h-2.8v4c0,1.24-.53,1.59-2.42,1.59l-1.29,0a4.76,4.76,0,0,0-.47-1.71,11.38,11.38,0,0,0,1.75.14c.54,0,.65-.06.65-.33V37.4Zm.32-1.58h7.07V34.17H94.72ZM102,37.69a8.34,8.34,0,0,0,1.59,1.91,9.83,9.83,0,0,0,2.21,1.52,6.56,6.56,0,0,0-1.14,1.53,13,13,0,0,1-2.38-2,15.93,15.93,0,0,1-1.67-2.08Z"/><path class="cls-2" d="M187.3,2a34,34,0,1,1-34,34,34,34,0,0,1,34-34m0-2a36,36,0,1,0,36,36,36,36,0,0,0-36-36Z"/><path class="cls-2" d="M169.88,37.39a6,6,0,0,0-.56,1,11.09,11.09,0,0,1-1.5-1.46v4.34a17.75,17.75,0,0,0,.09,1.89h-1.85a16.47,16.47,0,0,0,.09-1.89V37.47a14.12,14.12,0,0,1-1.71,1.6,6,6,0,0,0-.75-1.75A13.25,13.25,0,0,0,166,35.26a11.14,11.14,0,0,0,1.74-2.71h-2.18a10.61,10.61,0,0,0-1.34.08V30.92a6.44,6.44,0,0,0,1.2.08h.74V29.61a8.64,8.64,0,0,0-.1-1.24h1.87a7.8,7.8,0,0,0-.09,1.25V31h.38a3.61,3.61,0,0,0,.88-.06l.75.81-.24.5a15.83,15.83,0,0,1-1.5,2.85,10.79,10.79,0,0,0,1.79,1.58V32.33a14.7,14.7,0,0,0-.06-1.63,10.26,10.26,0,0,0,1.61.08h1.64v-.69a12,12,0,0,0-.1-1.7h1.86a11.92,11.92,0,0,0-.1,1.71v.68h1.88a10.47,10.47,0,0,0,1.63-.08,11.79,11.79,0,0,0-.07,1.63v5.39a17.48,17.48,0,0,0,.07,1.76h-1.71v-.81h-1.8v2.57a14.86,14.86,0,0,0,.1,2H173a13.27,13.27,0,0,0,.1-2V38.67H171.5v.88h-1.7a11.6,11.6,0,0,0,.08-1.72Zm1.57-5.06v1.6h1.62v-1.6Zm.05,3.07v1.73h1.57V35.4Zm5-1.47v-1.6h-1.76v1.6Zm0,3.2V35.4h-1.81v1.73Z"/><path class="cls-2" d="M190.59,35.26a9.37,9.37,0,0,0-1.41-.07h-3.75a9.39,9.39,0,0,0-1.4.07v-1a14.52,14.52,0,0,1-3.22,2,6.47,6.47,0,0,0-1.09-1.49,11.19,11.19,0,0,0,4.83-3.23h-2.37a19.12,19.12,0,0,0-2,.08V29.78a15,15,0,0,0,2,.1h3.35a5.19,5.19,0,0,0,.53-1.57l2.05.21a2.11,2.11,0,0,0-.24.5c-.18.38-.23.51-.39.86h4.73a15.77,15.77,0,0,0,2.09-.1v1.78c-.46,0-1.17-.08-2-.08h-2.33A9.94,9.94,0,0,0,195,34.63a7,7,0,0,0-1,1.62,11.83,11.83,0,0,1-3.42-2ZM185,39.07a14.25,14.25,0,0,1-3.68,3.77,7.92,7.92,0,0,0-1.26-1.37,8.51,8.51,0,0,0,3.37-3.2Zm-2.54-1a16.88,16.88,0,0,0-1.7.08V36.36a9.7,9.7,0,0,0,1.58.08h10a9.49,9.49,0,0,0,1.58-.08v1.76c-.54,0-1-.08-1.71-.08h-3.83v3.35c0,.8-.17,1.2-.61,1.44a4.82,4.82,0,0,1-1.69.22L185,43a6.13,6.13,0,0,0-.49-1.63,11.62,11.62,0,0,0,1.52.11c.54,0,.64-.06.64-.46V38Zm6.72-4.38c.32,0,.42,0,.72,0a9.88,9.88,0,0,1-1.79-2.16h-1.44a10.61,10.61,0,0,1-1.92,2.16c.28,0,.4,0,.68,0Zm1.9,4.61a8.47,8.47,0,0,0,3.59,3,9.49,9.49,0,0,0-1.2,1.51,12,12,0,0,1-3.86-3.76Z"/><path class="cls-2" d="M199.56,33.91a16.5,16.5,0,0,1-.88,6.37,11.67,11.67,0,0,1-1.55,2.84,7.34,7.34,0,0,0-1.49-1.51A7.64,7.64,0,0,0,197,39.23a8.57,8.57,0,0,0,.55-2.23c.06-.61.18-2.51.18-3.23V30.31a10.69,10.69,0,0,0-.12-1.68h2.07a8.74,8.74,0,0,0-.1,1.73Zm5.09-4.56a15.54,15.54,0,0,0-.09,1.84v8.2a17.39,17.39,0,0,0,.09,2H202.6a15.43,15.43,0,0,0,.1-2V31.19a12.23,12.23,0,0,0-.1-1.84Zm5.11-.72a11.48,11.48,0,0,0-.11,1.89V40.89a14.59,14.59,0,0,0,.11,2.15h-2.07a16.71,16.71,0,0,0,.1-2.15V30.52a11.93,11.93,0,0,0-.1-1.89Z"/><path class="cls-2" d="M284.31,2a34,34,0,1,1-34,34,34,34,0,0,1,34-34m0-2a36,36,0,1,0,36,36,36,36,0,0,0-36-36Z"/><path class="cls-2" d="M270.66,30.26a9.59,9.59,0,0,0-.1-1.63h1.88a9.05,9.05,0,0,0-.1,1.62v2.19h.18a4.9,4.9,0,0,0,1.1-.08v1.7a6.69,6.69,0,0,0-1.07-.07h-.21v4.29c.58-.27.78-.37,1.49-.73v1.73a34,34,0,0,1-4,1.82,3.42,3.42,0,0,0-.66.29l-.37-1.86a11.45,11.45,0,0,0,1.83-.54V34h-.42a7.86,7.86,0,0,0-1.23.08V32.36a6.87,6.87,0,0,0,1.23.08h.42Zm9.17,1.11a4.11,4.11,0,0,0,1.71,1.23,8.14,8.14,0,0,0,2.07.54,6.11,6.11,0,0,0-.74,1.25,6.49,6.49,0,0,0,.87-.09V36a8.06,8.06,0,0,0-1.27-.08v5.76a1.29,1.29,0,0,1-.53,1.23,3.41,3.41,0,0,1-1.73.24l-1.36,0a4.4,4.4,0,0,0-.36-1.65,15.62,15.62,0,0,0,1.64.1c.55,0,.68-.06.68-.35v-5.3h-5.73a12.39,12.39,0,0,0-1.76.1V34.3a6,6,0,0,0,1.21.09,4.26,4.26,0,0,0-.77-1.17A4.4,4.4,0,0,0,277,31.37h-1.52a10.43,10.43,0,0,0-1.57.08V29.83a11,11,0,0,0,1.67.1h1.94a7,7,0,0,0,0-.8,4.41,4.41,0,0,0,0-.66l1.82.05a5.63,5.63,0,0,0-.06.77,4.6,4.6,0,0,1-.05.64h2.26a12.38,12.38,0,0,0,1.79-.1v1.62a13.8,13.8,0,0,0-1.76-.08Zm-.14,8.55a10.09,10.09,0,0,0,0,1.13c-.43,0-.64,0-1,0h-2.61v1h-1.66c0-.3.05-.83.05-1.25V38a9.1,9.1,0,0,0-.05-1.22,10.51,10.51,0,0,0,1.18.05h2.95a10.38,10.38,0,0,0,1.18-.05,12.19,12.19,0,0,0,0,1.22Zm2.21-5.53a6.82,6.82,0,0,1-3.45-2.25,5.86,5.86,0,0,1-3.07,2.25Zm-5.82,5.16h2V38.19h-2Z"/><path class="cls-2" d="M287.89,31a19.44,19.44,0,0,0-2.11.09v-1.9a13.39,13.39,0,0,0,2.11.11h8.84a14.74,14.74,0,0,0,2.16-.11v1.9c-.66-.06-1.22-.09-2.12-.09h-3.69v3.33h3a16.55,16.55,0,0,0,1.86-.1v1.86a14.75,14.75,0,0,0-1.84-.08h-3v4.61h4.5a12.3,12.3,0,0,0,1.9-.1v1.92a15.17,15.17,0,0,0-2-.11H287.31a17.55,17.55,0,0,0-2.14.11V40.54a14,14,0,0,0,2.11.1h3.94V36h-2.58a15.59,15.59,0,0,0-2,.08V34.25a15,15,0,0,0,2,.1h2.58V31Zm7.76,5.42a27.81,27.81,0,0,1,2.41,2.87l-1.49,1.09a23.07,23.07,0,0,0-2.34-3Z"/><path class="cls-2" d="M381.31,2a34,34,0,1,1-34,34,34,34,0,0,1,34-34m0-2a36,36,0,1,0,36,36,36,36,0,0,0-36-36Z"/><path class="cls-2" d="M372.25,31.38c-2.25.26-2.81.31-4.69.39a4.84,4.84,0,0,0-.65-1.68A36.64,36.64,0,0,0,376.17,29a7,7,0,0,0,1.77-.67l1.2,1.6-1,.27a28.09,28.09,0,0,1-4,.93v3.34h4.55a11.25,11.25,0,0,0,1.85-.11v1.87a12.54,12.54,0,0,0-1.84-.11h-4.56v5.19a12,12,0,0,0,.11,2h-2.11a12.7,12.7,0,0,0,.11-2V36.12H368a12.71,12.71,0,0,0-1.82.11V34.36a11.66,11.66,0,0,0,1.82.11h4.29Z"/><path class="cls-2" d="M390.06,38.27h4.63a15.56,15.56,0,0,0,1.87-.1v1.59a14,14,0,0,0-1.87-.1h-3.23a12,12,0,0,0,5.42,1.86,6.16,6.16,0,0,0-.88,1.56,18,18,0,0,1-3.07-1A9.72,9.72,0,0,1,390,40.3v.1a1.18,1.18,0,0,0,0,.19c0,.09,0,.22,0,.38s0,.07,0,.37v.59a6,6,0,0,0,.09,1.36H388.3a7.18,7.18,0,0,0,.1-1.36v-.57c0-.24,0-.44,0-.63s0-.19,0-.43a12.15,12.15,0,0,1-5.63,2.8,4.77,4.77,0,0,0-.95-1.47,12.06,12.06,0,0,0,5.22-2h-3a14.12,14.12,0,0,0-1.87.1V38.17a14.83,14.83,0,0,0,1.87.1h4.35v-.85h-2.65c-.48,0-1,0-1.48,0,0-.45.05-.77.05-1.32V33.79h-.43a12.4,12.4,0,0,0-1.82.08V32.31a8.18,8.18,0,0,0,1.58.1h.67a4.7,4.7,0,0,0-.06-.91h1.66c0-.23,0-.44,0-.71h-2c-.77,0-1.35,0-1.86.08V29.3a13.56,13.56,0,0,0,1.86.1h2v-.18a3.77,3.77,0,0,0-.08-.86h1.81a7.05,7.05,0,0,0-.06.86v.18h3.25v-.18a5.51,5.51,0,0,0-.07-.86h1.81a6,6,0,0,0-.06.86v.18h2.11a13.08,13.08,0,0,0,1.86-.1v1.57c-.53-.05-1.09-.08-1.86-.08h-2.11a5.4,5.4,0,0,0,0,.74h1.7a3.61,3.61,0,0,0-.08.88h.49a12.17,12.17,0,0,0,1.83-.1v1.56a12.48,12.48,0,0,0-1.83-.08h-.49v.8a5.65,5.65,0,0,0,.06,1c-.43,0-1,0-1.49,0h-3.1c-.55,0-1,0-1.49,0a8.28,8.28,0,0,0,.05-.93v-.91H386v2.35h8.05a11.56,11.56,0,0,0,1.75-.08V37.5a11.37,11.37,0,0,0-1.73-.08h-4Zm-4-6.63c0,.19,0,.43,0,.77h2.23a5,5,0,0,0-.07-.88h1.72a5.27,5.27,0,0,0-.05.88h2.77c0-.34,0-.5,0-.77h-1.73a7.77,7.77,0,0,0,0-.85h-3.25a4.16,4.16,0,0,0,.05.85Zm3.8,2.72h2.77v-.57h-2.77Z"/><path class="cls-2" d="M21.82,260.27c-.71.22-.79.22-.93.49a55,55,0,0,1-3.21,6.69c1,.39,1.5.57,1.5,1,0,.18-.13.35-.53.57s-.53.27-.53.44v26.14H13.24V274.75a24.94,24.94,0,0,1-1.63,2.07l-4.4-2.95c4.49-4.57,7.17-10.47,9.06-16.59L21.2,259c.88.31,1.06.53,1.06.84S22.08,260.23,21.82,260.27Zm-1,33.76v-4.76H31.41v-8.75H23.23v-4.67h8.18v-7H21.34V264.1H31.85a19.42,19.42,0,0,0-4.49-4l4-3a28.71,28.71,0,0,1,6.34,5.59l-2,1.45H47.3v4.76H36.56v7H45v4.67H36.56v8.75H47.43V294Z"/><path class="cls-2" d="M81.22,292.22a33,33,0,0,0-8-4.35c-.18,4.48-1.23,6.25-6.87,6.25-6.07,0-9.85-2.16-9.85-5.73,0-1.27.44-6.38,10.34-6l1.23,0-.09-4.23c-.79.05-3.21.14-4.49.14-4,0-6.07-1.46-6.07-3.17,0-2.16,3-4.23,4.71-5.46l2.51,2.16c-.79.57-1.45,1-1.45,1.63s.92.61,1.67.61a29.4,29.4,0,0,0,3-.09l-.08-5.5c-5.06.22-7.57.4-11.36.84l-.09-4.75c5,0,7.4-.09,11.31-.18l-.13-5.85,5.37.53c.84.08,1.1.22,1.1.52s-.09.22-.57.62a1.38,1.38,0,0,0-.57.79c0,.05,0,.88-.09,3.17,5.63-.26,7.13-.35,11.26-.66l-.17,4.67c-4.89,0-9,.08-11.18.13v5.19c3.83-.48,5.46-.75,9.51-1.5v4.8c-1.9.31-4.23.7-9.42,1.1.09,2.2.09,2.64.22,5.24a36.57,36.57,0,0,1,11.13,5ZM66,286.46c-2.86,0-4.27.75-4.27,1.89,0,1.5,2.81,1.5,3.34,1.5,2.86,0,3-.79,3-3.26A11.14,11.14,0,0,0,66,286.46Z"/><path class="cls-2" d="M101.63,291.26a4.78,4.78,0,0,1-3.25-1.46c-3.08-3-4.49-8.14-4.49-16.5a43,43,0,0,1,1.32-11.44l4.84,1.32c.31.09,1,.31,1,.84s-.53.66-1.27.92a45.14,45.14,0,0,0-.84,9.81c0,8.58,2.11,10.17,3,10.17,1.59,0,3.39-4.67,4.23-6.78l3.65,3.26C107.4,286.59,105.2,291.26,101.63,291.26ZM124,283.42a40.93,40.93,0,0,0-6.47-17.86l4.53-2.21a37.49,37.49,0,0,1,7.22,18.71Z"/><path class="cls-2" d="M164.49,287.2a17.39,17.39,0,0,1-8.38,6.33l-2.67-3.71a12,12,0,0,0,6.48-3.85,11.23,11.23,0,0,0,2.59-7.16,8.47,8.47,0,0,0-2.59-6.3,9.22,9.22,0,0,0-6.12-2.41c-1.15,8.57-3.27,13.6-4.46,16-1.08,2.23-2.74,5.25-4.61,5.25-1.29,0-7.2-3.24-7.2-9.68a15.53,15.53,0,0,1,15.88-15.26c7.48,0,13.39,5.07,13.39,13.1A13.47,13.47,0,0,1,164.49,287.2Zm-19.36-13.86a11.76,11.76,0,0,0-3.6,8c0,2.91,1.65,4.43,2.3,4.43,1.87,0,5-9.4,5.69-15A10.67,10.67,0,0,0,145.13,273.34Z"/><path class="cls-2" d="M187.72,281.09a39.61,39.61,0,0,1-2.73-3.61v17.65H180.5V279.81a35,35,0,0,1-4.23,6.34l-4.09-2.42a37.14,37.14,0,0,0,7.92-15.45H174V264.1h6.47v-6.6l4,.4c.27,0,1.19.09,1.19.57,0,.09,0,.22-.26.4s-.44.35-.44.48v4.75h5.76v4.18H185v.49c.88,2.73,3.52,6.29,6,9.06Zm18,13.73v-2.33h-9v2.64H191.9V258.65h18.79v36.17Zm0-31.9h-9v5.23h9Zm0,9.5h-9v5.24h9Zm0,9.51h-9V288h9Z"/><path class="cls-2" d="M218.69,267.84v-3.69H232v3.69Zm33.8,27.68a19.61,19.61,0,0,1-8.45-7.43,15.27,15.27,0,0,1-8.8,7.79l-3.57-3.83v2.77h-4.4v-1.36h-3.65v1.76h-4.36V281.4h12.41v10.16c2.73-.57,9.46-2.2,9.46-12.76,0-1.1-.08-2.16-.13-2.86l4.71,0c1.36,0,1.72.18,1.72.58s-.22.57-.75,1.05a1,1,0,0,0-.49,1.06c0,4.84,1.24,9.72,10,12.76Zm-32.26-22.13v-3.74h10.56v3.74Zm0,5.9v-3.7h10.56v3.7Zm.18-17v-3.78h10.34v3.78Zm6.86,22.89h-3.65v4.49h3.65ZM253,278a20.26,20.26,0,0,1-9.2-7.31,18.07,18.07,0,0,1-8.67,7.13l-3.38-3.92c8.18-2.46,9.33-6.2,9.33-12.36,0-1.5-.09-2.86-.18-3.92l4.4.09c1.19,0,1.67.13,1.67.53,0,.22-.09.3-.22.48a4.25,4.25,0,0,1-.48.53,18.19,18.19,0,0,0-.27,4.27,7.11,7.11,0,0,0,2.38,5.89,22.69,22.69,0,0,0,8.41,4.49Zm-14,3.47a23.71,23.71,0,0,1-1.85,5.85l-4.4-1.45c.4-.79,1.19-2.37,1.81-6.64l4.4.92c.66.13,1,.27,1,.53S239.28,281.27,238.93,281.44Zm-.7-18a38.87,38.87,0,0,1-.79,5.72l-4.32-.79a28.35,28.35,0,0,0,1-7l4,.75c.62.13,1,.22,1,.48S238.58,263.22,238.23,263.4Zm17-.13c-.67,0-.75,0-1,.31a20.29,20.29,0,0,1-3.92,4.4l-3.52-2.78a26.43,26.43,0,0,0,4.36-5.32l4.13,2.24c.18.09.53.35.53.66S255.39,263.22,255.22,263.27Zm-.45,17.82c-.3,0-.57.18-.79.22a20.2,20.2,0,0,1-2.73,4.22l-3.78-2.46a24.05,24.05,0,0,0,3.17-4.89l4.09,1.72c.22.09.7.44.7.75S255.22,281,254.77,281.09Z"/><path class="cls-2" d="M297,273.74a26.62,26.62,0,0,1-5.06-2.33v3.74H270.74v-3.61a39.58,39.58,0,0,1-5.5,2.86l-3.34-3.87A30.92,30.92,0,0,0,278,257.11l6.29,1.1c.35,0,.66.26.66.57a.62.62,0,0,1-.39.57,32.65,32.65,0,0,0,7.43,6.29,40,40,0,0,0,8.54,3.88Zm-2.9,22a31,31,0,0,0-2.9-3.91c-6,.75-15.93,1.85-17.21,2-.92.09-5.59.48-6.65.66a.56.56,0,0,0-.44.31c-.26.52-.39.66-.52.66a.51.51,0,0,1-.4-.4l-1.41-5.77c2.77,0,4,0,6.21-.13,1.1-1.76,2-3.3,4-7.08h-10v-4.27h32.35v4.27h-9.29a65.15,65.15,0,0,1,10.26,10.38ZM281,262.17a42.74,42.74,0,0,1-9.11,8.62h18.92A40,40,0,0,1,281,262.17Zm3.17,23.1,3.17-3.21h-6.6c-2.07,3.65-3.35,5.59-4.14,6.77,3.7-.17,7.35-.39,11-.83A26.43,26.43,0,0,0,284.21,285.27Z"/><path class="cls-2" d="M323.24,281.8c0,1.4.07,5.86.07,7.09h-4.17c.1-2.05.14-3.82.17-5.4-1.36.68-5.11,2.55-5.11,5.07,0,2.34,2.77,2.81,5.4,2.81a41.8,41.8,0,0,0,9.18-1.15v4.07a59.5,59.5,0,0,1-8.56.54c-2,0-6.2,0-8.46-2.41a4.93,4.93,0,0,1-1.37-3.53c0-4.47,3.31-6.16,8.71-8.93a2.49,2.49,0,0,0-2.74-2.37c-3.52,0-5.68,3.27-7.66,6.51l-3.53-2.2a47.84,47.84,0,0,0,7.09-9.89c-2.05.1-3.17.14-4.68.14l-.43-3.74a50.32,50.32,0,0,0,6.87.14,27.46,27.46,0,0,0,1.8-4.79l4.5.8c.11,0,.72.1.72.36s-.14.32-.36.39-.79.36-.83.36-.93,2.05-1.11,2.45a30.19,30.19,0,0,0,7.05-1.84l-.25,4a75.4,75.4,0,0,1-8.6,1.37c-1.15,2.13-1.44,2.63-2.05,3.57a6.86,6.86,0,0,1,3.09-.76,4.83,4.83,0,0,1,4.9,3.64c4.21-2,4.68-2.2,6.37-3l1.22,4.11C327.63,280.18,325.9,280.79,323.24,281.8Z"/><path class="cls-2" d="M343.33,272.29v22.84h-4.89V258.78h17v13.51ZM351,262.21h-7.65V264H351Zm0,4.75h-7.65v1.9H351Zm11.75,18.31v9.15H358.2v-9.15h-3.56c-.93,4.8-2.64,7-6.21,10l-3.83-3c4-2.47,4.89-4,5.68-7h-5.19v-3.92h5.63c.09-1.32.09-1.84.09-3.21h-4.45v-3.78h20.69v3.78h-4.32v3.21h5.46v3.92Zm-4.53-7.13h-3.08c0,1.85,0,2.38-.09,3.21h3.17Zm12.45,17.21H368l-2.11-4.62h2.9c1.1,0,1.67-.44,1.67-1.54v-16.9H358.07V258.78h17v31.6C375.05,293.19,374.09,295.35,370.65,295.35Zm-.22-33.14h-7.56V264h7.56Zm0,4.75h-7.56v1.9h7.56Z"/><path class="cls-2" d="M399.82,294.6v1h-4.75V279.72c-.7.8-.79.89-1.23,1.37l-2.38-2.24V295.7h-4.79v-22a24.54,24.54,0,0,1-2.2,2.64L380.15,273a32.59,32.59,0,0,0,8.8-15.4l4,1.32a6.1,6.1,0,0,1,1.85.79v-.88l3.83.26c1.45.09,1.81.18,1.81.57s-.27.45-.44.53c-.4.31-.53.4-.53.62v4h4.66v-7.35l3.83.27c.66,0,1.8.09,1.8.57,0,.18-.17.31-.3.4-.58.39-.71.48-.71.74v5.37h4.93v-6l4,.26c.61,0,1.67.09,1.67.57,0,.22-.13.36-.53.58s-.48.35-.48.57v7.83H408.18l2.38,1.06c.75.31,1,.61,1,.88s-.26.39-.57.44-.57.09-.75.26c-.35.4-.75,1.19-1.06,1.63h11.09v3.83H409.9V279h7.7v3.52h-7.7v2.29h7.7v3.52h-7.7v2.46h10.34v3.83Zm-5.06-26v-8.1c-.08.09-.13.09-.48.27a.9.9,0,0,0-.66.53,30.88,30.88,0,0,1-2.25,4.57c.58.27,1.19.58,1.19,1.1a.9.9,0,0,1-.48.71c-.53.35-.62.53-.62.7v8.32a25.66,25.66,0,0,0,6-8.1Zm10.43,8.1h-5.37V279h5.37Zm0,5.81h-5.37v2.29h5.37Zm0,5.81h-5.37v2.46h5.37Zm-4.49-19.72,1.63,1c.13.09.71.4.71.8a.47.47,0,0,1-.22.39,11.25,11.25,0,0,1-1.24.4,8.09,8.09,0,0,0-1.27,1.67H404a37.68,37.68,0,0,0,2.82-4.27Z"/><path class="cls-2" d="M457.73,284.65v-1.76H447.61v12.5h-5.06v-12.5h-10v1.94h-5.06V265.07h15.1v-7.48l5.5.48c.26.05.66.09.66.49s-.31.48-.49.61c-.35.22-.61.4-.61.66v5.24h15.18v19.58Zm-15.18-14.78h-10v8.27h10Zm15.18,0H447.61v8.27h10.12Z"/><path class="cls-2" d="M34,108.13H22.41a.5.5,0,0,0-.5.5v9.73a.5.5,0,0,0,.5.5h9.36V134c0,.52-.07.59-.08.6s-.09,0-.34,0l-2.79-.1a.39.39,0,0,0-.18,0v0l.37-.7a.5.5,0,0,0-.3-.71,9.68,9.68,0,0,1-5.67-4.27h7.29a.51.51,0,0,0,.5-.5v-1.5a.5.5,0,0,0-.5-.49H21.73c.1-.6.17-1.19.22-1.87H29.1a.5.5,0,0,0,.51-.5V122.5a.5.5,0,0,0-.51-.5H25.62c.26-.69.52-1.49.7-2.14a.49.49,0,0,0-.05-.39.52.52,0,0,0-.33-.23l-1.57-.32h-.1a.5.5,0,0,0-.48.37c-.33,1.16-.55,1.92-.85,2.72H18.53c-.32-1-.82-2.26-1-2.78l-.15-.36H19a.5.5,0,0,0,.5-.5v-9.73a.5.5,0,0,0-.5-.5H7.47a.5.5,0,0,0-.51.5v28.09a.51.51,0,0,0,.51.5H9.23a.51.51,0,0,0,.5-.5V118.86h6.65l-1.17.22a.52.52,0,0,0-.35.26.5.5,0,0,0,0,.43c.35.78.68,1.57.93,2.23H12.2a.5.5,0,0,0-.5.5V124a.5.5,0,0,0,.5.5h7.07a16.73,16.73,0,0,1-.22,1.87H11.21a.49.49,0,0,0-.5.49v1.5a.5.5,0,0,0,.5.5h7.15c-1,2.3-3.23,3.8-6.51,4.45a.5.5,0,0,0-.36.29.51.51,0,0,0,0,.45l.9,1.53a.51.51,0,0,0,.43.24H13a11.05,11.05,0,0,0,7.65-5.6,13.22,13.22,0,0,0,6.65,5.49.51.51,0,0,0,.17,0,.5.5,0,0,0,.44-.27l.19-.34.35,1.74a.51.51,0,0,0,.49.4h2.95c1.67,0,2.68-1.11,2.68-2.95V108.63A.5.5,0,0,0,34,108.13ZM16.79,116.4H9.73v-1.84h7.06Zm0-4.26H9.73v-1.52h7.06Zm15,4.26H24.68v-1.84h7.09Zm0-4.26H24.68v-1.52h7.09Zm46.62,21.92A32,32,0,0,1,67,126.84h9a.49.49,0,0,0,.5-.49V114.83a.5.5,0,0,0-.5-.5H64.85v-1.58h13.3a.5.5,0,0,0,.5-.5v-1.59a.49.49,0,0,0-.5-.49H64.85v-2.56a.5.5,0,0,0-.5-.5H62.59a.5.5,0,0,0-.5.5v2.56H48.8a.49.49,0,0,0-.5.49v1.59a.5.5,0,0,0,.5.5H62.09v1.58H51.2a.5.5,0,0,0-.5.5v11.52a.49.49,0,0,0,.5.49h8.71a29.87,29.87,0,0,1-11.44,7,.51.51,0,0,0-.3.29.53.53,0,0,0,0,.41l.9,1.69a.5.5,0,0,0,.44.27.58.58,0,0,0,.19,0c2.93-1.18,8.43-3.82,12.37-8.2v8.44a.51.51,0,0,0,.5.5h1.76a.5.5,0,0,0,.5-.5V128.3c2.76,3.18,7.07,6,12.47,8.3a.43.43,0,0,0,.19,0,.5.5,0,0,0,.46-.3l.7-1.62a.44.44,0,0,0,0-.39A.47.47,0,0,0,78.39,134.06Zm-16.3-9.74H53.36v-2.53h8.73Zm0-5H53.36v-2.44h8.73Zm2.76-2.44h8.86v2.44H64.85Zm0,7.43v-2.53h8.86v2.53Zm54.73-16.16H92.72a.5.5,0,0,0-.5.5v27.55a.5.5,0,0,0,.5.5h26.86a.51.51,0,0,0,.5-.5V108.66A.5.5,0,0,0,119.58,108.16Zm-2.3,26H95V126l-.09-.49L95,126l.9,1.16a.49.49,0,0,0,.39.19.48.48,0,0,0,.26-.07,27.85,27.85,0,0,0,3.76-2.64.5.5,0,0,0,.47.33h7.88v1.39H99.31a.5.5,0,0,0-.5.49v4.08a2.08,2.08,0,0,0,2.23,2h11.24c2.25,0,2.52-2,2.64-4.64a.5.5,0,0,0-.35-.5l-1.79-.54-.14,0a.54.54,0,0,0-.3.1.48.48,0,0,0-.21.39c0,1.53-.08,2.85-.43,2.85h-10s-.2,0-.2-.36v-1.54h9.33a.5.5,0,0,0,.5-.5v-4.44a27.51,27.51,0,0,0,4.51,3.49.45.45,0,0,0,.27.08.52.52,0,0,0,.42-.22l.74-1.11ZM109,121a17.75,17.75,0,0,0,1.25,1.61H102.4a15.59,15.59,0,0,0,1.28-1.61Zm-4-2.39c.24-.51.42-1,.71-1.78h1.06a16.69,16.69,0,0,0,.8,1.78Zm12.27,6.21a19.21,19.21,0,0,1-5.06-3.82h4.41a.5.5,0,0,0,.5-.5v-1.4a.49.49,0,0,0-.5-.49h-6.29a11.32,11.32,0,0,1-.92-1.78h6.22a.49.49,0,0,0,.5-.49V115a.5.5,0,0,0-.5-.5h-3.12a22.14,22.14,0,0,0,1.28-2.09.48.48,0,0,0,0-.42.57.57,0,0,0-.3-.29l-1.51-.54a.47.47,0,0,0-.17,0,.49.49,0,0,0-.44.27,26.82,26.82,0,0,1-1.83,3.1h-3.1c.22-.75.39-1.41.67-2.6a.5.5,0,0,0-.06-.38.47.47,0,0,0-.33-.22l-1.63-.32H105a.5.5,0,0,0-.49.4,31.42,31.42,0,0,1-.75,3.13H102a28,28,0,0,0-1.94-3.22.5.5,0,0,0-.65-.16l-1.38.73a.57.57,0,0,0-.25.32.51.51,0,0,0,.07.4l.09.13c.22.33.59.87,1.12,1.8H96.75a.5.5,0,0,0-.5.5v1.37a.5.5,0,0,0,.5.49H103a13.91,13.91,0,0,1-.83,1.78H95.6a.49.49,0,0,0-.5.49v1.4a.5.5,0,0,0,.5.5h4.82A18.61,18.61,0,0,1,95,125V110.75h22.3Zm43-10.12a.51.51,0,0,0-.4-.2.53.53,0,0,0-.27.08l-1.54,1a.52.52,0,0,0-.22.33.54.54,0,0,0,.09.39,27.57,27.57,0,0,1,3.34,5.85.51.51,0,0,0,.32.27.32.32,0,0,0,.14,0,.53.53,0,0,0,.27-.08l1.67-1.08a.5.5,0,0,0,.18-.62A30.6,30.6,0,0,0,160.25,114.69Zm-4.35,1.78a.51.51,0,0,0-.4-.2.5.5,0,0,0-.26.08l-1.57,1a.49.49,0,0,0-.23.33.5.5,0,0,0,.08.39,29.73,29.73,0,0,1,3.25,5.91.46.46,0,0,0,.31.28.37.37,0,0,0,.15,0,.5.5,0,0,0,.26-.08l1.7-1a.49.49,0,0,0,.18-.63A29.7,29.7,0,0,0,155.9,116.47Zm2.86,16.06c-12.73,0-14.45-3.56-14.45-7,0-5.7,6.47-10.52,11.07-12.14a6.81,6.81,0,0,1,2.77-.35c.94,0,1.81.07,3.52.19h0a.51.51,0,0,0,.34-.14.48.48,0,0,0,.16-.36v-2a.5.5,0,0,0-.5-.49c-6.6,0-8.82,0-17.38.41l-2.6.12c-2.53.12-5.4.26-6.46.26a.5.5,0,0,0-.38.17.47.47,0,0,0-.12.38l.22,2.07a.49.49,0,0,0,.19.33.51.51,0,0,0,.31.11h0c2.83-.3,10.73-.78,14.71-1-5.86,3.57-8.95,8-8.95,12.66,0,9.11,11.43,9.63,16.93,9.88h0a.5.5,0,0,0,.49-.37l.51-2.07a.51.51,0,0,0-.09-.43A.51.51,0,0,0,158.76,132.53Zm43.09-21.22H174.58a.5.5,0,0,0-.5.5v1.91a.49.49,0,0,0,.5.49H198a35.81,35.81,0,0,1-10.67,10.92c-1.76-1.66-3.8-3.4-6.07-5.19a.47.47,0,0,0-.3-.1.57.57,0,0,0-.41.17.5.5,0,0,0-.34-.13.51.51,0,0,0-.37.15l-.9,1a.47.47,0,0,0-.13.37.52.52,0,0,0,.19.36,70.22,70.22,0,0,1,13.15,13.36.5.5,0,0,0,.34.2h.07a.51.51,0,0,0,.31-.11l1.6-1.28a.49.49,0,0,0,.09-.68,59.26,59.26,0,0,0-5.19-6.08c6.11-4,10.85-9.57,13-15.14a.5.5,0,0,0,0-.46A.51.51,0,0,0,201.85,111.31ZM239,112.37a.5.5,0,0,0-.31-.1.39.39,0,0,0-.15,0,.52.52,0,0,0-.33.32c-.87,2.75-2.93,9.19-8.7,14a23.3,23.3,0,0,1-14.46,5.23.5.5,0,0,0-.48.57l.32,2.19a.51.51,0,0,0,.5.43h0a26.86,26.86,0,0,0,15.47-5.74c6.4-5.13,8.8-11.81,10-15a.5.5,0,0,0-.16-.55Zm-14.84,5.34h.1a.49.49,0,0,0,.33-.23l1.12-1.84a.49.49,0,0,0-.16-.67,41.07,41.07,0,0,0-10-4.49l-.14,0a.51.51,0,0,0-.43.24l-1.09,1.82a.47.47,0,0,0,0,.43.46.46,0,0,0,.32.3,36.91,36.91,0,0,1,9.69,4.39A.54.54,0,0,0,224.17,117.71Zm36.3,5.25a.39.39,0,0,0,.15,0,.48.48,0,0,0,.3-.26l.93-1.91a.5.5,0,0,0-.21-.65,37.23,37.23,0,0,0-9.23-3.73.3.3,0,0,0-.13,0,.48.48,0,0,0-.45.28L251,118.4a.55.55,0,0,0,0,.42.53.53,0,0,0,.33.27,33.27,33.27,0,0,1,8.94,3.8A.43.43,0,0,0,260.47,123Zm-6.76-11.22a36,36,0,0,1,9,3.77.48.48,0,0,0,.26.07l.15,0a.52.52,0,0,0,.31-.27l.89-2a.49.49,0,0,0-.22-.64,35.28,35.28,0,0,0-9.3-3.58l-.12,0a.5.5,0,0,0-.45.28l-.83,1.69a.48.48,0,0,0,0,.42A.48.48,0,0,0,253.71,111.74Zm22.15,2a.51.51,0,0,0-.31-.11.4.4,0,0,0-.15,0,.5.5,0,0,0-.33.32c-3.93,11.87-9.73,16.54-22.14,17.86a.48.48,0,0,0-.35.19.49.49,0,0,0-.09.39l.38,2.13a.51.51,0,0,0,.49.41h.08c14-2,19.43-6.36,24.12-19.47a.5.5,0,0,0-.17-.56Zm30,1.93H289.09a.5.5,0,0,0-.5.5v1.65a.5.5,0,0,0,.5.5h14.45v5H289.29a.5.5,0,0,0-.5.5v1.68a.5.5,0,0,0,.5.5h14.25v5.81H288.8a.51.51,0,0,0-.5.5v1.75a.51.51,0,0,0,.5.5h17a.51.51,0,0,0,.5-.5V116.2A.5.5,0,0,0,305.84,115.7Zm25.32,2h.1a.49.49,0,0,0,.33-.23l1.12-1.84a.5.5,0,0,0-.16-.68,41.43,41.43,0,0,0-10-4.48l-.14,0a.51.51,0,0,0-.43.24l-1.09,1.82a.47.47,0,0,0,0,.43.48.48,0,0,0,.32.3,36.91,36.91,0,0,1,9.69,4.39A.54.54,0,0,0,331.16,117.71ZM346,112.38a.51.51,0,0,0-.31-.11l-.15,0a.52.52,0,0,0-.33.33c-.87,2.75-2.93,9.18-8.7,13.95a23.3,23.3,0,0,1-14.46,5.23.47.47,0,0,0-.36.18.46.46,0,0,0-.12.39l.32,2.19a.51.51,0,0,0,.5.43h0a26.86,26.86,0,0,0,15.47-5.74c6.41-5.14,8.8-11.81,9.95-15a.49.49,0,0,0-.16-.56Zm42.76,5.1h-4.68v-1.93h3.05a.5.5,0,0,0,.5-.5v-1.3a.5.5,0,0,0-.5-.5h-3.05v-1.52H388a.5.5,0,0,0,.5-.5v-1.36a.5.5,0,0,0-.5-.5h-3.95v-1.83a.5.5,0,0,0-.5-.49H382a.49.49,0,0,0-.5.49v1.83h-5v-1.83a.49.49,0,0,0-.5-.49h-1.56a.5.5,0,0,0-.51.49v1.83h-3.78a.5.5,0,0,0-.5.5v1.36a.5.5,0,0,0,.5.5H374v1.52h-3a.5.5,0,0,0-.5.5v1.3a.5.5,0,0,0,.5.5h3v1.93H369v-8.85a.5.5,0,0,0-.5-.5h-7.81a.5.5,0,0,0-.5.5v20.1a.5.5,0,0,0,.5.5h1.22l.12.05a.51.51,0,0,0-.24.26,14.58,14.58,0,0,1-3.22,5.53.5.5,0,0,0,0,.7l1.25,1.21a.5.5,0,0,0,.35.14h0a.46.46,0,0,0,.35-.16,19.56,19.56,0,0,0,3.6-6.31.5.5,0,0,0-.23-.6l-1.41-.77-.11,0h6.11a.5.5,0,0,0,.5-.5v-8.88h8.77v1.29h-6.35a.5.5,0,0,0-.5.5v7.74H369.3a.5.5,0,0,0-.5.5v1.43a.5.5,0,0,0,.5.5H371v5a.5.5,0,0,0,.5.5H373a.5.5,0,0,0,.51-.5v-5h11.13v2.55a1,1,0,0,1,0,.31,1.43,1.43,0,0,1-.57.06l-3.31-.07a.51.51,0,0,0-.39.19.49.49,0,0,0-.1.42l.39,1.63a.49.49,0,0,0,.48.38h3.43c.87,0,2.68,0,2.68-2.47v-3h1.54a.5.5,0,0,0,.5-.5v-1.43a.5.5,0,0,0-.5-.5h-1.54v-7.74a.5.5,0,0,0-.5-.5h-6.45v-1.29h8.49a.5.5,0,0,0,.5-.5V118A.5.5,0,0,0,388.76,117.48Zm-22.3,9.26h-3.6v-4h3.6Zm0-6.43h-3.6V116.5h3.6Zm0-6.23h-3.6v-3.46h3.6Zm11.34,15.3h-4.28v-1.84h4.28Zm0-4.17h-4.28V123.5h4.28Zm6.85,4.17h-4.38v-1.84h4.38Zm0-5.88v1.71h-4.38V123.5Zm-3.17-6h-5v-1.93h5Zm0-4.23h-5v-1.52h5Zm-14.15,16.47a.49.49,0,0,0-.43-.24.59.59,0,0,0-.23.05l-1.35.7a.5.5,0,0,0-.21.67c1.31,2.5,1.49,2.89,2.49,5l.16.34a.5.5,0,0,0,.45.29.54.54,0,0,0,.21-.05l1.54-.7a.47.47,0,0,0,.26-.29.46.46,0,0,0,0-.38C369.19,133.17,368,130.79,367.33,129.72ZM429,134.38c-3.26-1.82-13.18-7.34-13.18-25.37a.5.5,0,0,0-.5-.5H404.36a.5.5,0,0,0-.5.5v1.75a.49.49,0,0,0,.5.49h8.27c-.16,14-7,19.66-13.61,23.38a.49.49,0,0,0-.24.32.5.5,0,0,0,.07.39l1,1.56a.52.52,0,0,0,.42.22.53.53,0,0,0,.24-.06c9.75-5.27,12.46-11.81,13.83-17.51,1.48,6.9,5.87,12.77,13.06,17.43a.53.53,0,0,0,.27.08l.12,0a.5.5,0,0,0,.31-.22l1.06-1.75a.49.49,0,0,0,.05-.39A.45.45,0,0,0,429,134.38Zm36.41-14.85-.7-1.94a.53.53,0,0,0-.26-.29.52.52,0,0,0-.21,0,.57.57,0,0,0-.18,0l-2.18.84c-3.45,1.34-4.44,1.72-5.66,2.22-.21-1-.87-3.89-4.91-3.89a9.15,9.15,0,0,0-4.37,1.15,24.42,24.42,0,0,0,1.28-3.3h14.23a.5.5,0,0,0,.5-.5V112a.51.51,0,0,0-.5-.5H449c.29-1.09.45-1.85.66-2.89l.07-.33a.49.49,0,0,0-.48-.59l-2.16,0a.49.49,0,0,0-.49.45,23.84,23.84,0,0,1-.63,3.4h-7.23a.5.5,0,0,0-.5.5v1.78a.5.5,0,0,0,.5.5h6.37c-2.56,7.08-5.14,9.83-7.35,11.86a.5.5,0,0,0,0,.7l1.38,1.55a.46.46,0,0,0,.36.17h0a.47.47,0,0,0,.35-.15c.59-.6,2.22-2.68,3.65-4.51.68-.87,1.33-1.69,1.44-1.81.51-.52,3.22-3.07,6.05-3.07,1.89,0,2.25,1.11,2.51,2.46-4.25,1.93-9.13,4.71-9.13,9,0,5.3,7.35,5.3,10.88,5.3a78.25,78.25,0,0,0,7.86-.37h.12a.5.5,0,0,0,.45-.54l-.16-1.9a.48.48,0,0,0-.18-.35.52.52,0,0,0-.32-.11l-.18,0a73.72,73.72,0,0,1-8.49.49c-4.05,0-7.15-.2-7.15-2.65,0-1.87,2.28-4,6.6-6a31.59,31.59,0,0,1-.14,4.87.52.52,0,0,0,.12.4.53.53,0,0,0,.38.16l1.93,0a.49.49,0,0,0,.48-.42,33.27,33.27,0,0,0,0-6.18c2-.8,3.64-1.35,8.49-3a.5.5,0,0,0,.29-.26A.46.46,0,0,0,465.4,119.53Z"/><path class="cls-2" d="M36,164.86a19.06,19.06,0,0,1-8.86-7.54.49.49,0,0,0-.41-.21H24.92a.5.5,0,0,0-.42.22,21.07,21.07,0,0,1-8.42,7.39v-.36a.5.5,0,0,0-.5-.5H13.1v-6.32a.5.5,0,0,0-.5-.5H10.94a.5.5,0,0,0-.5.5v6.32H6.14a.5.5,0,0,0-.5.5v1.53a.5.5,0,0,0,.5.5h4c-1.67,6.52-3.92,9.29-4.93,10.55a.5.5,0,0,0,0,.56l1,1.82a.49.49,0,0,0,.4.25.53.53,0,0,0,.44-.19,23,23,0,0,0,3.39-5.78v13.28a.5.5,0,0,0,.5.5H12.6a.5.5,0,0,0,.5-.5V172.51a24.75,24.75,0,0,0,2.09,3,.51.51,0,0,0,.39.19.49.49,0,0,0,.4-.2L17.1,174a.5.5,0,0,0,0-.63,18.91,18.91,0,0,1-4-6.65v-.3h2.48a.49.49,0,0,0,.49-.43l.66,1a.49.49,0,0,0,.65.16l.23-.12c.48-.26,1-.56,1.66-.95v0a.5.5,0,0,0,.5.5h4.78v2.32H17.72a.5.5,0,0,0-.5.5v8.16a.5.5,0,0,0,.5.5h6.17c-.49,1.76-1.9,4.83-8.33,6.7a.51.51,0,0,0-.32.29.49.49,0,0,0,0,.44l.9,1.57a.49.49,0,0,0,.58.23c5-1.56,8.17-4.22,9.6-8.08a14.89,14.89,0,0,0,8.29,8,.51.51,0,0,0,.65-.25l.77-1.63a.52.52,0,0,0-.26-.68,12.68,12.68,0,0,1-7.22-6.59h5.55a.5.5,0,0,0,.5-.5v-8.16a.5.5,0,0,0-.5-.5H27.28v-2.32h4.84a.51.51,0,0,0,.49-.41c.88.54,1.45.85,2,1.12a.51.51,0,0,0,.66-.18l1-1.53a.49.49,0,0,0,.06-.41A.51.51,0,0,0,36,164.86Zm-11.46,6.56V173a18.14,18.14,0,0,1-.15,2.54H19.88v-4.15Zm5.12-7.34H22a20.44,20.44,0,0,0,3.85-4.22A22.71,22.71,0,0,0,29.67,164.08Zm2.27,7.34v4.15H27.15a23.19,23.19,0,0,0,.13-2.7v-1.45Z"/><rect class="cls-2" x="49.96" y="162.48" width="13.06" height="2.54" rx="0.5" ry="0.5"/><path class="cls-2" d="M69.7,179.07a.4.4,0,0,0,.15,0,.56.56,0,0,0,.27-.08L71.78,178a.5.5,0,0,0,.19-.63A32.15,32.15,0,0,0,66.74,169a.5.5,0,0,0-.67-.08l-1.38,1a.52.52,0,0,0-.2.34.51.51,0,0,0,.1.38,34.11,34.11,0,0,1,4.8,8.17A.48.48,0,0,0,69.7,179.07Z"/><rect class="cls-2" x="51.01" y="171.54" width="11.02" height="2.57" rx="0.5" ry="0.5"/><path class="cls-2" d="M79.86,164H77.13v-6.45a.5.5,0,0,0-.5-.5H74.94a.5.5,0,0,0-.5.5V164H63.83a.5.5,0,0,0-.5.5v1.66a.5.5,0,0,0,.5.5H74.44v17.48a1.78,1.78,0,0,1,0,.56s-.12.1-.75.06l-4.22-.16a.51.51,0,0,0-.51.61l.38,1.79a.51.51,0,0,0,.49.4h3.88c3.22,0,3.47-1.32,3.47-3V166.68h2.73a.5.5,0,0,0,.5-.5v-1.66A.5.5,0,0,0,79.86,164Z"/><path class="cls-2" d="M61.53,176.11H51.61a.5.5,0,0,0-.5.5v9.76a.5.5,0,0,0,.5.5h9.92a.5.5,0,0,0,.5-.5v-9.76A.51.51,0,0,0,61.53,176.11Zm-7.69,8.26v-5.75h5.43v5.75Z"/><rect class="cls-2" x="51.01" y="158.1" width="11.02" height="2.57" rx="0.5" ry="0.5"/><rect class="cls-2" x="51.01" y="166.9" width="11.02" height="2.57" rx="0.5" ry="0.5"/><path class="cls-2" d="M119.08,172.48l-1.83-.45a.5.5,0,0,0-.39.07.52.52,0,0,0-.22.33c-1,5.19-1.94,10.56-10.38,10.56-5.78,0-6.22-3.65-6.22-8.81,0-2.81,0-5.08.38-15.21a.55.55,0,0,0-.14-.37.51.51,0,0,0-.37-.15l-2.24,0a.5.5,0,0,0-.49.49c0,.65,0,2.08-.07,3.82-.08,4-.19,9.43-.19,11.07,0,6.3.75,12,9.78,12,10.65,0,12-8.31,12.75-12.77A.5.5,0,0,0,119.08,172.48Z"/><path class="cls-2" d="M160.81,160.18c-6.59,0-8.81,0-17.37.41l-2.48.12c-2.71.13-5.51.27-6.58.27a.53.53,0,0,0-.38.16.51.51,0,0,0-.12.39l.22,2.08a.48.48,0,0,0,.55.44c2.75-.29,10.57-.78,14.71-1-5.87,3.59-9,8-9,12.73,0,9.17,11.44,9.69,16.93,9.94h0a.5.5,0,0,0,.49-.38l.51-2.08a.51.51,0,0,0-.09-.43.51.51,0,0,0-.4-.19c-12.72,0-14.44-3.58-14.44-7.08,0-5.73,6.47-10.58,11.07-12.2a6.43,6.43,0,0,1,2.77-.36c1,0,1.85.07,3.51.19a.5.5,0,0,0,.54-.5v-2A.5.5,0,0,0,160.81,160.18Z"/><path class="cls-2" d="M198.56,161a.5.5,0,0,0-.65,0l-1.41,1.28a.55.55,0,0,0-.16.38.47.47,0,0,0,.19.38c2.68,2.16,5.76,5.81,5.76,14.94,0,1.56-.06,2.63-.13,3.54a.52.52,0,0,0,.14.39.55.55,0,0,0,.36.15h0l2.14-.06a.51.51,0,0,0,.49-.48c0-.78.06-1.65.06-2.81C205.37,170,203.33,164.74,198.56,161Z"/><path class="cls-2" d="M193.3,175.31l-1.6-.87a.53.53,0,0,0-.41,0,.46.46,0,0,0-.29.29,22.18,22.18,0,0,1-3,5.68,3.3,3.3,0,0,1-2.53,1.58c-3.62,0-4-7.29-4-12.78a68.25,68.25,0,0,1,.51-8.46l0-.19a.54.54,0,0,0-.11-.37.48.48,0,0,0-.35-.18l-2.08-.16a.48.48,0,0,0-.54.46c-.2,2.59-.42,5.63-.42,8.87,0,6.85.71,16,6.81,16,4.4,0,7.23-6.43,8.24-9.19A.49.49,0,0,0,193.3,175.31Z"/><path class="cls-2" d="M238.37,167.79a16.74,16.74,0,0,0-4.26.53l5.41-4.41c1.46-1.22,1.82-1.49,2.32-1.88l.29-.22a.51.51,0,0,0,.19-.4v-1.79a.49.49,0,0,0-.16-.37.51.51,0,0,0-.38-.13c-6.52.51-10.23.54-16.37.61h-.23a.5.5,0,0,0-.5.5v1.82a.53.53,0,0,0,.15.36.51.51,0,0,0,.36.14c5.74-.08,8.67-.22,12.36-.49-6.81,6.07-13.78,11.67-15.78,13.23a.5.5,0,0,0-.09.69l1.15,1.6a.49.49,0,0,0,.35.2.5.5,0,0,0,.39-.13c3.75-3.48,8.25-7.19,14.41-7.19,4.26,0,6.42,1.87,6.42,5.58a6.27,6.27,0,0,1-3.69,6c-1.7-5.88-6.07-6.53-7.91-6.53-3.24,0-5.59,2-5.59,4.66,0,3.32,3.52,5.65,8.57,5.65,5.55,0,11.54-3.08,11.54-9.85C247.32,168.38,240.47,167.79,238.37,167.79Zm-.26,15.26a10.09,10.09,0,0,1-2.21.23c-3.36,0-6-1.37-6-3.12,0-1,.85-2,2.73-2a5.34,5.34,0,0,1,4.36,2.26h0A5.86,5.86,0,0,1,238.11,183.05Z"/><path class="cls-2" d="M292,161.81H278.74v-4.24a.5.5,0,0,0-.5-.5h-1.89a.51.51,0,0,0-.5.5v4.24H262.69a.5.5,0,0,0-.5.5V164a.5.5,0,0,0,.5.5h9.37c-.37,9.87-.72,15.38-9.74,20.44a.51.51,0,0,0-.25.34.49.49,0,0,0,.1.41l1.35,1.67a.48.48,0,0,0,.39.18.47.47,0,0,0,.25-.07c8.8-5.26,9.85-12.1,10.24-15.74h11.48c-.09,2.16-.57,10.25-1.52,12-.47.83-1.35.9-2.45.9h0l-5.31,0a.56.56,0,0,0-.39.18.49.49,0,0,0-.1.41l.35,1.86a.49.49,0,0,0,.49.4h5c1.24,0,4.16,0,5.14-2.83.91-2.57,1-3,1.8-14.66l0-.28a.5.5,0,0,0-.5-.54H274.67c.1-1,.2-2.31.28-4.6H292a.5.5,0,0,0,.5-.5v-1.66A.5.5,0,0,0,292,161.81Z"/><path class="cls-2" d="M322.34,159.41c-8.95,0-15.19,6-15.19,14.64,0,5.27,2.57,9.24,6,9.24,1.35,0,3.39-.69,5.45-3.95,3.16-5,3.85-11.68,4.35-17.16,8.89.31,9.86,7.24,9.86,10.24,0,9.09-7.65,10-11.33,10.48h0a.49.49,0,0,0-.36.23.5.5,0,0,0-.05.43l.64,1.85a.49.49,0,0,0,.47.34h.05c5.08-.51,13.61-2.93,13.61-13.43C335.8,166.08,332.26,159.41,322.34,159.41Zm-7.49,4.81h0a10.48,10.48,0,0,1,5.09-1.9c-.24,3.53-.86,10.74-3.79,15.43-1.06,1.7-2.07,2.52-3.09,2.52-2.09,0-3.05-3.71-3.05-6.22A11.49,11.49,0,0,1,314.85,164.22Z"/><path class="cls-2" d="M364.64,169l.51,1.73a.48.48,0,0,0,.26.3.42.42,0,0,0,.22.05.5.5,0,0,0,.17,0,25.39,25.39,0,0,1,8.95-1.38c1.35,0,2.18.06,3,.12h0a.48.48,0,0,0,.38-.13.51.51,0,0,0,.16-.37v-2a.5.5,0,0,0-.48-.5c-6.85-.25-10.34.67-12.86,1.6A.5.5,0,0,0,364.64,169Z"/><path class="cls-2" d="M369.33,165v-1.83a.5.5,0,0,0-.5-.5h-9c.32-2.52.36-2.85.45-3.9a.53.53,0,0,0-.13-.38.46.46,0,0,0-.35-.16l-2.14-.1a.48.48,0,0,0-.52.45c0,.23-.09.81-.16,1.47-.1.9-.21,2-.28,2.62H352a.51.51,0,0,0-.5.5V165a.51.51,0,0,0,.5.5h4.36c-.59,4-2.58,14.39-5.59,19.46a.54.54,0,0,0,0,.43.5.5,0,0,0,.3.3l2,.74a.47.47,0,0,0,.17,0,.5.5,0,0,0,.45-.29c2.72-5.59,4.79-14.52,5.77-20.67h9.36A.5.5,0,0,0,369.33,165Z"/><path class="cls-2" d="M378.63,182.64l-1.45.07c-1.72.08-3.35.15-5,.15-4.68,0-7.53-.19-7.53-2.89a5,5,0,0,1,1.1-3,.5.5,0,0,0,.07-.41.52.52,0,0,0-.26-.32l-1.63-.83a.5.5,0,0,0-.65.18,7.78,7.78,0,0,0-1.48,4.27c0,5.87,6.6,5.87,10.54,5.87l3,0,3.31-.05a.51.51,0,0,0,.5-.5v-2a.48.48,0,0,0-.16-.36A.52.52,0,0,0,378.63,182.64Z"/><path class="cls-2" d="M412,163.36c.17-1.16.27-2.17.47-4.63a.48.48,0,0,0-.12-.36.52.52,0,0,0-.35-.18l-2-.12a.5.5,0,0,0-.54.5,38.7,38.7,0,0,1-.27,4.76,17.69,17.69,0,0,0-8,2.22,35.12,35.12,0,0,1-1-5.59.5.5,0,0,0-.55-.45l-1.76.16a.51.51,0,0,0-.35.19.52.52,0,0,0-.1.38,63.81,63.81,0,0,0,1.5,6.92,12.49,12.49,0,0,0-4.28,9.36c0,.71.15,7,5.61,7,3.07,0,5.65-2,7.9-6,2-3.57,2.84-7.73,3.49-11.4a9.07,9.07,0,0,1,4.42,1.68,8.68,8.68,0,0,1,3.18,7c0,7.77-7.82,8-11.19,8.1a.55.55,0,0,0-.39.2.48.48,0,0,0-.08.42l.44,1.86a.55.55,0,0,0,.53.38h0c6.24-.22,13.67-2.3,13.67-11C422.2,170,419.52,164.2,412,163.36Zm-7.93,15.12c-.7.8-2.15,2.24-3.84,2.24-.84,0-2.8-.39-2.8-4a10.85,10.85,0,0,1,2.32-6.62A28.06,28.06,0,0,0,404.1,178.48ZM408.87,166c-1.05,6-2.36,8.75-3.25,10.33-.91-1.19-2.17-3.52-3.65-8.08A15.28,15.28,0,0,1,408.87,166Z"/><path class="cls-2" d="M442.48,159l-2.08-.23a.52.52,0,0,0-.54.38c-.39,1.65-1.42,6-1.42,14.93a62.25,62.25,0,0,0,.87,11.42.49.49,0,0,0,.49.41h.05l2.12-.23a.48.48,0,0,0,.35-.22.59.59,0,0,0,.07-.43c-.33-1.3-1-4-1-11.14a54.45,54.45,0,0,1,1.52-14.28.47.47,0,0,0-.08-.4A.47.47,0,0,0,442.48,159Z"/><rect class="cls-2" x="447.56" y="161.55" width="15.62" height="2.86" rx="0.5" ry="0.5"/><path class="cls-2" d="M463.33,180.56h-.1a60.93,60.93,0,0,1-6.73.34c-4.39,0-7.11-.54-7.11-3.21a7.91,7.91,0,0,1,1.54-4.32.51.51,0,0,0,.06-.45.48.48,0,0,0-.31-.31l-1.79-.61a.51.51,0,0,0-.59.22,10.72,10.72,0,0,0-1.7,5.5c0,6.17,7.48,6.17,10.67,6.17,2.44,0,4.89-.17,5.94-.25h.21a.5.5,0,0,0,.46-.5v-2.08a.51.51,0,0,0-.16-.37A.56.56,0,0,0,463.33,180.56Z"/></svg>